<svg width="15" height="18" viewBox="0 0 15 18" fill="none" xmlns="http://www.w3.org/2000/svg">
<path d="M12.3362 9.57238C12.3156 7.29836 14.2141 6.19204 14.3009 6.14053C13.2257 4.58618 11.5592 4.3738 10.9735 4.35687C9.57382 4.21082 8.21611 5.18732 7.50309 5.18732C6.77584 5.18732 5.67786 4.37098 4.49448 4.39497C2.97167 4.41825 1.54707 5.29245 0.765741 6.64994C-0.846726 9.41786 0.355864 13.4854 1.90073 15.7228C2.67352 16.8185 3.57653 18.0419 4.75848 17.9989C5.91482 17.9516 6.34675 17.2679 7.74219 17.2679C9.12481 17.2679 9.53041 17.9989 10.7359 17.9714C11.9769 17.9516 12.7582 16.8707 13.5039 15.7651C14.397 14.5092 14.7556 13.2723 14.7699 13.2088C14.7407 13.199 12.3597 12.298 12.3362 9.57238Z" fill="white"/>
<path d="M10.0591 2.88504C10.681 2.11386 11.1066 1.06469 10.9885 0C10.0883 0.0395114 8.96255 0.617366 8.31429 1.37161C7.74075 2.03625 7.22841 3.12564 7.36076 4.15011C8.37193 4.2249 9.41014 3.64422 10.0591 2.88504Z" fill="white"/>
</svg>
