<svg width="8" height="6" viewBox="0 0 8 6" fill="none" xmlns="http://www.w3.org/2000/svg">
<path fill-rule="evenodd" clip-rule="evenodd" d="M3.92824 0.138738C4.11323 -0.0462459 4.41311 -0.0462459 4.5981 0.138738L7.12442 2.66508C7.21328 2.75388 7.26318 2.87439 7.26318 3.00001C7.26318 3.12563 7.21328 3.24613 7.12442 3.33493L4.5981 5.86126C4.41311 6.04625 4.11323 6.04625 3.92824 5.86126C3.74325 5.67627 3.74325 5.37639 3.92824 5.1914L5.64589 3.47369H0.473686C0.212078 3.47369 0 3.26161 0 3.00001C0 2.73841 0.212078 2.52632 0.473686 2.52632H5.64589L3.92824 0.80863C3.74325 0.623646 3.74325 0.323721 3.92824 0.138738Z" fill="url(#paint0_linear_47_47817)"/>
<defs>
<linearGradient id="paint0_linear_47_47817" x1="1.97369" y1="-10.9999" x2="7.96922" y2="-10.9134" gradientUnits="userSpaceOnUse">
<stop stop-color="#2994FF"/>
<stop offset="1" stop-color="#2932FF"/>
</linearGradient>
</defs>
</svg>
