<svg width="6" height="8" viewBox="0 0 6 8" fill="none" xmlns="http://www.w3.org/2000/svg">
<path fill-rule="evenodd" clip-rule="evenodd" d="M5.86126 3.92824C6.04625 4.11323 6.04625 4.41311 5.86126 4.5981L3.33492 7.12442C3.24612 7.21328 3.12561 7.26318 2.99999 7.26318C2.87437 7.26318 2.75387 7.21328 2.66507 7.12442L0.138742 4.5981C-0.0462477 4.41311 -0.0462477 4.11323 0.138742 3.92824C0.323732 3.74325 0.623607 3.74325 0.808597 3.92824L2.52631 5.64589L2.52631 0.473685C2.52631 0.212078 2.73839 -1.42569e-07 2.99999 -1.31134e-07C3.26159 -1.197e-07 3.47368 0.212078 3.47368 0.473685L3.47368 5.64589L5.19137 3.92824C5.37635 3.74325 5.67628 3.74325 5.86126 3.92824Z" fill="url(#paint0_linear_94_869)"/>
<defs>
<linearGradient id="paint0_linear_94_869" x1="16.9999" y1="1.97369" x2="16.9134" y2="7.96922" gradientUnits="userSpaceOnUse">
<stop stop-color="#2994FF"/>
<stop offset="1" stop-color="#2932FF"/>
</linearGradient>
</defs>
</svg>
