<svg width="14" height="17" viewBox="0 0 14 17" fill="none" xmlns="http://www.w3.org/2000/svg">
<path d="M11.5212 9.06432C11.5029 7.04297 13.1904 6.05957 13.2676 6.01379C12.3119 4.63215 10.8305 4.44337 10.3099 4.42832C9.06573 4.29849 7.85887 5.16649 7.22508 5.16649C6.57864 5.16649 5.60265 4.44086 4.55076 4.46218C3.19715 4.48288 1.93084 5.25994 1.23632 6.4666C-0.196981 8.92698 0.871988 12.5426 2.2452 14.5313C2.93212 15.5053 3.7348 16.5928 4.78543 16.5546C5.81328 16.5125 6.19722 15.9048 7.43761 15.9048C8.6666 15.9048 9.02714 16.5546 10.0986 16.5301C11.2018 16.5125 11.8963 15.5517 12.5592 14.569C13.353 13.4526 13.6718 12.3532 13.6844 12.2967C13.6585 12.288 11.5421 11.4871 11.5212 9.06432Z" fill="#2A59FF"/>
<path d="M9.4971 3.12002C10.0499 2.43453 10.4282 1.50194 10.3232 0.555542C9.52304 0.590663 8.52238 1.10431 7.94615 1.77475C7.43633 2.36554 6.98091 3.33389 7.09856 4.24453C7.99738 4.31101 8.92024 3.79485 9.4971 3.12002Z" fill="#2A59FF"/>
</svg>
