<svg width="15" height="15" viewBox="0 0 15 15" fill="none" xmlns="http://www.w3.org/2000/svg">
<path fill-rule="evenodd" clip-rule="evenodd" d="M6.71057 0.17062L6.35971 0.341298L4.50309 2.22266L2.64646 4.10402L5.0823 5.33325L7.51819 6.56242L9.96507 5.33579L12.412 4.10916V4.07468V4.0402L10.5554 2.17696L8.69877 0.313727L8.40638 0.171741L8.114 0.029814L7.58772 0.0148775L7.06143 0L6.71057 0.17062ZM0.794343 5.97783L0.31893 6.46489L0.18654 6.73056L0.0541492 6.99623L0.0270748 7.45401L0 7.91185L0.0716339 8.17014L0.143267 8.42843L0.301446 8.66972L0.459683 8.91101L3.39648 11.8931L6.33328 14.8751L6.44883 14.9376L6.56438 15V11.5587V8.11736L3.96201 6.80406L1.35963 5.49076H1.31467H1.2697L0.794343 5.97783ZM11.0232 6.80737L8.43562 8.1173V11.5587V15L8.56474 14.9302L8.69391 14.8605L11.6201 11.8806L14.5464 8.90067L14.7016 8.66458L14.8567 8.42843L14.9284 8.17014L15 7.91185L14.9729 7.45401L14.9459 6.99623L14.8135 6.73056L14.6811 6.46489L14.2057 5.97783L13.7303 5.49076L13.6705 5.49407L13.6108 5.49737L11.0232 6.80737Z" fill="#2A59FF"/>
</svg>
