<svg width="13" height="11" viewBox="0 0 13 11" fill="none" xmlns="http://www.w3.org/2000/svg">
<path d="M0.380293 8.79998H10.3339C10.4231 8.79998 10.5094 8.76991 10.5779 8.71511C10.6735 8.63804 12.8543 6.83196 12.9873 2.93333H2.29732C2.16485 6.47224 0.156414 8.13563 0.135542 8.15223C0.0131794 8.25177 -0.0318402 8.41435 0.0232091 8.55901C0.0778776 8.7033 0.220351 8.79998 0.380293 8.79998Z" fill="#2A59FF"/>
<path d="M12.6191 0.733332H10.7147V0.366666C10.7147 0.161333 10.5471 0 10.3338 0C10.1205 0 9.95296 0.161333 9.95296 0.366666V0.733332H8.02319V0.366666C8.02319 0.161333 7.8556 0 7.64231 0C7.42902 0 7.26144 0.161333 7.26144 0.366666V0.733332H5.35705V0.366666C5.35705 0.161333 5.18947 0 4.97618 0C4.76289 0 4.5953 0.161333 4.5953 0.366666V0.733332H2.69092C2.47763 0.733332 2.31004 0.894665 2.31004 1.1V2.2H13V1.1C13 0.894665 12.8324 0.733332 12.6191 0.733332Z" fill="#2A59FF"/>
<path d="M11.067 9.27731C10.8602 9.44309 10.6006 9.53334 10.3339 9.53334H2.31007V10.6333C2.31007 10.836 2.48042 11 2.69094 11H12.6191C12.8296 11 13 10.836 13 10.6333V6.52311C12.2657 8.25746 11.241 9.13712 11.067 9.27731Z" fill="#2A59FF"/>
</svg>
