<svg width="18" height="13" viewBox="0 0 18 13" fill="none" xmlns="http://www.w3.org/2000/svg">
<path d="M2.88889 4.33333C4.08551 4.33333 5.05556 3.36328 5.05556 2.16667C5.05556 0.97005 4.08551 0 2.88889 0C1.69227 0 0.722222 0.97005 0.722222 2.16667C0.722222 3.36328 1.69227 4.33333 2.88889 4.33333Z" fill="#2A59FF"/>
<path d="M5.265 5.82833C4.53808 6.28194 3.93856 6.91307 3.52287 7.66232C3.10719 8.41157 2.88901 9.25428 2.88889 10.1111H1.44444C1.06171 10.11 0.694969 9.95742 0.424331 9.68678C0.153692 9.41614 0.00114308 9.04941 0 8.66667V7.22222C0.00171462 6.64811 0.230538 6.09801 0.636496 5.69205C1.04245 5.28609 1.59256 5.05727 2.16667 5.05556H3.61111C3.92641 5.05627 4.23776 5.12579 4.52342 5.25926C4.80907 5.39273 5.06216 5.58694 5.265 5.82833Z" fill="#2A59FF"/>
<path d="M14.4444 4.33333C15.6411 4.33333 16.6111 3.36328 16.6111 2.16667C16.6111 0.97005 15.6411 0 14.4444 0C13.2478 0 12.2778 0.97005 12.2778 2.16667C12.2778 3.36328 13.2478 4.33333 14.4444 4.33333Z" fill="#2A59FF"/>
<path d="M17.3333 7.22222V8.66667C17.3322 9.04941 17.1796 9.41614 16.909 9.68678C16.6384 9.95742 16.2716 10.11 15.8889 10.1111H14.4444C14.4443 9.25428 14.2261 8.41157 13.8105 7.66232C13.3948 6.91307 12.7953 6.28194 12.0683 5.82833C12.2712 5.58694 12.5243 5.39273 12.8099 5.25926C13.0956 5.12579 13.4069 5.05627 13.7222 5.05556H15.1667C15.7408 5.05727 16.2909 5.28609 16.6968 5.69205C17.1028 6.09801 17.3316 6.64811 17.3333 7.22222Z" fill="#2A59FF"/>
<path d="M8.66667 5.77778C10.2622 5.77778 11.5556 4.48438 11.5556 2.88889C11.5556 1.2934 10.2622 0 8.66667 0C7.07118 0 5.77778 1.2934 5.77778 2.88889C5.77778 4.48438 7.07118 5.77778 8.66667 5.77778Z" fill="#2A59FF"/>
<path d="M13 10.1111V10.8333C12.9983 11.4074 12.7695 11.9575 12.3635 12.3635C11.9575 12.7695 11.4074 12.9983 10.8333 13H6.5C5.92589 12.9983 5.37579 12.7695 4.96983 12.3635C4.56387 11.9575 4.33505 11.4074 4.33333 10.8333V10.1111C4.33333 9.15339 4.71379 8.23489 5.391 7.55767C6.06822 6.88046 6.98672 6.5 7.94445 6.5H9.38889C10.3466 6.5 11.2651 6.88046 11.9423 7.55767C12.6195 8.23489 13 9.15339 13 10.1111Z" fill="#2A59FF"/>
</svg>
