<svg width="11" height="11" viewBox="0 0 11 11" fill="none" xmlns="http://www.w3.org/2000/svg">
<path d="M11 7.89916C11 8.08542 10.9276 8.26406 10.7986 8.39577C10.6697 8.52748 10.4948 8.60147 10.3125 8.60147H2.34727L3.52157 9.80106C3.6505 9.93277 3.72294 10.1114 3.72294 10.2977C3.72294 10.4839 3.65051 10.6626 3.52158 10.7943C3.39265 10.926 3.21778 11 3.03544 11C2.8531 11 2.67823 10.926 2.54929 10.7943L0.201373 8.39578C0.137532 8.33056 0.0868909 8.25314 0.0523404 8.16793C0.01779 8.08272 7.1612e-06 7.9914 7.1612e-06 7.89917C7.1612e-06 7.80694 0.01779 7.71561 0.0523404 7.63041C0.0868909 7.5452 0.137532 7.46777 0.201373 7.40256L2.54929 5.00399C2.61313 4.93878 2.68893 4.88705 2.77234 4.85175C2.85575 4.81646 2.94515 4.79829 3.03544 4.79829C3.12572 4.7983 3.21512 4.81646 3.29854 4.85176C3.38195 4.88705 3.45774 4.93879 3.52158 5.004C3.58542 5.06922 3.63606 5.14665 3.67061 5.23185C3.70516 5.31706 3.72294 5.40839 3.72294 5.50062C3.72294 5.59285 3.70515 5.68418 3.6706 5.76939C3.63605 5.8546 3.58541 5.93202 3.52157 5.99724L2.34727 7.1968H10.3125C10.4028 7.1968 10.4922 7.21497 10.5756 7.25027C10.659 7.28557 10.7348 7.3373 10.7986 7.40252C10.8625 7.46774 10.9131 7.54517 10.9477 7.63038C10.9822 7.7156 11 7.80693 11 7.89916ZM8.4507 0.205699C8.32177 0.0739903 8.1469 -2.05987e-06 7.96456 0C7.78222 2.05995e-06 7.60735 0.0739983 7.47842 0.20571C7.34949 0.337423 7.27705 0.516061 7.27706 0.702328C7.27706 0.888595 7.34949 1.06723 7.47843 1.19894L8.65272 2.39853H0.6875C0.505163 2.39853 0.330295 2.47253 0.201364 2.60423C0.0724328 2.73594 0 2.91458 0 3.10084C0 3.28711 0.0724328 3.46574 0.201364 3.59745C0.330295 3.72916 0.505163 3.80315 0.6875 3.80315H8.65272L7.47843 5.00272C7.34949 5.13443 7.27705 5.31307 7.27704 5.49934C7.27704 5.68561 7.34947 5.86426 7.4784 5.99597C7.60733 6.12769 7.7822 6.20169 7.96454 6.2017C8.14689 6.20171 8.32176 6.12772 8.4507 5.99601L10.7986 3.59746C10.8625 3.53225 10.9131 3.45482 10.9477 3.36961C10.9822 3.2844 11 3.19307 11 3.10084C11 3.00861 10.9822 2.91728 10.9477 2.83207C10.9131 2.74686 10.8625 2.66944 10.7986 2.60422L8.4507 0.205699Z" fill="white"/>
</svg>
