<svg width="16" height="16" viewBox="0 0 16 16" fill="none" xmlns="http://www.w3.org/2000/svg">
<circle cx="8" cy="8" r="8" fill="#2A59FF"/>
<path d="M7.7224 11.0385C7.53005 11.0353 7.34645 11.0128 7.17158 10.9712C6.99672 10.9263 6.83352 10.8574 6.68197 10.7644C6.53333 10.6683 6.40073 10.5465 6.28415 10.399C6.16758 10.2484 6.07286 10.0673 6 9.85577C6.08743 9.78526 6.17195 9.72115 6.25355 9.66346C6.33807 9.60256 6.42259 9.53846 6.5071 9.47115C6.55373 9.55449 6.61202 9.63942 6.68197 9.72596C6.75191 9.8093 6.83643 9.88782 6.93552 9.96154C7.03461 10.0321 7.14827 10.0929 7.2765 10.1442C7.40765 10.1923 7.55628 10.2212 7.7224 10.2308V8.20192C7.41639 8.09936 7.15993 7.99359 6.95301 7.88462C6.74608 7.77244 6.57851 7.64744 6.45027 7.50962C6.32495 7.36859 6.23461 7.20994 6.17923 7.03365C6.12678 6.85417 6.10055 6.64583 6.10055 6.40865C6.10055 6.15865 6.14426 5.9391 6.23169 5.75C6.32204 5.55769 6.44153 5.39583 6.59016 5.26442C6.74171 5.12981 6.91512 5.02404 7.11038 4.94712C7.30856 4.87019 7.51694 4.81731 7.73552 4.78846V4H8.2776V4.77404C8.36211 4.78045 8.45537 4.79006 8.55738 4.80288C8.65938 4.81571 8.7643 4.83814 8.87213 4.87019C8.98288 4.89904 9.09071 4.9375 9.19563 4.98558C9.30346 5.03365 9.40401 5.09615 9.49727 5.17308C9.59053 5.24679 9.67213 5.33814 9.74208 5.44712C9.81202 5.55288 9.86594 5.67788 9.90383 5.82212L9.26995 6.13942C9.22623 6.04327 9.17086 5.96154 9.10383 5.89423C9.03679 5.82692 8.95956 5.77083 8.87213 5.72596C8.78761 5.68109 8.69435 5.64583 8.59235 5.62019C8.49326 5.59455 8.38689 5.57532 8.27322 5.5625V7.44231C8.48306 7.51282 8.68998 7.59615 8.89399 7.69231C9.10091 7.78846 9.28597 7.90705 9.44918 8.04808C9.61239 8.1891 9.74499 8.35897 9.84699 8.55769C9.949 8.75321 10 8.98718 10 9.25962C10 9.53205 9.95337 9.77083 9.86011 9.97596C9.76685 10.1779 9.64007 10.351 9.47978 10.4952C9.3224 10.6394 9.1388 10.7548 8.92896 10.8413C8.71913 10.9279 8.49618 10.9872 8.26011 11.0192V12H7.7224V11.0385ZM9.1388 9.32212C9.1388 9.19712 9.11548 9.08814 9.06885 8.99519C9.02222 8.89904 8.95956 8.8141 8.88087 8.74038C8.80219 8.66667 8.71038 8.60256 8.60546 8.54808C8.50055 8.49038 8.3898 8.4375 8.27322 8.38942V10.2067C8.42477 10.1875 8.55446 10.149 8.6623 10.0913C8.77304 10.0337 8.86339 9.96474 8.93333 9.88462C9.00328 9.80449 9.05428 9.71635 9.08634 9.62019C9.12131 9.52404 9.1388 9.42468 9.1388 9.32212ZM6.93989 6.375C6.93989 6.5 6.95883 6.60737 6.99672 6.69712C7.03752 6.78686 7.0929 6.86538 7.16284 6.93269C7.2357 7 7.32022 7.05929 7.41639 7.11058C7.51257 7.16186 7.61749 7.20994 7.73115 7.25481V5.57692C7.56211 5.61218 7.42514 5.66186 7.32022 5.72596C7.21821 5.78686 7.13807 5.85577 7.07978 5.93269C7.02441 6.00641 6.98652 6.08333 6.96612 6.16346C6.94863 6.24038 6.93989 6.3109 6.93989 6.375Z" fill="white"/>
</svg>
