<svg width="11" height="11" viewBox="0 0 11 11" fill="none" xmlns="http://www.w3.org/2000/svg">
<path d="M4.27778 0H0.611111C0.449032 0 0.293596 0.0643867 0.178988 0.178988C0.0643867 0.293596 0 0.449032 0 0.611111V4.27778C0 4.43984 0.0643867 4.59531 0.178988 4.70989C0.293596 4.82448 0.449032 4.88889 0.611111 4.88889H4.27778C4.43984 4.88889 4.59531 4.82448 4.70989 4.70989C4.82448 4.59531 4.88889 4.43984 4.88889 4.27778V0.611111C4.88889 0.449032 4.82448 0.293596 4.70989 0.178988C4.59531 0.0643867 4.43984 0 4.27778 0ZM10.3889 0H6.72222C6.56016 0 6.40469 0.0643867 6.29011 0.178988C6.17552 0.293596 6.11111 0.449032 6.11111 0.611111V4.27778C6.11111 4.43984 6.17552 4.59531 6.29011 4.70989C6.40469 4.82448 6.56016 4.88889 6.72222 4.88889H10.3889C10.551 4.88889 10.7064 4.82448 10.821 4.70989C10.9356 4.59531 11 4.43984 11 4.27778V0.611111C11 0.449032 10.9356 0.293596 10.821 0.178988C10.7064 0.0643867 10.551 0 10.3889 0ZM4.27778 6.11111H0.611111C0.449032 6.11111 0.293596 6.17552 0.178988 6.29011C0.0643867 6.40469 0 6.56016 0 6.72222V10.3889C0 10.551 0.0643867 10.7064 0.178988 10.821C0.293596 10.9356 0.449032 11 0.611111 11H4.27778C4.43984 11 4.59531 10.9356 4.70989 10.821C4.82448 10.7064 4.88889 10.551 4.88889 10.3889V6.72222C4.88889 6.56016 4.82448 6.40469 4.70989 6.29011C4.59531 6.17552 4.43984 6.11111 4.27778 6.11111ZM9.16667 6.72222H7.94445V7.94445H6.72222V9.16667H7.94445V10.3889H9.16667V9.16667H10.3889V7.94445H9.16667V6.72222Z" fill="#2A59FF"/>
</svg>
