<svg width="16" height="13" viewBox="0 0 16 13" fill="none" xmlns="http://www.w3.org/2000/svg">
<path d="M15.7782 2.34786V8.31572C15.7782 8.57201 15.5704 8.77978 15.3141 8.77978H14.5963V4.073C14.5963 3.51661 14.1454 3.06567 13.589 3.06567H7.48439C7.45418 3.06567 7.42661 3.04858 7.41325 3.02137L6.78343 1.74392C6.61225 1.39711 6.26616 1.18211 5.87975 1.18211H4.21986V0.464058C4.21986 0.207773 4.42763 0 4.68391 0H7.98962C8.02032 0 8.04752 0.0169733 8.06076 0.0442992L8.6907 1.32199C8.86176 1.66844 9.20797 1.8838 9.59438 1.8838H15.3141C15.5704 1.8838 15.7782 2.09157 15.7782 2.34786Z" fill="#2A59FF"/>
<path d="M13.6682 4.073V10.4257C13.6682 10.682 13.4604 10.8898 13.2042 10.8898H12.4865V6.18286C12.4865 5.6266 12.0354 5.17554 11.4791 5.17554H5.37452C5.34419 5.17554 5.31662 5.15857 5.30338 5.13136L4.67344 3.85391C4.49962 3.5018 4.15028 3.2921 3.76976 3.2921H2.10999V2.57429C2.10999 2.318 2.31776 2.11023 2.57405 2.11023H5.87975C5.91033 2.11023 5.93753 2.12696 5.95089 2.15417L6.58071 3.43186C6.75189 3.77843 7.09798 3.99379 7.48439 3.99379H13.589C13.6326 3.99379 13.6682 4.02942 13.6682 4.073Z" fill="#2A59FF"/>
<path d="M11.4791 6.10365H5.37452C4.98811 6.10365 4.6419 5.88842 4.47084 5.54185C4.15341 4.89771 4.29317 5.1818 3.84091 4.2644C3.82766 4.23695 3.80034 4.22022 3.76976 4.22022H0.464058C0.207773 4.22022 0 4.42799 0 4.68428V12.5359C0 12.7922 0.207773 13 0.464058 13H11.0943C11.3506 13 11.5583 12.7922 11.5583 12.5359V6.18286C11.5583 6.13929 11.5227 6.10365 11.4791 6.10365ZM8.75534 11.4959C8.75534 11.7532 8.54565 11.9599 8.29129 11.9599C8.03729 11.9599 7.82723 11.7535 7.82723 11.4959C7.82723 11.3266 7.82723 11.3627 7.82723 11.1938C7.82723 10.9389 8.03416 10.7298 8.29129 10.7298C8.54805 10.7298 8.75534 10.9389 8.75534 11.1938V11.4959ZM10.2769 11.4959C10.2769 11.7532 10.0671 11.9599 9.81287 11.9599C9.5573 11.9599 9.34869 11.7526 9.34869 11.4959C9.34869 11.3266 9.34869 11.3627 9.34869 11.1938C9.34869 10.9386 9.55574 10.7298 9.81287 10.7298C10.0696 10.7298 10.2769 10.9389 10.2769 11.1938V11.4959Z" fill="#2A59FF"/>
</svg>
