<svg width="14" height="11" viewBox="0 0 14 11" fill="none" xmlns="http://www.w3.org/2000/svg">
<path d="M11.8516 0.884585C10.9593 0.475167 10.0025 0.17351 9.00198 0.000724966C8.98377 -0.00261098 8.96556 0.00572887 8.95618 0.0223812C8.8331 0.241268 8.69679 0.526792 8.60134 0.75123C7.52528 0.59012 6.45471 0.59012 5.40072 0.75123C5.30523 0.521815 5.16398 0.241268 5.04035 0.0223812C5.03098 0.00627575 5.01276 -0.0020641 4.99455 0.000724966C3.99465 0.172936 3.03778 0.474593 2.14489 0.884585C2.13716 0.887921 2.13054 0.893472 2.12614 0.900691C0.311165 3.61224 -0.186054 6.25715 0.0578527 8.86924C0.0589464 8.88201 0.0661379 8.89423 0.0760636 8.902C1.27353 9.7814 2.43351 10.3153 3.57191 10.6691C3.59012 10.6747 3.60943 10.6681 3.62102 10.653C3.8903 10.2853 4.13035 9.89753 4.33617 9.48975C4.34831 9.46588 4.33672 9.43756 4.31189 9.4281C3.93113 9.28367 3.56858 9.10754 3.21981 8.90758C3.19222 8.89147 3.19 8.85202 3.2154 8.83312C3.28879 8.77813 3.36221 8.7209 3.43229 8.66313C3.44498 8.65257 3.46265 8.65036 3.47755 8.657C5.76874 9.70309 8.24923 9.70309 10.5134 8.657C10.5283 8.64978 10.5459 8.65202 10.5592 8.66255C10.6293 8.72033 10.7027 8.77811 10.7766 8.83309C10.802 8.85199 10.8003 8.89145 10.7728 8.90755C10.424 9.11143 10.0614 9.28364 9.68013 9.42752C9.6553 9.43695 9.64425 9.46586 9.65642 9.48973C9.86667 9.89693 10.1067 10.2847 10.371 10.6525C10.3821 10.668 10.4019 10.6747 10.4201 10.6691C11.5641 10.3153 12.724 9.78138 13.9215 8.90197C13.932 8.89421 13.9386 8.88253 13.9397 8.86976C14.2316 5.84989 13.4508 3.22666 11.8698 0.90121C11.866 0.893472 11.8593 0.887921 11.8516 0.884585ZM4.67838 7.27874C3.98858 7.27874 3.42018 6.64546 3.42018 5.86769C3.42018 5.08992 3.97753 4.45664 4.67838 4.45664C5.38469 4.45664 5.94759 5.0955 5.93655 5.86769C5.93655 6.64546 5.37917 7.27874 4.67838 7.27874ZM9.33029 7.27874C8.64052 7.27874 8.07212 6.64546 8.07212 5.86769C8.07212 5.08992 8.62947 4.45664 9.33029 4.45664C10.0366 4.45664 10.5995 5.0955 10.5885 5.86769C10.5885 6.64546 10.0367 7.27874 9.33029 7.27874Z" fill="#2A59FF"/>
</svg>
