<svg width="18" height="18" viewBox="0 0 18 18" fill="none" xmlns="http://www.w3.org/2000/svg">
<path d="M18 14.1429V16.7143C18 17.4234 17.4234 18 16.7143 18H1.28571C0.576643 18 0 17.4234 0 16.7143V14.1429C0 13.788 0.288 13.5 0.642857 13.5C0.997714 13.5 1.28571 13.788 1.28571 14.1429V16.7143H16.7143V14.1429C16.7143 13.788 17.0023 13.5 17.3571 13.5C17.712 13.5 18 13.788 18 14.1429Z" fill="#4A596D"/>
<path d="M4.0455 9.4545C3.79414 9.20314 3.79414 8.79686 4.0455 8.5455C4.29686 8.29414 4.70314 8.29414 4.9545 8.5455L8.35714 11.9481V0.642857C8.35714 0.288 8.64514 0 9 0C9.35486 0 9.64286 0.288 9.64286 0.642857V11.9481L13.0455 8.5455C13.2969 8.29414 13.7031 8.29414 13.9545 8.5455C14.2059 8.79686 14.2059 9.20314 13.9545 9.4545L9.4545 13.9545C9.19993 14.2097 8.79171 14.2014 8.54486 13.9545L4.0455 9.4545Z" fill="#4A596D"/>
</svg>
