<svg width="20" height="14" viewBox="0 0 20 14" fill="none" xmlns="http://www.w3.org/2000/svg">
<path d="M19.8238 1.00014L13.7582 6.99988L19.8238 12.9996C19.9335 12.7715 20 12.5192 20 12.2499V1.74988C20 1.48049 19.9335 1.2283 19.8238 1.00014Z" fill="#2A59FF"/>
<path d="M18.2422 -0.00012207H1.75781C1.48723 -0.00012207 1.23391 0.0661058 1.00473 0.175267L8.75719 7.85438C9.44266 8.53681 10.5573 8.53681 11.2428 7.85438L18.9953 0.175267C18.7661 0.0661058 18.5128 -0.00012207 18.2422 -0.00012207Z" fill="#2A59FF"/>
<path d="M0.176172 1.00014C0.0665234 1.2283 0 1.48049 0 1.74988V12.2499C0 12.5193 0.0665234 12.7715 0.176172 12.9996L6.24176 6.99988L0.176172 1.00014Z" fill="#2A59FF"/>
<path d="M12.9297 7.82475L12.0714 8.67926C10.9292 9.81633 9.07074 9.81633 7.92859 8.67926L7.07031 7.82475L1.00473 13.8245C1.23391 13.9337 1.48723 13.9999 1.75781 13.9999H18.2422C18.5128 13.9999 18.7661 13.9337 18.9953 13.8245L12.9297 7.82475Z" fill="#2A59FF"/>
</svg>
