<svg width="11" height="13" viewBox="0 0 11 13" fill="none" xmlns="http://www.w3.org/2000/svg">
<path d="M5.78834 5.16749V5.8211C5.78834 6.02869 5.82845 6.20285 5.90763 6.33853C6.01684 6.52579 6.19611 6.6331 6.39966 6.6331C6.59908 6.6331 6.79726 6.53273 6.98862 6.33496L9.07748 4.17616C9.53611 3.70217 9.53611 2.93093 9.07748 2.45694L6.98862 0.298142C6.79726 0.100273 6.59908 0 6.39966 0C6.09534 0 5.78834 0.251129 5.78834 0.812004V1.40561C2.82271 1.58662 0.367636 3.93872 0.00276241 7.01823C-0.0176789 7.19021 0.0769463 7.35485 0.232896 7.41863C0.277041 7.43668 0.32301 7.4454 0.368404 7.4454C0.483374 7.4454 0.59489 7.38976 0.665907 7.28949C1.6446 5.90749 3.21599 5.08239 4.86934 5.08239C5.17567 5.08239 5.48373 5.11095 5.78834 5.16749Z" fill="#2A59FF"/>
<path d="M10.767 5.58138C10.6111 5.5175 10.4331 5.57066 10.334 5.71061C9.3554 7.09251 7.78401 7.91761 6.13066 7.91761C5.82433 7.91761 5.51627 7.88905 5.21166 7.83251V7.1789C5.21166 6.61803 4.90456 6.3669 4.60034 6.3669C4.40092 6.3669 4.20274 6.46727 4.01128 6.66514L1.92243 8.82384C1.46389 9.29783 1.46389 10.0691 1.92252 10.5432L4.01128 12.7019C4.20274 12.8997 4.40092 13 4.60034 13C4.90456 13 5.21166 12.7489 5.21166 12.188V11.5944C8.17739 11.4134 10.6324 9.06128 10.9972 5.98187C11.0177 5.80979 10.9231 5.64515 10.767 5.58138Z" fill="#2A59FF"/>
</svg>
