<svg width="11" height="11" viewBox="0 0 11 11" fill="none" xmlns="http://www.w3.org/2000/svg">
<path d="M10.476 4.70464L10.476 4.7046C10.5868 4.59188 10.6296 4.42286 10.5789 4.25975C10.5285 4.09847 10.4047 3.99745 10.2639 3.97601C10.2638 3.976 10.2638 3.976 10.2637 3.97599L7.60046 3.57207L7.60033 3.57204C7.35026 3.53403 7.14204 3.37171 7.0367 3.14867C7.03669 3.14865 7.03668 3.14863 7.03667 3.14861C7.03664 3.14854 7.03661 3.14848 7.03657 3.14841L5.84596 0.629843L5.84592 0.629748C5.77543 0.480549 5.64118 0.4 5.50011 0.4C5.35933 0.4 5.22503 0.480489 5.15452 0.629748L5.15447 0.629856L3.96365 3.14864L3.96352 3.14892L3.60189 2.97795C3.55123 3.08532 3.453 3.15957 3.33956 3.17682L10.476 4.70464ZM10.476 4.70464L8.54892 6.66549L8.54878 6.66564C8.37564 6.842 8.29938 7.09107 8.33906 7.33258L8.73377 7.26773M10.476 4.70464L8.33907 7.3326M2.26623 7.26773L1.81161 10.0362C1.7713 10.2799 1.83253 10.517 1.98363 10.7039C2.21843 10.9952 2.62834 11.0839 2.95609 10.9041M2.26623 7.26773L2.66091 7.33273L2.20632 10.1011L2.20625 10.1015C2.18403 10.2358 2.21745 10.3569 2.2947 10.4524L2.29505 10.4529C2.41295 10.5991 2.61233 10.6364 2.76364 10.5535L2.95609 10.9041M2.26623 7.26773L2.66094 7.33255M2.26623 7.26773C2.28561 7.15002 2.24795 7.02955 2.16579 6.94587L2.66094 7.33255M2.95609 10.9041L2.76371 10.5534M2.95609 10.9041L5.338 9.59689C5.43756 9.54241 5.56288 9.54287 5.66222 9.59689L8.04435 10.9041C8.16021 10.9678 8.28378 11 8.41131 11C8.64413 11 8.86483 10.8919 9.01659 10.7039C9.16791 10.517 9.22892 10.2795 9.18861 10.0362L8.73377 7.26773M2.76371 10.5534L8.83421 6.94587C8.75205 7.02955 8.71439 7.14979 8.73377 7.26773M2.76371 10.5534L5.14555 9.24623L5.14596 9.24601C5.36609 9.12554 5.63575 9.12717 5.85334 9.2455L5.85466 9.24622L8.23679 10.5535L8.23703 10.5536C8.29583 10.5859 8.35337 10.6 8.41131 10.6C8.51784 10.6 8.62605 10.5509 8.7053 10.4527L8.7057 10.4522C8.78281 10.3569 8.8162 10.2357 8.79399 10.1016L8.7939 10.1011L8.33907 7.3326M2.76371 10.5534L8.33907 7.3326M8.73377 7.26773L8.33907 7.3326M2.66094 7.33255C2.70061 7.09127 2.62435 6.84199 2.45122 6.66564L2.45106 6.66548L0.523991 4.70485L0.523966 4.70483C0.413162 4.59211 0.370444 4.42309 0.421137 4.25998L2.66094 7.33255Z" stroke="#CFD0D2" stroke-width="0.8"/>
</svg>
