<svg width="10" height="11" viewBox="0 0 10 11" fill="none" xmlns="http://www.w3.org/2000/svg">
<path d="M3.3 7.15C3.3 6.435 2.86 5.83 2.2 5.61V0.55C2.2 0.22 1.98 0 1.65 0C1.32 0 1.1 0.22 1.1 0.55V5.61C0.44 5.83 0 6.435 0 7.15C0 7.865 0.44 8.47 1.1 8.69V10.45C1.1 10.78 1.32 11 1.65 11C1.98 11 2.2 10.78 2.2 10.45V8.69C2.86 8.47 3.3 7.865 3.3 7.15Z" fill="#2A59FF"/>
<path d="M6.6 3.85C6.6 3.135 6.16 2.53 5.5 2.31V0.55C5.5 0.22 5.28 0 4.95 0C4.62 0 4.4 0.22 4.4 0.55V2.31C3.74 2.53 3.3 3.135 3.3 3.85C3.3 4.565 3.74 5.17 4.4 5.39V10.45C4.4 10.78 4.62 11 4.95 11C5.28 11 5.5 10.78 5.5 10.45V5.39C6.16 5.17 6.6 4.565 6.6 3.85Z" fill="#2A59FF"/>
<path d="M9.9 7.15C9.9 6.435 9.46 5.83 8.8 5.61V0.55C8.8 0.22 8.58 0 8.25 0C7.92 0 7.7 0.22 7.7 0.55V5.61C7.04 5.83 6.6 6.435 6.6 7.15C6.6 7.865 7.04 8.47 7.7 8.69V10.45C7.7 10.78 7.92 11 8.25 11C8.58 11 8.8 10.78 8.8 10.45V8.69C9.46 8.47 9.9 7.865 9.9 7.15Z" fill="#2A59FF"/>
</svg>
