<svg width="16" height="18" viewBox="0 0 16 18" fill="none" xmlns="http://www.w3.org/2000/svg">
<path fill-rule="evenodd" clip-rule="evenodd" d="M0.317586 1.04299C0.116274 1.24204 0 1.54618 0 1.94427V16.0637C0 16.4618 0.116274 16.7659 0.324527 16.957L0.378326 17L9 9.08917V8.91242L0.371384 1L0.317586 1.04299Z" fill="url(#paint0_linear_47_48017)"/>
<path fill-rule="evenodd" clip-rule="evenodd" d="M11.8473 12L9 9.10146V8.89854L11.8473 6L11.9091 6.03848L15.277 7.98717C16.241 8.53994 16.241 9.45306 15.277 10.0128L11.9091 11.9615L11.8473 12Z" fill="url(#paint1_linear_47_48017)"/>
<path fill-rule="evenodd" clip-rule="evenodd" d="M12 11.9539L9.21712 9L1 17.7222C1.30081 18.0642 1.80544 18.1026 2.36925 17.7693L12 11.9539Z" fill="url(#paint2_linear_47_48017)"/>
<path fill-rule="evenodd" clip-rule="evenodd" d="M12 6.04434L2.36925 0.234279C1.80544 -0.1079 1.29916 -0.0607625 1 0.281417L9.21712 9L12 6.04434Z" fill="url(#paint3_linear_47_48017)"/>
<path opacity="0.2" fill-rule="evenodd" clip-rule="evenodd" d="M11.9343 12L2.36925 17.6682C1.83503 17.9888 1.35834 17.9665 1.05096 17.6751L1 17.7282L1.05096 17.7745C1.35834 18.0642 1.83503 18.0883 2.36925 17.7676L12 12.0617L11.9343 12Z" fill="black"/>
<path opacity="0.12" fill-rule="evenodd" clip-rule="evenodd" d="M15.3143 9.92321L12 11.9362L12.0596 12L15.306 10.026C15.7714 9.74247 16 9.37035 16 9C15.9718 9.34022 15.735 9.66273 15.3143 9.92321Z" fill="black"/>
<path opacity="0.25" fill-rule="evenodd" clip-rule="evenodd" d="M1.75665 0.338472L15.2756 8.09074C15.7147 8.34031 15.962 8.66666 16 9C16 8.63525 15.7614 8.26875 15.2756 7.98952L1.75665 0.237248C0.786687 -0.322967 0 0.144752 0 1.26344V1.36466C0 0.24423 0.786687 -0.214763 1.75665 0.338472Z" fill="#1E222A"/>
<path opacity="0.2" fill-rule="evenodd" clip-rule="evenodd" d="M11.9343 12L2.36925 17.6682C1.83503 17.9888 1.35834 17.9665 1.05096 17.6751L1 17.7282L1.05096 17.7745C1.35834 18.0642 1.83503 18.0883 2.36925 17.7676L12 12.0617L11.9343 12Z" fill="black"/>
<defs>
<linearGradient id="paint0_linear_47_48017" x1="8.22665" y1="1.79193" x2="-5.41398" y2="5.75309" gradientUnits="userSpaceOnUse">
<stop stop-color="#00A0FF"/>
<stop offset="0.00657" stop-color="#00A1FF"/>
<stop offset="0.2601" stop-color="#00BEFF"/>
<stop offset="0.5122" stop-color="#00D2FF"/>
<stop offset="0.7604" stop-color="#00DFFF"/>
<stop offset="1" stop-color="#00E3FF"/>
</linearGradient>
<linearGradient id="paint1_linear_47_48017" x1="16.5341" y1="9.00003" x2="-0.138619" y2="9.00003" gradientUnits="userSpaceOnUse">
<stop stop-color="#FFE000"/>
<stop offset="0.4087" stop-color="#FFBD00"/>
<stop offset="0.7754" stop-color="#FFA500"/>
<stop offset="1" stop-color="#FF9C00"/>
</linearGradient>
<linearGradient id="paint2_linear_47_48017" x1="10.4868" y1="10.6074" x2="-0.966421" y2="28.7678" gradientUnits="userSpaceOnUse">
<stop stop-color="#FF3A44"/>
<stop offset="1" stop-color="#C31162"/>
</linearGradient>
<linearGradient id="paint3_linear_47_48017" x1="-1.06916" y1="-4.87624" x2="4.0451" y2="3.23692" gradientUnits="userSpaceOnUse">
<stop stop-color="#32A071"/>
<stop offset="0.0685" stop-color="#2DA771"/>
<stop offset="0.4762" stop-color="#15CF74"/>
<stop offset="0.8009" stop-color="#06E775"/>
<stop offset="1" stop-color="#00F076"/>
</linearGradient>
</defs>
</svg>
