<svg width="14" height="14" viewBox="0 0 14 14" fill="none" xmlns="http://www.w3.org/2000/svg">
<path d="M11.0696 2.59052C10.8822 2.59052 10.7297 2.74302 10.7297 2.9304C10.7297 3.11779 10.8822 3.27029 11.0696 3.27029C11.257 3.27029 11.4095 3.11782 11.4095 2.9304C11.4095 2.74299 11.257 2.59052 11.0696 2.59052Z" fill="#2A59FF"/>
<path d="M7 3.98683C5.33854 3.98683 3.98683 5.33854 3.98683 7C3.98683 8.66146 5.33854 10.0132 7 10.0132C8.66149 10.0132 10.0132 8.66149 10.0132 7.00003C10.0132 5.33857 8.66149 3.98683 7 3.98683Z" fill="#2A59FF"/>
<path d="M10.1621 0H3.83789C1.72167 0 0 1.72167 0 3.83791V10.1621C0 12.2784 1.72167 14 3.83789 14H10.1621C12.2784 14 14 12.2783 14 10.1621V3.83791C14 1.72167 12.2784 0 10.1621 0ZM7 10.8399C4.88264 10.8399 3.16009 9.11736 3.16009 7C3.16009 4.88264 4.88266 3.16012 7 3.16012C9.11734 3.16012 10.8399 4.88266 10.8399 7C10.8399 9.11734 9.11734 10.8399 7 10.8399ZM11.0696 4.09708C10.4263 4.09708 9.90295 3.57372 9.90295 2.93043C9.90295 2.28714 10.4263 1.76375 11.0696 1.76375C11.7129 1.76375 12.2362 2.28711 12.2362 2.9304C12.2362 3.57369 11.7129 4.09708 11.0696 4.09708Z" fill="#2A59FF"/>
</svg>
