<svg width="16" height="16" viewBox="0 0 16 16" fill="none" xmlns="http://www.w3.org/2000/svg">
<path d="M10.8726 4.71817C10.3099 2.03801 9.10979 0.342404 7.99987 0.342404C6.88994 0.342404 5.68988 2.03801 5.12718 4.71817H10.8726Z" fill="#2A59FF"/>
<path d="M4.7997 8C4.79956 8.73174 4.84714 9.46266 4.9421 10.1879H11.0576C11.1526 9.46266 11.2002 8.73174 11.2 8C11.2002 7.26827 11.1526 6.53734 11.0576 5.81212H4.9421C4.84714 6.53734 4.79956 7.26827 4.7997 8Z" fill="#2A59FF"/>
<path d="M5.12718 11.2818C5.68988 13.962 6.88994 15.6576 7.99987 15.6576C9.10979 15.6576 10.3099 13.962 10.8726 11.2818H5.12718Z" fill="#2A59FF"/>
<path d="M11.9649 4.71817H15.3251C14.8202 3.53987 14.0531 2.4993 13.0852 1.67993C12.1174 0.860565 10.9758 0.285205 9.75196 0C10.7637 0.912895 11.5574 2.60085 11.9649 4.71817Z" fill="#2A59FF"/>
<path d="M15.7085 5.81212H12.135C12.223 6.53792 12.267 7.26861 12.2668 8C12.2668 8.7314 12.2227 9.4621 12.1345 10.1879H15.708C16.097 8.75657 16.0975 7.24343 15.7085 5.81212Z" fill="#2A59FF"/>
<path d="M9.75196 16C10.976 15.7149 12.1178 15.1397 13.0858 14.3203C14.0539 13.5009 14.8211 12.4603 15.3261 11.2818H11.9659C11.5574 13.3992 10.7637 15.0871 9.75196 16Z" fill="#2A59FF"/>
<path d="M4.03486 11.2818H0.674677C1.17966 12.4603 1.94694 13.5009 2.91497 14.3203C3.883 15.1397 5.02483 15.7149 6.24884 16C5.23599 15.0871 4.44234 13.3992 4.03486 11.2818Z" fill="#2A59FF"/>
<path d="M6.24777 0C5.02376 0.28505 3.88194 0.86034 2.91391 1.67972C1.94588 2.49909 1.17859 3.53974 0.67361 4.71817H4.03379C4.44234 2.60085 5.23599 0.912895 6.24777 0Z" fill="#2A59FF"/>
<path d="M3.73297 8C3.7329 7.2686 3.77708 6.5379 3.86525 5.81212H0.291723C-0.097241 7.24343 -0.097241 8.75657 0.291723 10.1879H3.86525C3.77708 9.4621 3.7329 8.7314 3.73297 8Z" fill="#2A59FF"/>
</svg>
