<svg width="13" height="13" viewBox="0 0 13 13" fill="none" xmlns="http://www.w3.org/2000/svg">
<path fill-rule="evenodd" clip-rule="evenodd" d="M5.45915 0.0965359L4.91682 0.180501L4.44747 0.334581L3.97805 0.488595L3.57338 0.69007L3.16871 0.891544L2.76404 1.16293L2.35937 1.43432L1.84584 1.94362L1.33238 2.45292L1.00783 2.95348L0.683288 3.45405L0.468677 3.96187L0.254066 4.46969L0.127067 4.94027L0 5.41085V6.52007V7.62929L0.127067 8.09986L0.254066 8.57044L0.468677 9.07827L0.683288 9.58609L0.991715 10.0612L1.30007 10.5365L1.74609 11.0076L2.19204 11.4788L2.68041 11.8143L3.16871 12.1498L3.57338 12.3507L3.97805 12.5515L4.41645 12.6911L4.85484 12.8307L5.25951 12.9153L5.66419 13L6.50725 12.9975L7.35032 12.9951L7.94431 12.8503L8.5383 12.7055L9.04299 12.4961L9.54775 12.2867L10.0677 11.9503L10.5877 11.614L11.161 11.0287L11.7343 10.4435L12.0561 9.90635L12.3779 9.36922L12.6052 8.73454L12.8325 8.09986L12.9162 7.58041L13 7.06089L12.9632 6.20229L12.9263 5.34362L12.8094 4.90665L12.6924 4.46969L12.4781 3.96187L12.2638 3.45405L11.9392 2.95348L11.6147 2.45292L11.1012 1.94362L10.5877 1.43432L10.183 1.163L9.77834 0.891746L9.40739 0.704658L9.03645 0.517636L8.56433 0.356228L8.09221 0.194887L7.45148 0.0974098L6.81075 0L6.40608 0.006252L6.00141 0.012504L5.45915 0.0965359ZM6.93654 2.69312L7.11426 2.83241L7.11588 3.21412L7.11743 3.59576L7.39254 3.79743L7.66765 3.99911L8.0738 4.4307L8.47996 4.86229L8.63953 5.20379L8.79904 5.5453L8.79971 5.86139L8.80039 6.17755L8.52487 6.70171L8.24936 7.22593L8.07387 7.4108L7.89838 7.59567H7.54004H7.1817V7.96541V8.33515H7.51454H7.84739L8.03724 8.2639L8.2271 8.1927L8.46417 7.9632L8.70131 7.73362L9.62106 7.46297L10.5408 7.19232H10.6485H10.7563V7.42627V7.66014L10.4697 7.8038L10.183 7.94746L10.0587 8.0565L9.93448 8.16561L9.58086 8.70416L9.22725 9.2427L8.99935 9.4628L8.77145 9.68289L8.53297 9.75361L8.29455 9.82427L6.27119 9.80242L4.24784 9.7805L3.80944 9.5399L3.37105 9.2993L3.11887 8.96849L2.86662 8.63767L2.76478 8.34L2.66287 8.04232V7.74996V7.45766L3.65769 7.47621L4.65251 7.49484L4.6749 7.69046L4.69729 7.88609L4.80035 8.04292L4.90347 8.19976L5.1489 8.27203L5.3944 8.3443L5.8328 8.32292L6.27119 8.30154V7.96541V7.62929L5.78815 7.60966L5.30504 7.59003L5.73143 6.88241L6.15782 6.1748L6.20402 5.77843L6.25015 5.38207L6.20449 5.11277L6.15883 4.84339L6.04012 4.69012L5.92142 4.53691L5.60665 3.87098L5.29182 3.20504L5.32123 3.17566L5.3507 3.14635L5.72016 3.25338L6.08963 3.36047H6.18837H6.28718L6.32549 3.07543L6.36386 2.7904L6.51049 2.67208L6.65711 2.55376H6.70797H6.75882L6.93654 2.69312ZM5.25162 4.57449L5.44607 5.14194L5.45396 5.5453L5.46185 5.94865L5.26714 6.36881L5.07249 6.78897H4.1004H3.12831L3.1822 6.69626L3.23616 6.60363L4.07922 5.28648L4.92229 3.96933L4.98973 3.98815L5.05718 4.00698L5.25162 4.57449Z" fill="#2A59FF"/>
</svg>
