<svg width="22" height="25" viewBox="0 0 22 25" fill="none" xmlns="http://www.w3.org/2000/svg">
<path d="M6.24601 0.878409C6.24601 0.878409 5.87705 0 5.31355 0C4.759 0 4.47054 0.260227 4.27823 0.439773C4.08593 0.619318 0.868162 3.30682 0.868162 3.30682C0.868162 3.30682 -0.0676517 4.1375 0.00390392 5.7C0.064279 7.2625 0.365036 9.48636 1.92584 12.5841C3.47547 15.675 7.35401 20.3977 9.80479 22.058C9.80479 22.058 12.0756 23.8284 14.1887 24.5477C14.8025 24.7443 16.0301 25 16.3163 25C16.607 25 17.1202 25 17.7094 24.5625C18.3087 24.1205 21.6707 21.3727 21.6707 21.3727C21.6707 21.3727 22.4936 20.617 21.5377 19.7386C20.5773 18.8602 17.6614 16.9068 17.0375 16.3932C16.4125 15.8716 15.5225 16.1011 15.1379 16.4545C14.7544 16.8102 14.0691 17.3955 13.9852 17.4693C13.86 17.567 13.5167 17.8841 13.1321 17.7261C12.6424 17.5295 10.6344 16.4216 8.77282 13.833C6.92244 11.2466 6.71895 10.4011 6.44279 9.4875C6.39595 9.35244 6.39531 9.20527 6.44096 9.06979C6.48661 8.9343 6.57589 8.81843 6.69435 8.74091C6.97163 8.54545 7.99242 7.68068 7.99242 7.68068C7.99242 7.68068 8.65319 7.01818 8.37703 6.2375C8.10087 5.45682 6.24601 0.878409 6.24601 0.878409Z" fill="black"/>
</svg>
