<svg width="20" height="20" viewBox="0 0 20 20" fill="none" xmlns="http://www.w3.org/2000/svg">
<path d="M13.5907 5.89772C12.8873 2.54752 11.3872 0.428005 9.99983 0.428005C8.61243 0.428005 7.11235 2.54752 6.40898 5.89772H13.5907Z" fill="#71BA57"/>
<path d="M5.99962 10C5.99946 10.9147 6.05892 11.8283 6.17763 12.7349H13.822C13.9407 11.8283 14.0002 10.9147 14 10C14.0002 9.08533 13.9407 8.17168 13.822 7.26514H6.17763C6.05892 8.17168 5.99946 9.08533 5.99962 10Z" fill="#71BA57"/>
<path d="M6.40898 14.1023C7.11235 17.4525 8.61243 19.572 9.99983 19.572C11.3872 19.572 12.8873 17.4525 13.5907 14.1023H6.40898Z" fill="#71BA57"/>
<path d="M14.9561 5.89772H19.1563C18.5252 4.42484 17.5663 3.12412 16.3565 2.09992C15.1467 1.07571 13.7197 0.356506 12.1899 0C13.4547 1.14112 14.4467 3.25106 14.9561 5.89772Z" fill="#71BA57"/>
<path d="M19.6357 7.26514H15.1688C15.2788 8.17239 15.3338 9.08577 15.3335 10C15.3335 10.9142 15.2783 11.8276 15.1681 12.7349H19.635C20.1212 10.9457 20.1219 9.05429 19.6357 7.26514Z" fill="#71BA57"/>
<path d="M12.1899 20C13.72 19.6437 15.1472 18.9246 16.3573 17.9004C17.5673 16.8761 18.5264 15.5753 19.1577 14.1023H14.9574C14.4467 16.7489 13.4547 18.8589 12.1899 20Z" fill="#71BA57"/>
<path d="M5.04357 14.1023H0.843346C1.47457 15.5753 2.43368 16.8761 3.64372 17.9004C4.85376 18.9246 6.28104 19.6437 7.81105 20C6.54498 18.8589 5.55293 16.7489 5.04357 14.1023Z" fill="#71BA57"/>
<path d="M7.80972 0C6.2797 0.356313 4.85242 1.07543 3.64238 2.09964C2.43235 3.12386 1.47324 4.42468 0.842012 5.89772H5.04224C5.55293 3.25106 6.54498 1.14112 7.80972 0Z" fill="#71BA57"/>
<path d="M4.66622 10C4.66613 9.08575 4.72135 8.17238 4.83156 7.26514H0.364654C-0.121551 9.05429 -0.121551 10.9457 0.364654 12.7349H4.83156C4.72135 11.8276 4.66613 10.9142 4.66622 10Z" fill="#71BA57"/>
</svg>
