<svg width="7" height="7" viewBox="0 0 7 7" fill="none" xmlns="http://www.w3.org/2000/svg">
<path d="M7 2.83237V4.16765C7 4.26817 6.91855 4.34974 6.81791 4.34974H4.34974V6.81791C4.34974 6.91857 4.26817 7 4.16765 7H2.83237C2.73191 7 2.65029 6.91855 2.65029 6.81791V4.34974H0.182085C0.0814858 4.34974 0 4.26817 0 4.16765V2.83237C0 2.73183 0.0814858 2.65029 0.182085 2.65029H2.65029V0.182085C2.65029 0.0814457 2.73189 0 2.83237 0H4.16765C4.26817 0 4.34974 0.0814457 4.34974 0.182085V2.65029H6.81791C6.91857 2.65029 7 2.73183 7 2.83237Z" fill="#2A59FF"/>
</svg>
