<svg width="15" height="17" viewBox="0 0 15 17" fill="none" xmlns="http://www.w3.org/2000/svg">
<path fill-rule="evenodd" clip-rule="evenodd" d="M0.504521 1.48266C0.325577 1.65959 0.222222 1.92994 0.222222 2.28379V14.8344C0.222222 15.1883 0.325577 15.4586 0.510691 15.6285L0.558512 15.6667L8.22222 8.63482V8.47771L0.552342 1.44444L0.504521 1.48266Z" fill="#2A59FF"/>
<path fill-rule="evenodd" clip-rule="evenodd" d="M10.7531 11.2222L8.22222 8.64574V8.46537L10.7531 5.88889L10.8081 5.9231L13.8018 7.65526C14.6587 8.14661 14.6587 8.95828 13.8018 9.45585L10.8081 11.188L10.7531 11.2222Z" fill="#2A59FF"/>
<path fill-rule="evenodd" clip-rule="evenodd" d="M10.8889 11.1813L8.41522 8.55556L1.11111 16.3086C1.3785 16.6126 1.82706 16.6467 2.32822 16.3505L10.8889 11.1813Z" fill="#2A59FF"/>
<path fill-rule="evenodd" clip-rule="evenodd" d="M10.8889 5.9283L2.32822 0.763804C1.82706 0.459645 1.37703 0.501544 1.11111 0.805704L8.41522 8.55556L10.8889 5.9283Z" fill="#2A59FF"/>
<path fill-rule="evenodd" clip-rule="evenodd" d="M10.8304 11.2222L2.32822 16.2606C1.85336 16.5456 1.42963 16.5258 1.15641 16.2667L1.11111 16.314L1.15641 16.3551C1.42963 16.6127 1.85336 16.634 2.32822 16.349L10.8889 11.2771L10.8304 11.2222Z" fill="#2A59FF"/>
<path fill-rule="evenodd" clip-rule="evenodd" d="M13.8349 9.37619L10.8889 11.1655L10.9419 11.2222L13.8276 9.46755C14.2413 9.21553 14.4444 8.88475 14.4444 8.55556C14.4194 8.85798 14.2089 9.14465 13.8349 9.37619Z" fill="#2A59FF"/>
<path fill-rule="evenodd" clip-rule="evenodd" d="M1.78363 0.856406L13.8004 7.74731C14.1908 7.96915 14.4106 8.25926 14.4444 8.55556C14.4444 8.23133 14.2323 7.90554 13.8004 7.65733L1.78363 0.76643C0.921445 0.26846 0.222168 0.684211 0.222168 1.6786V1.76857C0.222168 0.772635 0.921445 0.364641 1.78363 0.856406Z" fill="#2A59FF"/>
<path fill-rule="evenodd" clip-rule="evenodd" d="M10.8304 11.2222L2.32822 16.2606C1.85336 16.5456 1.42963 16.5258 1.15641 16.2667L1.11111 16.314L1.15641 16.3551C1.42963 16.6127 1.85336 16.634 2.32822 16.349L10.8889 11.2771L10.8304 11.2222Z" fill="#2A59FF"/>
</svg>
