<svg width="33" height="33" viewBox="0 0 33 33" fill="none" xmlns="http://www.w3.org/2000/svg">
<path d="M16.2775 0C16.2687 0.00884168 16.251 0.00884168 16.2245 0.00884168C7.2767 0.00884168 0 7.28554 0 16.2333C0 19.8849 1.24668 23.4304 3.52783 26.2863L1.1671 31.7681C0.972584 32.2191 1.18478 32.7407 1.62687 32.9264C1.78602 32.9971 1.96285 33.0148 2.13084 32.9883L10.7868 31.4675C12.5198 32.0953 14.3412 32.4136 16.1803 32.4047C25.128 32.4047 32.4047 25.128 32.4047 16.1803C32.4224 7.25902 25.1988 0.00884168 16.2775 0ZM16.1891 30.6452C14.4827 30.6452 12.7939 30.3358 11.1936 29.7346C11.0433 29.6727 10.8841 29.6638 10.725 29.6903L3.43941 30.9635L5.3669 26.4808C5.49952 26.1714 5.44647 25.8089 5.22543 25.5524C4.18211 24.3411 3.351 22.9618 2.76744 21.4676C2.11316 19.7965 1.77718 18.0193 1.77718 16.2245C1.77718 8.24928 8.26697 1.76834 16.2333 1.76834C24.182 1.75065 30.6364 8.17855 30.6452 16.1272C30.6452 16.1449 30.6452 16.1626 30.6452 16.1803C30.6452 24.1643 24.1555 30.6452 16.1891 30.6452Z" fill="#2A59FF"/>
<path d="M15.4995 12.9707H10.725C10.2387 12.9707 9.84079 13.3686 9.84079 13.8549C9.84079 14.3412 10.2387 14.7391 10.725 14.7391H15.4995C15.9857 14.7391 16.3836 14.3412 16.3836 13.8549C16.3836 13.3686 15.9857 12.9707 15.4995 12.9707Z" fill="#2A59FF"/>
<path d="M21.6886 17.3916H10.725C10.2387 17.3916 9.84079 17.7895 9.84079 18.2757C9.84079 18.762 10.2387 19.1599 10.725 19.1599H21.6886C22.1749 19.1599 22.5728 18.762 22.5728 18.2757C22.5728 17.7895 22.1749 17.3916 21.6886 17.3916Z" fill="#2A59FF"/>
</svg>
