<svg width="14" height="12" viewBox="0 0 14 12" fill="none" xmlns="http://www.w3.org/2000/svg">
<path d="M0 1C0 0.447715 0.482155 0 1.07692 0H12.9231C13.5178 0 14 0.447715 14 1C14 1.55228 13.5178 2 12.9231 2H1.07692C0.482155 2 0 1.55228 0 1Z" fill="#2A59FF"/>
<path d="M0 6C0 5.44772 0.482155 5 1.07692 5H12.9231C13.5178 5 14 5.44772 14 6C14 6.55228 13.5178 7 12.9231 7H1.07692C0.482155 7 0 6.55228 0 6Z" fill="#2A59FF"/>
<path d="M0 11C0 10.4477 0.482155 10 1.07692 10H12.9231C13.5178 10 14 10.4477 14 11C14 11.5523 13.5178 12 12.9231 12H1.07692C0.482155 12 0 11.5523 0 11Z" fill="#2A59FF"/>
</svg>
