<svg width="15" height="15" viewBox="0 0 15 15" fill="none" xmlns="http://www.w3.org/2000/svg">
<path d="M0 13.41C0 13.5765 0.0939561 13.7284 0.242958 13.8031L2.66602 15V11.7561L0 10.4377V13.41Z" fill="#2A59FF"/>
<path d="M3.54493 11.7561V15L5.9388 13.8031C6.08769 13.7284 6.18165 13.5766 6.18165 13.41V12.3633H8.81837V13.41C8.81837 13.5766 8.91232 13.7284 9.06133 13.8031L11.4551 15V11.7561L8.81837 10.4377V11.4844H6.18165V10.4376L3.54493 11.7561Z" fill="#2A59FF"/>
<path d="M3.30208 8.01521C3.17826 7.95329 3.03269 7.95329 2.90898 8.01521L0.0519562 9.48085L3.10547 10.993L6.12969 9.48085L4.84646 8.81561L6.07819 6.56924L7.06055 7.08984V3.81659L4.42383 2.49823V5.4705C4.42383 5.63701 4.51779 5.78899 4.66679 5.8636L5.29141 6.17602L4.06598 8.41117L3.30208 8.01521Z" fill="#2A59FF"/>
<path d="M12.334 15L14.7572 13.8031C14.9061 13.7284 15 13.5766 15 13.41V10.4376L12.334 11.7561V15Z" fill="#2A59FF"/>
<path d="M10.5762 5.4705V2.49812L7.93946 3.81659V7.08984L8.92194 6.56936L10.1536 8.81572L8.87032 9.48085L11.8945 10.993L14.9481 9.48085L12.0912 8.01509C11.9673 7.95318 11.8218 7.95318 11.698 8.01509L10.934 8.41117L9.7086 6.17602L10.3333 5.8636C10.4822 5.78898 10.5762 5.63701 10.5762 5.4705Z" fill="#2A59FF"/>
<path d="M7.30351 0.0464488L4.47579 1.54139L7.50001 3.0535L10.5242 1.54139L7.69662 0.0463343C7.57279 -0.0154638 7.42722 -0.0154638 7.30351 0.0464488Z" fill="#2A59FF"/>
</svg>
