<svg width="81" height="81" viewBox="0 0 81 81" fill="none" xmlns="http://www.w3.org/2000/svg">
<g clip-path="url(#clip0_8_2)">
<path d="M92 -18H-18V92H92V-18Z" fill="white" fill-opacity="0.01"/>
<path d="M78.6375 49.02L49.0613 78.5963C47.5139 80.1454 45.4141 81.0158 43.2244 81.0158C41.0347 81.0158 38.9351 80.1454 37.3875 78.5963L0.333344 41.5833V0.333336H41.5833L78.6375 37.3875C81.8362 40.6052 81.8362 45.8023 78.6375 49.02Z" fill="#2A59FF"/>
<path fill-rule="evenodd" clip-rule="evenodd" d="M24.3958 30.125C27.5599 30.125 30.125 27.5599 30.125 24.3958C30.125 21.2317 27.5599 18.6667 24.3958 18.6667C21.2317 18.6667 18.6667 21.2317 18.6667 24.3958C18.6667 27.5599 21.2317 30.125 24.3958 30.125Z" fill="white"/>
</g>
<defs>
<clipPath id="clip0_8_2">
<rect width="81" height="81" fill="white"/>
</clipPath>
</defs>
</svg>
