<svg width="12" height="13" viewBox="0 0 12 13" fill="none" xmlns="http://www.w3.org/2000/svg">
<path d="M6.00428 1.19651C3.08315 1.19651 0.70662 3.57304 0.70662 6.49418C0.70662 9.41531 3.08315 11.7918 6.00428 11.7918C8.92542 11.7918 11.3019 9.41531 11.3019 6.49418C11.3019 3.57307 8.92542 1.19651 6.00428 1.19651ZM9.55208 8.54248C9.50026 8.63257 9.40317 8.68861 9.29871 8.68861C9.24732 8.68861 9.19684 8.67502 9.15269 8.64935L5.86398 6.75052L5.85887 6.74773C5.76795 6.69514 5.71196 6.59815 5.71196 6.4942V2.68968C5.71196 2.5285 5.84311 2.39736 6.00428 2.39736C6.16546 2.39736 6.29661 2.5285 6.29661 2.68968V6.32535L9.44516 8.14319C9.51288 8.18227 9.56127 8.24536 9.58143 8.32085C9.60162 8.39623 9.59118 8.47497 9.55208 8.54248ZM4.63205 0.45988C4.75687 0.426847 4.83111 0.298802 4.7978 0.173982C4.76477 0.0491621 4.63672 -0.0253846 4.5119 0.00795323C3.56743 0.258482 2.69427 0.689639 1.91701 1.28888C1.7311 1.43241 1.55309 1.58354 1.38325 1.74226L0.770833 1.23422C0.706823 1.18102 0.619403 1.16612 0.541353 1.19445C0.463302 1.22309 0.406021 1.29091 0.391396 1.37277L0.00347883 3.51896H0.00378354C-0.0134567 3.61339 0.0289202 3.71218 0.116619 3.76304C0.153461 3.78437 0.193807 3.7946 0.233543 3.7946C0.314234 3.7946 0.392869 3.7525 0.436109 3.67737C1.34786 2.09861 2.87726 0.925822 4.63205 0.45988ZM11.8742 9.24458C11.7622 9.17969 11.6193 9.2177 11.5547 9.32936C10.64 10.907 9.10887 12.0772 7.35321 12.5399C7.22839 12.5729 7.15384 12.7006 7.18688 12.8258C7.21435 12.9304 7.30905 13 7.41283 13C7.4324 13 7.45259 12.9974 7.47247 12.9921C8.41753 12.743 9.29127 12.3136 10.0697 11.7156C10.2559 11.5723 10.4342 11.4215 10.6044 11.2634L11.2159 11.7723C11.2586 11.8077 11.3115 11.8264 11.3656 11.8264C11.3922 11.8264 11.4194 11.8217 11.4451 11.8123C11.5234 11.784 11.5804 11.7162 11.5956 11.6346L11.987 9.48871C12.004 9.39454 11.9619 9.29514 11.8742 9.24458Z" fill="#2A59FF"/>
</svg>
