<svg width="14" height="12" viewBox="0 0 14 12" fill="none" xmlns="http://www.w3.org/2000/svg">
<path d="M14 1.3475C13.475 1.575 12.9325 1.7325 12.355 1.8025C12.95 1.4525 13.405 0.8925 13.615 0.21C13.055 0.5425 12.4425 0.77 11.795 0.91C11.27 0.35 10.5175 0 9.695 0C8.1025 0 6.825 1.295 6.825 2.87C6.825 3.0975 6.8425 3.3075 6.895 3.5175C4.515 3.4125 2.415 2.2575 0.9975 0.525C-0.0174999 2.345 1.12 3.85 1.8725 4.3575C1.4175 4.3575 0.9625 4.2175 0.5775 4.0075C0.5775 5.425 1.575 6.5975 2.87 6.86C2.59 6.9475 1.96 7 1.575 6.9125C1.9425 8.05 3.01 8.89 4.2525 8.9075C3.2725 9.6775 1.8375 10.29 0 10.0975C1.2775 10.92 2.7825 11.3925 4.41 11.3925C9.695 11.3925 12.565 7.0175 12.565 3.2375C12.565 3.115 12.565 2.9925 12.5475 2.87C13.1425 2.4325 13.6325 1.925 14 1.3475Z" fill="#2A59FF"/>
</svg>
