<svg width="13" height="13" viewBox="0 0 13 13" fill="none" xmlns="http://www.w3.org/2000/svg">
<path d="M12.6843 5.73388L11.7977 4.84742C11.5873 4.637 11.4148 4.22116 11.4148 3.92294V2.66926C11.4148 2.07289 10.9276 1.5857 10.3314 1.58539H9.07717C8.7793 1.58539 8.36297 1.41263 8.15251 1.20236L7.26603 0.315903C6.84481 -0.105301 6.15515 -0.105301 5.73394 0.315903L4.84745 1.203C4.63683 1.41343 4.22003 1.5857 3.92279 1.5857H2.66908C2.07349 1.5857 1.58566 2.07289 1.58566 2.66926V3.92297C1.58566 4.22001 1.41325 4.63715 1.20279 4.84746L0.316148 5.73392C-0.105383 6.15512 -0.105383 6.84477 0.316148 7.26664L1.20279 8.1531C1.41338 8.36353 1.58566 8.78051 1.58566 9.07759V10.3313C1.58566 10.927 2.07349 11.4149 2.66908 11.4149H3.92282C4.2207 11.4149 4.63702 11.5873 4.84749 11.7976L5.73397 12.6843C6.15518 13.1052 6.84485 13.1052 7.26606 12.6843L8.15254 11.7976C8.36316 11.5871 8.77933 11.4149 9.0772 11.4149H10.3314C10.9276 11.4149 11.4148 10.927 11.4148 10.3313V9.07759C11.4148 8.77924 11.5874 8.3634 11.7977 8.1531L12.6844 7.26664C13.1052 6.84477 13.1052 6.15509 12.6843 5.73388ZM5.64002 8.93762L3.24972 6.54706L4.01579 5.78118L5.64021 7.40556L8.98408 4.06256L9.74995 4.82844L5.64002 8.93762Z" fill="#2A59FF"/>
</svg>
