<svg width="14" height="10" viewBox="0 0 14 10" fill="none" xmlns="http://www.w3.org/2000/svg">
<path d="M7 9.41173C3.91209 9.41173 1.25071 7.60919 0.0281607 5.00799C-0.0093869 4.92917 -0.0093869 4.83696 0.0281607 4.75664C1.25071 2.15546 3.9121 0.352905 7 0.352905C10.0879 0.352905 12.7493 2.15545 13.9718 4.75664C14.0094 4.83547 14.0094 4.92768 13.9718 5.00799C12.7493 7.60919 10.0879 9.41173 7 9.41173ZM7 1.75685C5.25629 1.75685 3.8445 3.15637 3.8445 4.88157C3.8445 6.60827 5.25779 8.00628 7 8.00628C8.74371 8.00628 10.1555 6.60678 10.1555 4.88157C10.1555 3.15637 8.74221 1.75685 7 1.75685Z" fill="#2A59FF"/>
<path d="M9 4.99999C9 6.10456 8.10457 6.99999 7 6.99999C5.89543 6.99999 5 6.10456 5 4.99999C5 3.89542 5.89543 2.99999 7 2.99999C8.10457 2.99999 9 3.89542 9 4.99999Z" fill="#2A59FF"/>
</svg>
