<svg width="14" height="13" viewBox="0 0 14 13" fill="none" xmlns="http://www.w3.org/2000/svg">
<path d="M9.05936 3.83352C8.5905 1.65589 7.59057 0.278203 6.66575 0.278203C5.74092 0.278203 4.74099 1.65589 4.27213 3.83352H9.05936Z" fill="#2A59FF"/>
<path d="M3.99926 6.5C3.99915 7.09453 4.03879 7.68841 4.11792 8.27766H9.21357C9.2927 7.68841 9.33234 7.09453 9.33223 6.5C9.33234 5.90547 9.2927 5.31159 9.21357 4.72234H4.11792C4.03879 5.31159 3.99915 5.90547 3.99926 6.5Z" fill="#2A59FF"/>
<path d="M4.27213 9.16648C4.74099 11.3441 5.74092 12.7218 6.66575 12.7218C7.59057 12.7218 8.5905 11.3441 9.05936 9.16648H4.27213Z" fill="#2A59FF"/>
<path d="M9.96952 3.83352H12.7693C12.3486 2.87614 11.7095 2.03068 10.903 1.36495C10.0966 0.699209 9.14537 0.231729 8.12565 0C8.9687 0.741727 9.62999 2.11319 9.96952 3.83352Z" fill="#2A59FF"/>
<path d="M13.0889 4.72234H10.1113C10.1846 5.31206 10.2213 5.90575 10.2211 6.5C10.2211 7.09426 10.1843 7.68795 10.1108 8.27766H13.0884C13.4125 7.11471 13.413 5.88529 13.0889 4.72234Z" fill="#2A59FF"/>
<path d="M8.12565 13C9.14553 12.7684 10.0969 12.301 10.9035 11.6352C11.7101 10.9695 12.3494 10.124 12.7702 9.16648H9.97041C9.62999 10.8868 8.9687 12.2583 8.12565 13Z" fill="#2A59FF"/>
<path d="M3.36197 9.16648H0.562162C0.98293 10.124 1.62226 10.9695 2.42885 11.6352C3.23544 12.301 4.18685 12.7684 5.20673 13C4.36279 12.2583 3.7015 10.8868 3.36197 9.16648Z" fill="#2A59FF"/>
<path d="M5.20585 0C4.18596 0.231603 3.23455 0.699027 2.42796 1.36477C1.62137 2.03051 0.982041 2.87604 0.561273 3.83352H3.36108C3.7015 2.11319 4.36279 0.741727 5.20585 0Z" fill="#2A59FF"/>
<path d="M3.11043 6.5C3.11038 5.90574 3.14718 5.31205 3.22065 4.72234H0.243073C-0.0810243 5.88529 -0.0810243 7.11471 0.243073 8.27766H3.22065C3.14718 7.68795 3.11038 7.09426 3.11043 6.5Z" fill="#2A59FF"/>
</svg>
