<svg width="12" height="10" viewBox="0 0 12 10" fill="none" xmlns="http://www.w3.org/2000/svg">
<path d="M10.3483 0.97863C9.76649 0.347563 8.96812 0 8.10011 0C7.45129 0 6.8571 0.205125 6.334 0.609628C6.07004 0.81381 5.83087 1.06361 5.62 1.35518C5.40922 1.0637 5.16997 0.81381 4.90593 0.609628C4.38291 0.205125 3.78872 0 3.1399 0C2.27189 0 1.47343 0.347563 0.891589 0.97863C0.316691 1.60232 0 2.45438 0 3.37795C0 4.32854 0.354252 5.19869 1.11481 6.11644C1.79518 6.93736 2.77304 7.77073 3.90543 8.73572C4.2921 9.06528 4.73039 9.43882 5.18549 9.83672C5.30571 9.94203 5.45999 10 5.62 10C5.77994 10 5.93429 9.94203 6.05435 9.83689C6.50945 9.43891 6.948 9.06519 7.33484 8.73546C8.46705 7.77064 9.44491 6.93736 10.1253 6.11635C10.8858 5.19869 11.24 4.32854 11.24 3.37787C11.24 2.45438 10.9233 1.60232 10.3483 0.97863Z" fill="#2A59FF"/>
</svg>
