<svg width="11" height="11" viewBox="0 0 11 11" fill="none" xmlns="http://www.w3.org/2000/svg">
<path d="M2.7802 10.9864L2.98246 10.9299C3.177 10.8755 3.29064 10.6737 3.23627 10.4792L0.923815 2.20377C0.891183 2.08698 0.813494 1.98794 0.707839 1.92844C0.602183 1.86894 0.477216 1.85384 0.360432 1.88648L0.334311 1.89377C0.0911044 1.96172 -0.0509687 2.21396 0.0169805 2.45717L2.3295 10.7326C2.38386 10.9271 2.58564 11.0408 2.7802 10.9864Z" fill="#2A59FF"/>
<path d="M10.9236 5.20338C10.1903 4.83772 9.51187 4.371 8.90822 3.81685C8.85748 3.7704 8.83763 3.6991 8.85707 3.63311C9.15618 2.50157 9.3783 1.35107 9.52193 0.189509C9.54466 -0.00369644 9.44048 -0.0605216 9.33062 0.0720704C7.17505 2.65004 3.44543 -0.399578 1.22546 1.94351C1.25211 1.99341 1.27308 2.04615 1.28797 2.10073L2.78815 7.4726C5.01191 5.15792 8.72827 8.18859 10.88 5.61631C10.9899 5.48372 11.0107 5.24126 10.9236 5.20338Z" fill="#2A59FF"/>
</svg>
