<svg width="202" height="202" viewBox="0 0 202 202" fill="none" xmlns="http://www.w3.org/2000/svg">
<path d="M202 101.004C202 156.774 156.777 201.992 100.976 202C45.2148 202 -0.00807696 156.774 4.33101e-06 100.996C-0.0161583 45.2175 45.2068 0 100.992 0C156.777 0 202 45.2256 202 101.004Z" fill="#EAB300"/>
<path fill-rule="evenodd" clip-rule="evenodd" d="M140.724 76.2475C139.423 62.7195 127.746 58.1858 112.989 56.8928V38.12H101.57V56.3918C98.5723 56.3918 95.5014 56.4484 92.4547 56.513V38.12H81.0359L81.0278 56.8767L80.9054 56.8791C78.4746 56.9268 76.0834 56.9737 73.7546 56.9737V56.9171L58.0042 56.909V69.1118C58.0042 69.1118 66.441 68.9501 66.2956 69.1037C70.9262 69.1037 72.4293 71.7867 72.8657 74.106V95.4891C73.1889 95.4891 73.6011 95.5053 74.0698 95.5699H72.8657L72.8576 125.527C72.6556 126.982 71.7989 129.301 68.5664 129.309C68.7119 129.439 60.2669 129.309 60.2669 129.309L57.9961 142.951H72.8657C74.5423 142.951 76.204 142.968 77.8473 142.986C78.9129 142.997 79.9707 143.009 81.0197 143.015L81.0278 161.998H92.4386V143.217C95.566 143.282 98.5965 143.306 101.562 143.306L101.554 161.998H112.973V143.056C132.174 141.957 145.63 137.116 147.294 119.078C148.644 104.556 141.815 98.067 130.914 95.4487C137.548 92.0869 141.694 86.1471 140.724 76.2475ZM124.749 116.832C124.749 129.859 104.262 129.563 94.9169 129.429L94.9157 129.429C94.0871 129.417 93.3461 129.406 92.7148 129.406V104.249C93.5042 104.251 94.465 104.229 95.5543 104.205C105.16 103.989 124.749 103.549 124.749 116.832ZM94.6249 92.7704C102.444 92.8939 119.432 93.1622 119.432 81.3468C119.439 69.2542 103.069 69.6874 95.0663 69.8992C94.1644 69.923 93.3688 69.9441 92.7148 69.9441V92.7495C93.2597 92.7488 93.9033 92.759 94.6249 92.7704Z" fill="#EEF2F9"/>
</svg>
