<svg width="23" height="23" viewBox="0 0 23 23" fill="none" xmlns="http://www.w3.org/2000/svg">
<path d="M23 11.5005C23 17.8506 17.8509 22.9991 11.4972 23C5.14822 23 -0.000919654 17.8506 4.93135e-07 11.4995C-0.0018398 5.14853 5.1473 0 11.4991 0C17.8509 0 23 5.14945 23 11.5005Z" fill="#71BA57"/>
<path d="M12.2814 5V7.04471H11.162V5H12.2814ZM12.1433 16.1673V18H11.0312V16.1673H12.1433ZM13.2409 13.9584C13.2409 13.694 13.1828 13.4638 13.0665 13.2678C12.955 13.0672 12.7709 12.8871 12.514 12.7275C12.2572 12.5634 11.9131 12.4107 11.4818 12.2693C10.8615 12.0642 10.3188 11.8339 9.85358 11.5786C9.39322 11.3188 9.03461 10.9996 8.77778 10.6213C8.52579 10.2383 8.39979 9.76188 8.39979 9.192C8.39979 8.63125 8.53548 8.14571 8.80685 7.7354C9.08307 7.32509 9.46591 7.00824 9.95535 6.78485C10.4448 6.56146 11.0166 6.44976 11.6708 6.44976C12.1748 6.44976 12.6279 6.52043 13.0301 6.66176C13.4372 6.80309 13.7837 7.01052 14.0696 7.28406C14.3555 7.5576 14.5736 7.89497 14.7238 8.29616C14.8789 8.69279 14.9564 9.14869 14.9564 9.66386H13.2118C13.2118 9.37209 13.1755 9.11222 13.1028 8.88427C13.035 8.65176 12.9332 8.45573 12.7975 8.29616C12.6618 8.13204 12.4971 8.00666 12.3032 7.92004C12.1142 7.83342 11.8986 7.79011 11.6563 7.79011C11.3122 7.79011 11.0287 7.85166 10.8058 7.97475C10.5829 8.09328 10.4181 8.25741 10.3115 8.46712C10.2098 8.67684 10.1589 8.91618 10.1589 9.18517C10.1589 9.44503 10.2122 9.67298 10.3188 9.86902C10.4254 10.0651 10.6071 10.2429 10.864 10.4024C11.1256 10.5574 11.4843 10.7147 11.9398 10.8743C12.5649 11.084 13.1052 11.3188 13.5607 11.5786C14.0211 11.8339 14.3749 12.1508 14.622 12.5292C14.874 12.903 15 13.3749 15 13.9448C15 14.5329 14.8546 15.0321 14.5639 15.4424C14.278 15.8527 13.8757 16.165 13.3572 16.3793C12.8435 16.589 12.2451 16.6938 11.5618 16.6938C11.1305 16.6938 10.7016 16.6414 10.2752 16.5366C9.85358 16.4271 9.47075 16.2493 9.12669 16.0032C8.78262 15.757 8.50883 15.431 8.3053 15.0253C8.10177 14.6149 8 14.1134 8 13.5208H9.75909C9.75909 13.8764 9.80997 14.1727 9.91173 14.4098C10.0135 14.6469 10.1516 14.8338 10.3261 14.9705C10.5005 15.1073 10.6944 15.2053 10.9076 15.2646C11.1256 15.3239 11.3437 15.3535 11.5618 15.3535C11.9252 15.3535 12.2305 15.2965 12.4777 15.1825C12.7297 15.064 12.9187 14.8999 13.0447 14.6902C13.1755 14.4759 13.2409 14.232 13.2409 13.9584Z" fill="white"/>
</svg>
