<svg width="10" height="10" viewBox="0 0 10 10" fill="none" xmlns="http://www.w3.org/2000/svg">
<path d="M4.40003 0.8V3.6C4.40003 3.81217 4.31574 4.01566 4.16572 4.16569C4.01569 4.31571 3.8122 4.4 3.60003 4.4H0.80003C0.587857 4.4 0.384374 4.31571 0.234345 4.16569C0.0843159 4.01566 3.05176e-05 3.81217 3.05176e-05 3.6V0.8C3.05176e-05 0.587827 0.0843159 0.384344 0.234345 0.234315C0.384374 0.0842854 0.587857 0 0.80003 0H3.60003C3.8122 0 4.01569 0.0842854 4.16572 0.234315C4.31574 0.384344 4.40003 0.587827 4.40003 0.8ZM9.20003 0H6.40003C6.18786 0 5.98437 0.0842854 5.83434 0.234315C5.68432 0.384344 5.60003 0.587827 5.60003 0.8V3.6C5.60003 3.81217 5.68432 4.01566 5.83434 4.16569C5.98437 4.31571 6.18786 4.4 6.40003 4.4H9.20003C9.4122 4.4 9.61569 4.31571 9.76572 4.16569C9.91574 4.01566 10 3.81217 10 3.6V0.8C10 0.587827 9.91574 0.384344 9.76572 0.234315C9.61569 0.0842854 9.4122 0 9.20003 0ZM3.60003 5.6H0.80003C0.587857 5.6 0.384374 5.68429 0.234345 5.83431C0.0843159 5.98434 3.05176e-05 6.18783 3.05176e-05 6.4V9.2C3.05176e-05 9.41217 0.0843159 9.61566 0.234345 9.76569C0.384374 9.91571 0.587857 10 0.80003 10H3.60003C3.8122 10 4.01569 9.91571 4.16572 9.76569C4.31574 9.61566 4.40003 9.41217 4.40003 9.2V6.4C4.40003 6.18783 4.31574 5.98434 4.16572 5.83431C4.01569 5.68429 3.8122 5.6 3.60003 5.6ZM7.80003 5.6C7.36491 5.6 6.93956 5.72903 6.57778 5.97077C6.21599 6.21251 5.93401 6.5561 5.7675 6.9581C5.60098 7.36009 5.55742 7.80244 5.6423 8.2292C5.72719 8.65596 5.93672 9.04796 6.2444 9.35563C6.55207 9.66331 6.94407 9.87284 7.37083 9.95773C7.79759 10.0426 8.23994 9.99905 8.64193 9.83253C9.04393 9.66602 9.38752 9.38404 9.62926 9.02225C9.871 8.66047 10 8.23512 10 7.8C10 7.21652 9.76824 6.65694 9.35567 6.24436C8.94308 5.83178 8.38351 5.6 7.80003 5.6Z" fill="#2A59FF"/>
</svg>
