<svg width="8" height="9" viewBox="0 0 8 9" fill="none" xmlns="http://www.w3.org/2000/svg">
<path fill-rule="evenodd" clip-rule="evenodd" d="M7.64357 2.15614C7.63984 2.32944 7.51222 2.46675 7.35817 2.46298C7.20412 2.45879 7.08208 2.31521 7.08543 2.14191L7.10068 1.3859L6.42905 1.36873C6.27501 1.36455 6.15296 1.22096 6.15631 1.04766C6.16003 0.874355 6.28766 0.73705 6.4417 0.740818L7.39277 0.765516C7.54682 0.769283 7.66887 0.912867 7.66515 1.08617L7.64357 2.15614Z" fill="#2A59FF"/>
<path fill-rule="evenodd" clip-rule="evenodd" d="M1.7031 3.38895V8.47129C1.7031 8.76348 1.49287 9 1.23315 9H0.469984C0.210263 9 3.05176e-05 8.76348 3.05176e-05 8.47129V3.38895C3.05176e-05 3.09718 0.210263 2.86024 0.469984 2.86024H1.23315C1.49287 2.86024 1.7031 3.09718 1.7031 3.38895Z" fill="#2A59FF"/>
<path fill-rule="evenodd" clip-rule="evenodd" d="M5.90105 5.96508V8.47129C5.90105 8.61153 5.85157 8.7459 5.76338 8.84511C5.67519 8.94432 5.55575 9 5.4311 9H4.66794C4.54329 9 4.42384 8.94432 4.33566 8.84511C4.24747 8.7459 4.19798 8.61153 4.19798 8.47129V5.96508C4.19798 5.82484 4.24747 5.69047 4.33566 5.59126C4.42384 5.49205 4.54329 5.43637 4.66794 5.43637H5.4311C5.55575 5.43637 5.67519 5.49205 5.76338 5.59126C5.85157 5.69047 5.90105 5.82484 5.90105 5.96508Z" fill="#2A59FF"/>
<path fill-rule="evenodd" clip-rule="evenodd" d="M3.80208 4.67701V8.47129C3.80208 8.76348 3.59184 9 3.33212 9H2.56896C2.30924 9 2.09901 8.76348 2.09901 8.47129V4.67701C2.09901 4.53678 2.1485 4.4024 2.23668 4.30319C2.32487 4.20398 2.44431 4.14831 2.56896 4.14831H3.33212C3.59184 4.14831 3.80208 4.38524 3.80208 4.67701Z" fill="#2A59FF"/>
<path fill-rule="evenodd" clip-rule="evenodd" d="M8.00003 4.67701V8.47129C8.00003 8.76348 7.7898 9 7.53008 9H6.76691C6.50719 9 6.29696 8.76348 6.29696 8.47129V4.67701C6.29696 4.53678 6.34645 4.4024 6.43463 4.30319C6.52282 4.20398 6.64226 4.14831 6.76691 4.14831H7.53008C7.7898 4.14831 8.00003 4.38524 8.00003 4.67701Z" fill="#2A59FF"/>
<path fill-rule="evenodd" clip-rule="evenodd" d="M0.446542 0.565002C0.323007 0.461186 0.298077 0.264021 0.390728 0.125461C0.483007 -0.0130991 0.657891 -0.041146 0.781426 0.0626693L2.9965 1.93176H4.0484C4.13436 1.93176 4.2151 1.97614 4.26794 2.05191L5.11891 3.27048L7.09101 0.955147C7.19743 0.829982 7.37417 0.825796 7.48543 0.945937C7.59668 1.06566 7.6004 1.2645 7.49398 1.38966L5.29938 3.96579C5.24357 4.03151 5.16505 4.06668 5.08431 4.06207C5.00356 4.05789 4.9284 4.01393 4.87854 3.94235L3.91296 2.55968H2.90347C2.84319 2.55968 2.7844 2.53791 2.73603 2.49689L0.446542 0.565002Z" fill="#2A59FF"/>
</svg>
