<svg width="9" height="10" viewBox="0 0 9 10" fill="none" xmlns="http://www.w3.org/2000/svg">
<path d="M4.60168 3.97499V4.47777C4.60168 4.63745 4.63357 4.77142 4.69652 4.87579C4.78334 5.01984 4.92586 5.10239 5.08768 5.10239C5.24621 5.10239 5.40376 5.02518 5.55589 4.87305L7.21651 3.21243C7.58111 2.84782 7.58111 2.25456 7.21651 1.88995L5.55589 0.22934C5.40376 0.0771332 5.24621 0 5.08768 0C4.84575 0 4.60168 0.193176 4.60168 0.624619V1.08124C2.24405 1.22047 0.292296 3.02979 0.0022266 5.39864C-0.014024 5.53093 0.0612018 5.65758 0.185179 5.70663C0.220275 5.72052 0.256819 5.72723 0.292907 5.72723C0.384307 5.72723 0.47296 5.68443 0.529418 5.6073C1.30746 4.54422 2.5567 3.90953 3.87109 3.90953C4.11462 3.90953 4.35953 3.9315 4.60168 3.97499Z" fill="#2A59FF"/>
<path d="M8.55966 4.29337C8.43568 4.24423 8.29423 4.28513 8.21542 4.39278C7.43745 5.45578 6.18822 6.09047 4.87382 6.09047C4.63029 6.09047 4.38539 6.0685 4.14323 6.02501V5.52223C4.14323 5.09079 3.89909 4.89761 3.65724 4.89761C3.4987 4.89761 3.34115 4.97482 3.18895 5.12703L1.52833 6.78757C1.1638 7.15218 1.1638 7.74544 1.52841 8.11012L3.18895 9.77066C3.34115 9.92287 3.4987 10 3.65724 10C3.89909 10 4.14323 9.80682 4.14323 9.37538V8.91876C6.50094 8.77953 8.45262 6.97022 8.74269 4.60144C8.75894 4.46907 8.68371 4.34242 8.55966 4.29337Z" fill="#2A59FF"/>
</svg>
