<svg width="9" height="9" viewBox="0 0 9 9" fill="none" xmlns="http://www.w3.org/2000/svg">
<path d="M2.60295 4.40593L2.87471 4.13418C2.91641 4.09317 2.94598 4.04144 2.96017 3.9847C2.97436 3.92795 2.9726 3.86839 2.95511 3.81258C2.93833 3.75673 2.90675 3.70647 2.86372 3.66712C2.82069 3.62777 2.76781 3.6008 2.71069 3.58907L0.385515 3.12275C0.333382 3.11281 0.279608 3.11581 0.228902 3.13148C0.178196 3.14714 0.132101 3.175 0.094654 3.2126C0.0572065 3.25021 0.029547 3.29642 0.0140964 3.34719C-0.00135425 3.39797 -0.00412511 3.45175 0.00602636 3.50384L0.472347 5.8258C0.48382 5.88311 0.510618 5.93625 0.549889 5.97954C0.58916 6.02284 0.639434 6.05468 0.695362 6.07167C0.751289 6.08866 0.810778 6.09017 0.867497 6.07604C0.924215 6.06191 0.976042 6.03267 1.01746 5.99142L1.28761 5.72128L4.42321 8.85528C4.46885 8.90114 4.52309 8.93754 4.58284 8.96238C4.64258 8.98721 4.70664 9 4.77135 9C4.83605 9 4.90011 8.98721 4.95985 8.96238C5.0196 8.93754 5.07384 8.90114 5.11948 8.85528L5.73856 8.2362C5.78444 8.19082 5.82074 8.1367 5.84532 8.07704C5.86991 8.01738 5.88227 7.95339 5.88167 7.88887C5.88212 7.82413 5.8697 7.75994 5.84513 7.70004C5.82057 7.64014 5.78434 7.58571 5.73856 7.53993L2.60295 4.40593Z" fill="#2A59FF"/>
<path d="M8.28081 5.49134L7.81449 3.16938C7.80302 3.11206 7.77622 3.05893 7.73695 3.01563C7.69768 2.97234 7.64741 2.9405 7.59148 2.92351C7.53555 2.90652 7.47606 2.905 7.41934 2.91913C7.36262 2.93326 7.3108 2.96251 7.26938 3.00375L6.99923 3.2739L3.86363 0.139899C3.76996 0.0501218 3.64524 0 3.51549 0C3.38575 0 3.26103 0.0501218 3.16736 0.139899L2.54828 0.75898C2.5024 0.804356 2.4661 0.858477 2.44152 0.918137C2.41693 0.977798 2.40457 1.04179 2.40517 1.10631C2.40472 1.17105 2.41714 1.23524 2.44171 1.29514C2.46627 1.35504 2.5025 1.40946 2.54828 1.45525L5.68389 4.58924L5.41213 4.85939C5.37114 4.90121 5.34207 4.95322 5.32794 5.01005C5.3138 5.06688 5.31511 5.12645 5.33173 5.1826C5.34885 5.23854 5.38074 5.28882 5.42404 5.32816C5.46733 5.36749 5.52044 5.39442 5.57776 5.40611L7.90132 5.87243C7.92154 5.87557 7.94197 5.87719 7.96243 5.87726C8.00515 5.87761 8.04751 5.8694 8.08701 5.85311C8.1265 5.83681 8.16233 5.81276 8.19237 5.78238C8.22983 5.74483 8.25748 5.69864 8.27291 5.64789C8.28833 5.59714 8.29104 5.54338 8.28081 5.49134Z" fill="#2A59FF"/>
</svg>
