<svg width="10" height="10" viewBox="0 0 10 10" fill="none" xmlns="http://www.w3.org/2000/svg">
<path d="M9.28574 10C9.68021 10 10 9.68052 10 9.28571V5C10 4.60519 9.68021 4.28571 9.28574 4.28571C8.89128 4.28571 8.57146 4.60519 8.57146 5V9.28571C8.57146 9.68052 8.89128 10 9.28574 10Z" fill="#2A59FF"/>
<path d="M6.4286 10C6.82306 10 7.14289 9.68052 7.14289 9.28571V0.714286C7.14289 0.319475 6.82306 0 6.4286 0C6.03414 0 5.71432 0.319475 5.71432 0.714286V9.28571C5.71432 9.68052 6.03414 10 6.4286 10Z" fill="#2A59FF"/>
<path d="M3.57146 10C3.96627 10 4.28574 9.68052 4.28574 9.28571V6.42857C4.28574 6.03376 3.96627 5.71429 3.57146 5.71429C3.17665 5.71429 2.85717 6.03376 2.85717 6.42857V9.28571C2.85717 9.68052 3.17665 10 3.57146 10Z" fill="#2A59FF"/>
<path d="M0.714316 10C1.10913 10 1.4286 9.68052 1.4286 9.28571V3.57143C1.4286 3.17662 1.10913 2.85714 0.714316 2.85714C0.319506 2.85714 3.05176e-05 3.17662 3.05176e-05 3.57143V9.28571C3.05176e-05 9.68052 0.319506 10 0.714316 10Z" fill="#2A59FF"/>
</svg>
