<svg width="11" height="10" viewBox="0 0 11 10" fill="none" xmlns="http://www.w3.org/2000/svg">
<path d="M10.616 5.43857H6.83272C6.66738 5.43857 6.5326 5.57335 6.5326 5.73866C6.5326 5.82286 6.56839 5.89871 6.62419 5.95343L9.28816 8.6174C9.34288 8.67637 9.42193 8.71326 9.50829 8.71326C9.61251 8.71326 9.70409 8.6606 9.7578 8.58057C10.4128 7.82032 10.8339 6.85476 10.9098 5.79233C10.914 5.77444 10.9161 5.75655 10.9161 5.73862C10.9161 5.57335 10.7824 5.43857 10.616 5.43857Z" fill="#2A59FF"/>
<path d="M5.69023 0C5.52489 0.00101084 5.39119 0.134779 5.39119 0.300086V4.50455C5.39119 4.67094 5.52489 4.80572 5.69023 4.80572H9.89578C10.0611 4.80572 10.1959 4.67094 10.1959 4.50455C10.0474 2.0849 8.11097 0.148493 5.69023 0Z" fill="#2A59FF"/>
<path d="M8.00149 8.3721L4.89948 5.2701C4.84685 5.21639 4.81528 5.14162 4.81528 5.06055L4.81417 0.679152C4.81417 0.513845 4.68047 0.380111 4.51513 0.380111C1.9954 0.53386 3.05176e-05 2.62711 3.05176e-05 5.18482C3.05176e-05 7.84353 2.15548 10 4.81417 10C6.02718 10 7.1349 9.55145 7.98148 8.81118C8.04678 8.75639 8.08785 8.67431 8.08785 8.5827C8.08785 8.50159 8.05517 8.42682 8.00149 8.3721Z" fill="#2A59FF"/>
</svg>
