<svg width="10" height="10" viewBox="0 0 10 10" fill="none" xmlns="http://www.w3.org/2000/svg">
<path d="M4.55198 7.90762C4.55213 7.41335 4.68549 6.92826 4.93803 6.50338C5.19056 6.0785 5.55294 5.72953 5.98704 5.4932C6.42114 5.25686 6.91091 5.14188 7.40483 5.16037C7.89875 5.17885 8.37856 5.33012 8.79378 5.59824C8.79671 5.39453 8.79827 5.17715 8.79827 4.94258C8.79827 3.73652 8.75726 2.98379 8.6762 2.2041H8.68772C8.64291 1.76963 8.47699 1.35648 8.20886 1.0117C7.94073 0.666912 7.58117 0.404348 7.17112 0.253906C7.14944 0.245703 7.12776 0.237891 7.10589 0.230469C6.94385 0.175998 6.7763 0.139516 6.60628 0.12168L6.59007 0.119922C5.94144 0.0533203 5.83733 0 4.46956 0C3.10179 0 2.8805 0.0533203 2.23245 0.120898L2.21624 0.122656C2.03776 0.1414 1.86205 0.180723 1.69261 0.239844V0.231055C1.27012 0.374702 0.897669 0.636477 0.619417 0.985348C0.341165 1.33422 0.168777 1.75556 0.122687 2.19941C0.0414367 2.98066 3.05176e-05 3.73418 3.05176e-05 4.94258C3.05176e-05 6.15098 0.0414367 6.90449 0.122687 7.68574C0.178168 8.21886 0.415316 8.71668 0.794341 9.09566C1.17337 9.47465 1.6712 9.71176 2.20433 9.76719L2.22054 9.76894C2.86917 9.83652 2.97308 9.88984 4.34085 9.88984C4.79398 9.88984 5.1221 9.88398 5.37972 9.87363C5.11737 9.61787 4.90895 9.31212 4.76678 8.97444C4.62461 8.63676 4.55157 8.274 4.55198 7.90762ZM2.26683 2.60059H6.53069C6.65408 2.60059 6.77242 2.6496 6.85966 2.73685C6.94691 2.8241 6.99593 2.94243 6.99593 3.06582C6.99593 3.18921 6.94691 3.30754 6.85966 3.39479C6.77242 3.48204 6.65408 3.53105 6.53069 3.53105H2.2678C2.14442 3.53105 2.02608 3.48204 1.93883 3.39479C1.85159 3.30754 1.80257 3.18921 1.80257 3.06582C1.80257 2.94243 1.85159 2.8241 1.93883 2.73685C2.02608 2.6496 2.14442 2.60059 2.2678 2.60059H2.26683ZM2.26683 5.52187C2.14506 5.51938 2.02913 5.46926 1.9439 5.38226C1.85867 5.29527 1.81093 5.17833 1.81093 5.05654C1.81093 4.93475 1.85867 4.81782 1.9439 4.73082C2.02913 4.64383 2.14506 4.59371 2.26683 4.59121H4.69866C4.76057 4.58994 4.82211 4.60104 4.87968 4.62386C4.93725 4.64667 4.98968 4.68074 5.03392 4.72408C5.07815 4.76742 5.11329 4.81914 5.13728 4.87623C5.16127 4.93332 5.17363 4.99462 5.17363 5.05654C5.17363 5.11847 5.16127 5.17977 5.13728 5.23685C5.11329 5.29394 5.07815 5.34567 5.03392 5.389C4.98968 5.43234 4.93725 5.46641 4.87968 5.48923C4.82211 5.51204 4.76057 5.52314 4.69866 5.52187H2.26683Z" fill="#2A59FF"/>
<path d="M7.3014 5.81523C6.88756 5.81523 6.48302 5.93795 6.13893 6.16786C5.79484 6.39778 5.52666 6.72456 5.36829 7.1069C5.20992 7.48923 5.16848 7.90994 5.24922 8.31582C5.32995 8.7217 5.52923 9.09453 5.82186 9.38715C6.11448 9.67978 6.48731 9.87906 6.89319 9.95979C7.29908 10.0405 7.71978 9.99909 8.10212 9.84073C8.48445 9.68236 8.81124 9.41417 9.04115 9.07008C9.27106 8.72599 9.39378 8.32145 9.39378 7.90762C9.39378 7.35268 9.17333 6.82048 8.78093 6.42808C8.38854 6.03568 7.85633 5.81523 7.3014 5.81523ZM8.13069 8.21387H7.2598C7.19375 8.21387 7.13041 8.18763 7.08371 8.14093C7.03701 8.09423 7.01077 8.03089 7.01077 7.96484V6.62695C7.01077 6.56091 7.03701 6.49757 7.08371 6.45087C7.13041 6.40417 7.19375 6.37793 7.2598 6.37793C7.32584 6.37793 7.38918 6.40417 7.43588 6.45087C7.48258 6.49757 7.50882 6.56091 7.50882 6.62695V7.71582H8.13069C8.19674 7.71582 8.26008 7.74206 8.30678 7.78876C8.35348 7.83546 8.37972 7.8988 8.37972 7.96484C8.37972 8.03089 8.35348 8.09423 8.30678 8.14093C8.26008 8.18763 8.19674 8.21387 8.13069 8.21387Z" fill="#2A59FF"/>
</svg>
