<svg width="10" height="8" viewBox="0 0 10 8" fill="none" xmlns="http://www.w3.org/2000/svg">
<path d="M4.38629 4.28701H3.96283V3.86349C3.96283 3.70168 3.83165 3.5705 3.66983 3.5705C3.50802 3.5705 3.37684 3.70168 3.37684 3.86349V4.28701H2.95336C2.79155 4.28701 2.66036 4.4182 2.66036 4.58001V6.01288C2.66036 6.17469 2.79155 6.30588 2.95336 6.30588H3.37684V6.75326C3.37684 6.91508 3.50802 7.04626 3.66983 7.04626C3.83165 7.04626 3.96283 6.91508 3.96283 6.75326V6.30588H4.38629C4.5481 6.30588 4.67929 6.17469 4.67929 6.01288V4.58001C4.67929 4.4182 4.5481 4.28701 4.38629 4.28701Z" fill="#2A59FF"/>
<path d="M7.04666 2.854H6.6232V2.43051C6.6232 2.26869 6.49202 2.13751 6.33021 2.13751C6.16839 2.13751 6.03721 2.26869 6.03721 2.43051V2.854H5.61373C5.45192 2.854 5.32073 2.98519 5.32073 3.147V4.57987C5.32073 4.74168 5.45192 4.87287 5.61373 4.87287H6.03721V6.75328C6.03721 6.9151 6.16839 7.04628 6.33021 7.04628C6.49202 7.04628 6.6232 6.9151 6.6232 6.75328V4.87287H7.04666C7.20847 4.87287 7.33966 4.74168 7.33966 4.57987V3.147C7.33966 2.98519 7.20847 2.854 7.04666 2.854Z" fill="#2A59FF"/>
<path d="M9.70703 0.716514H9.28356V0.292997C9.28356 0.131184 9.15237 0 8.99056 0C8.82875 0 8.69756 0.131184 8.69756 0.292997V0.716494H8.2741C8.11229 0.716494 7.98111 0.847679 7.98111 1.00949V3.14698C7.98111 3.30879 8.11229 3.43998 8.2741 3.43998H8.69756V4.60372C8.69756 4.76553 8.82875 4.89672 8.99056 4.89672C9.15237 4.89672 9.28356 4.76553 9.28356 4.60372V3.43998H9.70703C9.86885 3.43998 10 3.30879 10 3.14698V1.00951C10 0.847698 9.86885 0.716514 9.70703 0.716514Z" fill="#2A59FF"/>
<path d="M1.72594 2.1137H1.3025V0.293016C1.3025 0.131204 1.17131 1.95205e-05 1.0095 1.95205e-05C0.84769 1.95205e-05 0.716505 0.131204 0.716505 0.293016V2.1137H0.293027C0.131215 2.1137 3.05176e-05 2.24488 3.05176e-05 2.4067V4.60374C3.05176e-05 4.76555 0.131215 4.89674 0.293027 4.89674H0.716505V5.32024C0.716505 5.48205 0.84769 5.61323 1.0095 5.61323C1.17131 5.61323 1.3025 5.48205 1.3025 5.32024V4.89674H1.72596C1.88777 4.89674 2.01895 4.76555 2.01895 4.60374V2.4067C2.01893 2.24488 1.88777 2.1137 1.72594 2.1137Z" fill="#2A59FF"/>
</svg>
