<svg width="10" height="10" viewBox="0 0 10 10" fill="none" xmlns="http://www.w3.org/2000/svg">
<path d="M5.44272 0C2.43472 0 3.05176e-05 2.43428 3.05176e-05 5.44269C3.05176e-05 5.60464 0.13132 5.73593 0.293273 5.73593H5.44272C5.60467 5.73593 5.73596 5.60464 5.73596 5.44269V0.293243C5.73596 0.131289 5.60467 0 5.44272 0Z" fill="#2A59FF"/>
<path d="M3.3564 6.58372C3.30496 6.48978 3.20635 6.43138 3.09924 6.43138H1.36497C1.27163 6.43138 1.18384 6.47581 1.12861 6.55109C1.07335 6.62636 1.05726 6.72339 1.08521 6.81246C1.63753 8.57162 3.23062 9.87951 5.14947 10V7.80195C4.39686 7.70855 3.72672 7.25978 3.3564 6.58372Z" fill="#2A59FF"/>
<path d="M6.81249 1.0852C6.72344 1.05727 6.62635 1.07338 6.55112 1.1286C6.47584 1.18385 6.43141 1.27162 6.43141 1.36498V3.09922C6.43141 3.20631 6.48983 3.30491 6.58375 3.35637C7.25977 3.72673 7.70856 4.39684 7.80196 5.14944H10C9.87925 3.22643 8.56749 1.63623 6.81249 1.0852Z" fill="#2A59FF"/>
<path d="M7.80233 5.73591C7.6693 6.81302 6.81307 7.66925 5.73596 7.80228V9.99979C8.02411 9.85576 9.8556 8.02718 9.99982 5.73591H7.80233Z" fill="#2A59FF"/>
</svg>
