<svg width="10" height="10" viewBox="0 0 10 10" fill="none" xmlns="http://www.w3.org/2000/svg">
<path d="M5.00003 0C4.01112 0 3.04443 0.293245 2.22218 0.842652C1.39994 1.39206 0.759073 2.17295 0.380635 3.08658C0.00219694 4.00021 -0.0968197 5.00555 0.0961064 5.97545C0.289032 6.94536 0.765236 7.83627 1.4645 8.53553C2.16376 9.23479 3.05467 9.711 4.02458 9.90392C4.99448 10.0969 5.99982 9.99783 6.91345 9.6194C7.82708 9.24096 8.60797 8.60009 9.15738 7.77785C9.70679 6.9556 10 5.98891 10 5C10 3.67392 9.47325 2.40215 8.53556 1.46447C7.59788 0.526784 6.32611 0 5.00003 0ZM4.61542 4.61538H5.38465C5.69067 4.61538 5.98415 4.73695 6.20054 4.95334C6.41693 5.16973 6.53849 5.46321 6.53849 5.76923C6.53849 6.07525 6.41693 6.36873 6.20054 6.58512C5.98415 6.80151 5.69067 6.92308 5.38465 6.92308V7.30769C5.38465 7.4097 5.34413 7.50753 5.272 7.57966C5.19987 7.65178 5.10204 7.69231 5.00003 7.69231C4.89802 7.69231 4.8002 7.65178 4.72807 7.57966C4.65594 7.50753 4.61542 7.4097 4.61542 7.30769V6.92308H3.84619C3.74418 6.92308 3.64635 6.88255 3.57422 6.81042C3.50209 6.7383 3.46157 6.64047 3.46157 6.53846C3.46157 6.43645 3.50209 6.33863 3.57422 6.2665C3.64635 6.19437 3.74418 6.15384 3.84619 6.15384H5.38465C5.48665 6.15384 5.58448 6.11332 5.65661 6.04119C5.72874 5.96906 5.76926 5.87124 5.76926 5.76923C5.76926 5.66722 5.72874 5.56939 5.65661 5.49727C5.58448 5.42514 5.48665 5.38461 5.38465 5.38461H4.61542C4.3094 5.38461 4.01591 5.26305 3.79952 5.04666C3.58314 4.83027 3.46157 4.53679 3.46157 4.23077C3.46157 3.92475 3.58314 3.63126 3.79952 3.41488C4.01591 3.19849 4.3094 3.07692 4.61542 3.07692V2.69231C4.61542 2.5903 4.65594 2.49247 4.72807 2.42034C4.8002 2.34821 4.89802 2.30769 5.00003 2.30769C5.10204 2.30769 5.19987 2.34821 5.272 2.42034C5.34413 2.49247 5.38465 2.5903 5.38465 2.69231V3.07692H6.15388C6.25588 3.07692 6.35371 3.11744 6.42584 3.18957C6.49797 3.2617 6.53849 3.35953 6.53849 3.46154C6.53849 3.56354 6.49797 3.66137 6.42584 3.7335C6.35371 3.80563 6.25588 3.84615 6.15388 3.84615H4.61542C4.51341 3.84615 4.41558 3.88667 4.34345 3.9588C4.27132 4.03093 4.2308 4.12876 4.2308 4.23077C4.2308 4.33277 4.27132 4.4306 4.34345 4.50273C4.41558 4.57486 4.51341 4.61538 4.61542 4.61538Z" fill="#2A59FF"/>
</svg>
