<svg width="10" height="7" viewBox="0 0 10 7" fill="none" xmlns="http://www.w3.org/2000/svg">
<path d="M9.99998 0.463208C10.0019 0.341046 9.95413 0.223282 9.86871 0.135979C9.7836 0.0489901 9.66584 0 9.54368 0H7.53508C7.47824 0 7.42705 0.0342303 7.40539 0.0866748C7.38434 0.139119 7.39659 0.199415 7.43648 0.239612L7.82369 0.626508C7.88492 0.687432 7.91978 0.770024 7.91978 0.856385C7.91978 0.942431 7.88587 1.02534 7.824 1.08626L5.85811 3.0512C5.68979 3.21984 5.41689 3.21984 5.24919 3.0512L3.98079 1.7828C3.90573 1.70774 3.8043 1.66566 3.69815 1.66566C3.59201 1.66566 3.49026 1.70774 3.41521 1.7828L0.116853 5.07927C-0.0389103 5.23566 -0.0389103 5.48909 0.116853 5.64548L0.542062 6.07006C0.617117 6.14512 0.718552 6.18688 0.824697 6.18688C0.930842 6.18688 1.03228 6.14512 1.10733 6.07069L3.39259 3.78574C3.56092 3.61773 3.83382 3.61773 4.00183 3.78574L5.24794 5.03216C5.32896 5.11256 5.43793 5.15746 5.55287 5.15746C5.66781 5.15746 5.77741 5.11161 5.85843 5.03216L8.81542 2.07486C8.87603 2.01393 8.95894 1.9797 9.04467 1.9797C9.13072 1.9797 9.21394 2.01393 9.27423 2.07517L9.73053 2.53273C9.77041 2.57261 9.82977 2.58486 9.88253 2.56381C9.93466 2.54277 9.96826 2.49221 9.97014 2.436L9.99998 0.463208Z" fill="#2A59FF"/>
</svg>
