<svg width="10" height="10" viewBox="0 0 10 10" fill="none" xmlns="http://www.w3.org/2000/svg">
<path d="M2.56053 10H0.312287C0.156159 10 3.05176e-05 9.84387 3.05176e-05 9.68774V7.40828C3.05176e-05 7.22092 0.156159 7.09602 0.312287 7.09602H2.49808V9.68774C2.49808 9.78142 2.5293 9.90632 2.56053 10Z" fill="#2A59FF"/>
<path d="M6.86966 5.94067V9.68774C6.86966 9.84387 6.71354 10 6.55741 10H3.43485C3.27872 10 3.12259 9.84387 3.12259 9.68774V5.94067C3.12259 5.75332 3.27872 5.62842 3.43485 5.62842H6.55741C6.71354 5.62842 6.86966 5.75332 6.86966 5.94067Z" fill="#2A59FF"/>
<path d="M9.99222 7.81421V9.68774C9.99222 9.84387 9.8361 10 9.67997 10H7.43172C7.46295 9.90632 7.49418 9.78142 7.49418 9.68774V7.50195H9.67997C9.8361 7.50195 9.99222 7.62685 9.99222 7.81421Z" fill="#2A59FF"/>
<path d="M7.5254 2.1936L6.49496 3.19282L6.74476 4.6292C6.77599 4.7541 6.71354 4.879 6.61986 4.94145C6.52618 5.0039 6.37005 5.0039 6.27638 4.97268L4.99613 4.28571L3.71588 4.94145C3.6222 5.0039 3.4973 5.0039 3.40362 4.91023C3.30994 4.84778 3.24749 4.72287 3.27872 4.59797L3.52852 3.16159L2.46685 2.1936C2.4044 2.13115 2.37318 2.00625 2.4044 1.88134C2.43563 1.75644 2.5293 1.69399 2.65421 1.66276L4.09059 1.44418L4.7151 0.163934C4.80877 -0.0546448 5.18348 -0.0546448 5.27716 0.163934L5.90167 1.44418L7.33805 1.66276C7.46295 1.69399 7.55663 1.75644 7.58785 1.88134C7.61908 2.00625 7.58785 2.13115 7.5254 2.1936Z" fill="#2A59FF"/>
</svg>
