<svg width="10" height="10" viewBox="0 0 10 10" fill="none" xmlns="http://www.w3.org/2000/svg">
<path d="M1.4286 0C0.639623 0 3.05176e-05 0.639593 3.05176e-05 1.42857V2.85714C3.05176e-05 3.64612 0.639623 4.28571 1.4286 4.28571H2.85717C3.64615 4.28571 4.28574 3.64612 4.28574 2.85714V1.42857C4.28574 0.639593 3.64615 0 2.85717 0H1.4286Z" fill="#2A59FF"/>
<path d="M1.4286 5.71429C0.639623 5.71429 3.05176e-05 6.35386 3.05176e-05 7.14286V8.57143C3.05176e-05 9.36043 0.639623 10 1.4286 10H2.85717C3.64615 10 4.28574 9.36043 4.28574 8.57143V7.14286C4.28574 6.35386 3.64615 5.71429 2.85717 5.71429H1.4286Z" fill="#2A59FF"/>
<path d="M5.71432 1.42857C5.71432 0.639593 6.35389 0 7.14289 0H8.57146C9.36046 0 10 0.639593 10 1.42857V2.85714C10 3.64612 9.36046 4.28571 8.57146 4.28571H7.14289C6.35389 4.28571 5.71432 3.64612 5.71432 2.85714V1.42857Z" fill="#2A59FF"/>
<path d="M7.85717 5.71429C8.25167 5.71429 8.57146 6.03407 8.57146 6.42857V7.14286H9.28574C9.68024 7.14286 10 7.46264 10 7.85714C10 8.25164 9.68024 8.57143 9.28574 8.57143H8.57146V9.28571C8.57146 9.68021 8.25167 10 7.85717 10C7.46267 10 7.14289 9.68021 7.14289 9.28571V8.57143H6.4286C6.0341 8.57143 5.71432 8.25164 5.71432 7.85714C5.71432 7.46264 6.0341 7.14286 6.4286 7.14286H7.14289V6.42857C7.14289 6.03407 7.46267 5.71429 7.85717 5.71429Z" fill="#2A59FF"/>
</svg>
