<svg width="10" height="8" viewBox="0 0 10 8" fill="none" xmlns="http://www.w3.org/2000/svg">
<path d="M9.12112 0H3.22269C2.73792 0 2.34378 0.394336 2.34378 0.878906C2.34378 1.36367 2.73792 1.75781 3.22269 1.75781H9.12112C9.60569 1.75781 10 1.36367 10 0.878906C10 0.394336 9.60569 0 9.12112 0Z" fill="#2A59FF"/>
<path d="M9.12112 2.92969H3.22269C2.73792 2.92969 2.34378 3.32402 2.34378 3.80859C2.34378 4.29336 2.73792 4.6875 3.22269 4.6875H9.12112C9.60569 4.6875 10 4.29336 10 3.80859C10 3.32402 9.60569 2.92969 9.12112 2.92969Z" fill="#2A59FF"/>
<path d="M9.12112 5.85938H3.22269C2.73792 5.85938 2.34378 6.25371 2.34378 6.73828C2.34378 7.22305 2.73792 7.61719 3.22269 7.61719H9.12112C9.60569 7.61719 10 7.22305 10 6.73828C10 6.25371 9.60569 5.85938 9.12112 5.85938Z" fill="#2A59FF"/>
<path d="M0.878937 0C0.394171 0 3.05176e-05 0.394336 3.05176e-05 0.878906C3.05176e-05 1.36367 0.394171 1.75781 0.878937 1.75781C1.36351 1.75781 1.75784 1.36367 1.75784 0.878906C1.75784 0.394336 1.36351 0 0.878937 0Z" fill="#2A59FF"/>
<path d="M0.878937 2.92969C0.394171 2.92969 3.05176e-05 3.32402 3.05176e-05 3.80859C3.05176e-05 4.29336 0.394171 4.6875 0.878937 4.6875C1.36351 4.6875 1.75784 4.29336 1.75784 3.80859C1.75784 3.32402 1.36351 2.92969 0.878937 2.92969Z" fill="#2A59FF"/>
<path d="M0.878937 5.85938C0.394171 5.85938 3.05176e-05 6.25371 3.05176e-05 6.73828C3.05176e-05 7.22305 0.394171 7.61719 0.878937 7.61719C1.36351 7.61719 1.75784 7.22305 1.75784 6.73828C1.75784 6.25371 1.36351 5.85938 0.878937 5.85938Z" fill="#2A59FF"/>
</svg>
