<svg width="10" height="9" viewBox="0 0 10 9" fill="none" xmlns="http://www.w3.org/2000/svg">
<path d="M2.604 7.1591C1.93695 7.1591 1.34359 6.73978 1.12814 6.11551L1.11356 6.06846C1.06275 5.90315 1.04146 5.76412 1.04146 5.62502V2.83581L0.0306214 6.14861C-0.0993865 6.63588 0.19687 7.14105 0.693936 7.27566L7.13703 8.96974C7.21745 8.99019 7.29786 9 7.37706 9C7.79203 9 8.17122 8.72959 8.2775 8.33109L8.65288 7.1591H2.604Z" fill="#2A59FF"/>
<path d="M3.74989 2.86367C4.20949 2.86367 4.58319 2.4967 4.58319 2.04547C4.58319 1.59423 4.20949 1.22727 3.74989 1.22727C3.29028 1.22727 2.91651 1.59423 2.91651 2.04547C2.91651 2.4967 3.29028 2.86367 3.74989 2.86367Z" fill="#2A59FF"/>
<path d="M8.95829 0H2.70814C2.13402 0 1.66648 0.459026 1.66648 1.02277V5.5227C1.66648 6.08644 2.13402 6.54547 2.70814 6.54547H8.95829C9.53249 6.54547 10 6.08644 10 5.5227V1.02277C10 0.459026 9.53249 0 8.95829 0ZM2.70814 0.818202H8.95829C9.07334 0.818202 9.16665 0.909813 9.16665 1.02277V3.92689L7.8504 2.41895C7.71078 2.2582 7.50867 2.17228 7.29161 2.16742C7.07577 2.16861 6.87328 2.2627 6.73495 2.42554L5.18737 4.24921L4.68321 3.75543C4.39825 3.47566 3.93444 3.47566 3.64986 3.75543L2.49986 4.88412V1.02277C2.49986 0.909813 2.59317 0.818202 2.70814 0.818202Z" fill="#2A59FF"/>
</svg>
