<svg width="8" height="9" viewBox="0 0 8 9" fill="none" xmlns="http://www.w3.org/2000/svg">
<path d="M6.11123 1.00192V0.3253C6.11123 0.147469 5.96012 0 5.7779 0C5.59568 0 5.44456 0.147469 5.44456 0.3253V0.975899H2.55569V0.3253C2.55569 0.147469 2.40458 0 2.22236 0C2.04013 0 1.88902 0.147469 1.88902 0.3253V1.00192C0.689022 1.11036 0.1068 1.80867 0.0179107 2.84529C0.00902179 2.97107 0.115688 3.07517 0.240133 3.07517H7.76012C7.88901 3.07517 7.99568 2.96673 7.98234 2.84529C7.89345 1.80867 7.31123 1.11036 6.11123 1.00192Z" fill="#2A59FF"/>
<path d="M7.55559 3.7258H0.444475C0.200031 3.7258 3.05176e-05 3.92099 3.05176e-05 4.15954V6.83134C3.05176e-05 8.13253 0.666697 9 2.22225 9H5.77781C7.33336 9 8.00003 8.13253 8.00003 6.83134V4.15954C8.00003 3.92099 7.80003 3.7258 7.55559 3.7258ZM2.76003 7.35615C2.73781 7.3735 2.71559 7.39519 2.69336 7.4082C2.6667 7.42555 2.64003 7.43856 2.61336 7.44724C2.5867 7.46025 2.56003 7.46892 2.53336 7.47326C2.50225 7.4776 2.47559 7.48194 2.44448 7.48194C2.3867 7.48194 2.32892 7.46892 2.27559 7.44724C2.21781 7.42555 2.17336 7.39519 2.12892 7.35615C2.04892 7.27374 2.00003 7.16097 2.00003 7.0482C2.00003 6.93543 2.04892 6.82266 2.12892 6.74025C2.17336 6.70122 2.21781 6.67086 2.27559 6.64917C2.35559 6.61447 2.44447 6.6058 2.53336 6.62314C2.56003 6.62748 2.5867 6.63616 2.61336 6.64917C2.64003 6.65784 2.6667 6.67085 2.69336 6.6882L2.76003 6.74025C2.84003 6.82266 2.88892 6.93543 2.88892 7.0482C2.88892 7.16097 2.84003 7.27374 2.76003 7.35615ZM2.76003 5.83809C2.67559 5.91616 2.56003 5.96387 2.44448 5.96387C2.32892 5.96387 2.21336 5.91616 2.12892 5.83809C2.04892 5.75568 2.00003 5.64291 2.00003 5.53014C2.00003 5.41737 2.04892 5.3046 2.12892 5.22219C2.25336 5.10074 2.44892 5.06171 2.61336 5.1311C2.67114 5.15279 2.72003 5.18315 2.76003 5.22219C2.84003 5.3046 2.88892 5.41737 2.88892 5.53014C2.88892 5.64291 2.84003 5.75568 2.76003 5.83809ZM4.31559 7.35615C4.23114 7.43423 4.11559 7.48194 4.00003 7.48194C3.88447 7.48194 3.76892 7.43423 3.68447 7.35615C3.60448 7.27374 3.55559 7.16097 3.55559 7.0482C3.55559 6.93543 3.60448 6.82266 3.68447 6.74025C3.84892 6.57977 4.15114 6.57977 4.31559 6.74025C4.39559 6.82266 4.44448 6.93543 4.44448 7.0482C4.44448 7.16097 4.39559 7.27374 4.31559 7.35615ZM4.31559 5.83809C4.29336 5.85544 4.27114 5.87279 4.24892 5.89014C4.22225 5.90749 4.19559 5.9205 4.16892 5.92917C4.14225 5.94218 4.11559 5.95086 4.08892 5.9552C4.05781 5.95953 4.03114 5.96387 4.00003 5.96387C3.88447 5.96387 3.76892 5.91616 3.68447 5.83809C3.60448 5.75568 3.55559 5.64291 3.55559 5.53014C3.55559 5.41737 3.60448 5.3046 3.68447 5.22219C3.72448 5.18315 3.77336 5.15279 3.83114 5.1311C3.99559 5.06171 4.19114 5.10074 4.31559 5.22219C4.39559 5.3046 4.44448 5.41737 4.44448 5.53014C4.44448 5.64291 4.39559 5.75568 4.31559 5.83809ZM5.87114 7.35615C5.7867 7.43423 5.67114 7.48194 5.55559 7.48194C5.44003 7.48194 5.32448 7.43423 5.24003 7.35615C5.16003 7.27374 5.11114 7.16097 5.11114 7.0482C5.11114 6.93543 5.16003 6.82266 5.24003 6.74025C5.40448 6.57977 5.7067 6.57977 5.87114 6.74025C5.95114 6.82266 6.00003 6.93543 6.00003 7.0482C6.00003 7.16097 5.95114 7.27374 5.87114 7.35615ZM5.87114 5.83809C5.84892 5.85544 5.8267 5.87279 5.80448 5.89014C5.77781 5.90749 5.75114 5.9205 5.72448 5.92917C5.69781 5.94218 5.67114 5.95086 5.64448 5.9552C5.61336 5.95953 5.58225 5.96387 5.55559 5.96387C5.44003 5.96387 5.32448 5.91616 5.24003 5.83809C5.16003 5.75568 5.11114 5.64291 5.11114 5.53014C5.11114 5.41737 5.16003 5.3046 5.24003 5.22219C5.28448 5.18315 5.32892 5.15279 5.3867 5.1311C5.4667 5.09641 5.55559 5.08773 5.64448 5.10508C5.67114 5.10942 5.69781 5.11809 5.72448 5.1311C5.75114 5.13978 5.77781 5.15279 5.80448 5.17014C5.8267 5.18749 5.84892 5.20484 5.87114 5.22219C5.95114 5.3046 6.00003 5.41737 6.00003 5.53014C6.00003 5.64291 5.95114 5.75568 5.87114 5.83809Z" fill="#2A59FF"/>
</svg>
