<svg width="110" height="29" viewBox="0 0 110 29" fill="none" xmlns="http://www.w3.org/2000/svg">
<path d="M17.3171 13.4373C17.2881 10.2451 19.9532 8.69213 20.0751 8.61983C18.5657 6.43789 16.2263 6.13977 15.4042 6.116C13.4393 5.91098 11.5334 7.28175 10.5325 7.28175C9.51166 7.28175 7.97035 6.13581 6.30917 6.16949C4.17152 6.20217 2.17171 7.42932 1.07492 9.33493C-1.1886 13.2204 0.499548 18.9303 2.66817 22.071C3.75298 23.6091 5.02059 25.3265 6.67977 25.2661C8.30298 25.1998 8.90932 24.24 10.8682 24.24C12.809 24.24 13.3784 25.2661 15.0706 25.2275C16.8126 25.1998 17.9094 23.6824 18.9563 22.1304C20.2099 20.3674 20.7134 18.6312 20.7333 18.542C20.6924 18.5282 17.3501 17.2634 17.3171 13.4373Z" fill="white"/>
<path d="M14.1206 4.0499C14.9936 2.96735 15.591 1.49457 15.4252 0C14.1615 0.0554646 12.5813 0.866634 11.6713 1.92541C10.8662 2.85841 10.1469 4.38764 10.3327 5.82576C11.7522 5.93075 13.2096 5.11562 14.1206 4.0499Z" fill="white"/>
<path d="M40.8081 25.0455H38.5396L37.297 21.1739H32.9777L31.794 25.0455H29.5854L33.8648 11.8647H36.5079L40.8081 25.0455ZM36.9224 19.5496L35.7986 16.1078C35.6798 15.7562 35.457 14.9282 35.1284 13.6248H35.0884C34.9576 14.1853 34.7468 15.0134 34.4571 16.1078L33.3533 19.5496H36.9224Z" fill="white"/>
<path d="M51.8132 20.1761C51.8132 21.7925 51.3727 23.0701 50.4917 24.0081C49.7025 24.843 48.7226 25.26 47.5529 25.26C46.2903 25.26 45.3833 24.8103 44.8309 23.911H44.7909V28.9177H42.6613V18.6696C42.6613 17.6534 42.6343 16.6105 42.5824 15.5408H44.4553L44.5742 17.0473H44.6141C45.3243 15.9122 46.4022 15.3457 47.8486 15.3457C48.9793 15.3457 49.9233 15.7884 50.6785 16.6749C51.4356 17.5623 51.8132 18.729 51.8132 20.1761ZM49.6436 20.2533C49.6436 19.3283 49.4338 18.5656 49.0123 17.9654C48.5518 17.3395 47.9335 17.0265 47.1583 17.0265C46.6329 17.0265 46.1554 17.2008 45.7289 17.5445C45.3014 17.8911 45.0217 18.3438 44.8908 18.9043C44.8249 19.1658 44.7919 19.3798 44.7919 19.5481V21.1328C44.7919 21.8242 45.0057 22.4075 45.4332 22.8839C45.8608 23.3603 46.4161 23.598 47.0994 23.598C47.9015 23.598 48.5258 23.291 48.9723 22.6789C49.4199 22.0658 49.6436 21.2576 49.6436 20.2533Z" fill="white"/>
<path d="M62.8379 20.1761C62.8379 21.7925 62.3973 23.0701 61.5153 24.0081C60.7272 24.843 59.7472 25.26 58.5775 25.26C57.3149 25.26 56.4079 24.8103 55.8565 23.911H55.8166V28.9177H53.6869V18.6696C53.6869 17.6534 53.6599 16.6105 53.608 15.5408H55.4809L55.5998 17.0473H55.6397C56.349 15.9122 57.4268 15.3457 58.8742 15.3457C60.004 15.3457 60.9479 15.7884 61.7051 16.6749C62.4593 17.5623 62.8379 18.729 62.8379 20.1761ZM60.6682 20.2533C60.6682 19.3283 60.4575 18.5656 60.0359 17.9654C59.5754 17.3395 58.9591 17.0265 58.183 17.0265C57.6565 17.0265 57.1801 17.2008 56.7525 17.5445C56.325 17.8911 56.0463 18.3438 55.9154 18.9043C55.8505 19.1658 55.8166 19.3798 55.8166 19.5481V21.1328C55.8166 21.8242 56.0303 22.4075 56.4559 22.8839C56.8834 23.3593 57.4388 23.598 58.124 23.598C58.9261 23.598 59.5505 23.291 59.997 22.6789C60.4445 22.0658 60.6682 21.2576 60.6682 20.2533Z" fill="white"/>
<path d="M75.1643 21.349C75.1643 22.4701 74.7717 23.3823 73.9836 24.0865C73.1176 24.8561 71.9119 25.2404 70.3626 25.2404C68.9322 25.2404 67.7854 24.967 66.9174 24.4193L67.4108 22.6593C68.3458 23.2199 69.3717 23.5012 70.4894 23.5012C71.2916 23.5012 71.9159 23.3209 72.3644 22.9624C72.8109 22.6038 73.0337 22.1225 73.0337 21.5223C73.0337 20.9875 72.8499 20.5368 72.4813 20.1713C72.1147 19.8059 71.5023 19.4661 70.6473 19.1522C68.3198 18.2915 67.1571 17.0307 67.1571 15.3727C67.1571 14.2891 67.5647 13.4007 68.3808 12.7094C69.1939 12.0171 70.2787 11.6714 71.6352 11.6714C72.8449 11.6714 73.8498 11.8804 74.6519 12.2973L74.1195 14.0187C73.3703 13.6146 72.5232 13.4126 71.5753 13.4126C70.8261 13.4126 70.2407 13.5958 69.8212 13.9603C69.4666 14.2861 69.2888 14.6833 69.2888 15.1538C69.2888 15.6747 69.4915 16.1056 69.8991 16.4443C70.2537 16.7573 70.898 17.096 71.833 17.4615C72.9767 17.9181 73.8168 18.4519 74.3572 19.064C74.8956 19.6741 75.1643 20.4378 75.1643 21.349Z" fill="white"/>
<path d="M82.2059 17.1257H79.8584V21.7401C79.8584 22.9138 80.272 23.5002 81.1011 23.5002C81.4817 23.5002 81.7973 23.4675 82.047 23.4021L82.106 25.0056C81.6864 25.1611 81.134 25.2394 80.4498 25.2394C79.6087 25.2394 78.9514 24.9848 78.477 24.4767C78.0045 23.9676 77.7667 23.1139 77.7667 21.9145V17.1237H76.3683V15.539H77.7667V13.7988L79.8584 13.1729V15.539H82.2059V17.1257Z" fill="white"/>
<path d="M92.7973 20.2152C92.7973 21.6761 92.3757 22.8755 91.5346 23.8134C90.6526 24.7791 89.4819 25.2605 88.0225 25.2605C86.616 25.2605 85.4963 24.7979 84.6612 23.8729C83.8261 22.9478 83.4086 21.7801 83.4086 20.3727C83.4086 18.8999 83.8381 17.6935 84.7001 16.7556C85.5602 15.8166 86.7209 15.3472 88.1803 15.3472C89.5868 15.3472 90.7185 15.8097 91.5726 16.7358C92.3897 17.6341 92.7973 18.7939 92.7973 20.2152ZM90.5877 20.2835C90.5877 19.407 90.3989 18.6552 90.0163 18.0283C89.5698 17.2696 88.9315 16.8913 88.1044 16.8913C87.2483 16.8913 86.5981 17.2706 86.1516 18.0283C85.769 18.6562 85.5802 19.4199 85.5802 20.3231C85.5802 21.1997 85.769 21.9514 86.1516 22.5774C86.612 23.336 87.2553 23.7144 88.0854 23.7144C88.8985 23.7144 89.5368 23.3281 89.9973 22.5576C90.3899 21.9187 90.5877 21.1591 90.5877 20.2835Z" fill="white"/>
<path d="M99.7195 17.3979C99.5088 17.3593 99.284 17.3395 99.0483 17.3395C98.2991 17.3395 97.7197 17.6197 97.3122 18.1813C96.9576 18.6765 96.7798 19.3025 96.7798 20.0582V25.0451H94.6511L94.6711 18.5339C94.6711 17.4385 94.6441 16.4411 94.5912 15.5418H96.4461L96.524 17.3603H96.583C96.8077 16.7353 97.1623 16.2321 97.6478 15.8548C98.1223 15.5151 98.6347 15.3457 99.1871 15.3457C99.3839 15.3457 99.5617 15.3596 99.7195 15.3843V17.3979Z" fill="white"/>
<path d="M109.244 19.8435C109.244 20.2219 109.219 20.5408 109.166 20.8013H102.777C102.802 21.7402 103.111 22.4583 103.704 22.9535C104.242 23.3962 104.939 23.6181 105.794 23.6181C106.74 23.6181 107.603 23.4685 108.379 23.1684L108.712 24.6343C107.805 25.0265 106.735 25.2216 105.499 25.2216C104.013 25.2216 102.846 24.7878 101.997 23.9212C101.15 23.0545 100.725 21.8908 100.725 20.4309C100.725 18.9977 101.12 17.8042 101.91 16.8524C102.737 15.8362 103.855 15.3281 105.261 15.3281C106.643 15.3281 107.689 15.8362 108.399 16.8524C108.961 17.6596 109.244 18.658 109.244 19.8435ZM107.213 19.2958C107.227 18.6699 107.088 18.1291 106.8 17.6725C106.431 17.0852 105.865 16.792 105.102 16.792C104.406 16.792 103.84 17.0782 103.407 17.6527C103.053 18.1093 102.842 18.657 102.777 19.2948H107.213V19.2958Z" fill="white"/>
<path d="M36.2182 3.7558C36.2182 4.92155 35.8656 5.79908 35.1614 6.38839C34.5091 6.93214 33.5821 7.20451 32.3814 7.20451C31.7861 7.20451 31.2766 7.17876 30.8501 7.12726V0.757746C31.4065 0.668607 32.0058 0.623047 32.6531 0.623047C33.7969 0.623047 34.6589 0.869666 35.2403 1.3629C35.8916 1.92052 36.2182 2.71782 36.2182 3.7558ZM35.1144 3.78453C35.1144 3.02882 34.9126 2.44942 34.5091 2.04532C34.1055 1.64221 33.5162 1.44016 32.74 1.44016C32.4104 1.44016 32.1297 1.46195 31.897 1.50751V6.34976C32.0258 6.36957 32.2616 6.37849 32.6042 6.37849C33.4053 6.37849 34.0236 6.15762 34.4591 5.71588C34.8947 5.27415 35.1144 4.63036 35.1144 3.78453Z" fill="white"/>
<path d="M42.0709 4.77373C42.0709 5.4918 41.8641 6.08012 41.4506 6.54166C41.0171 7.01608 40.4427 7.2528 39.7255 7.2528C39.0343 7.2528 38.4839 7.02599 38.0733 6.57039C37.6638 6.11578 37.459 5.54231 37.459 4.85099C37.459 4.12796 37.6698 3.53469 38.0933 3.07414C38.5168 2.61358 39.0862 2.38281 39.8034 2.38281C40.4946 2.38281 41.05 2.60962 41.4706 3.06423C41.8701 3.50597 42.0709 4.07646 42.0709 4.77373ZM40.9851 4.80741C40.9851 4.37657 40.8912 4.00713 40.7044 3.69911C40.4847 3.3267 40.172 3.1405 39.7655 3.1405C39.3449 3.1405 39.0253 3.3267 38.8055 3.69911C38.6177 4.00713 38.5248 4.38251 38.5248 4.82622C38.5248 5.25707 38.6187 5.6265 38.8055 5.93453C39.0323 6.30693 39.3479 6.49313 39.7555 6.49313C40.155 6.49313 40.4687 6.30396 40.6944 5.92462C40.8882 5.61065 40.9851 5.23825 40.9851 4.80741Z" fill="white"/>
<path d="M49.9182 2.47803L48.4448 7.14696H47.4859L46.8756 5.11953C46.7207 4.61341 46.5949 4.11027 46.497 3.61109H46.478C46.3871 4.12414 46.2612 4.62629 46.0994 5.11953L45.4511 7.14696H44.4812L43.0957 2.47803H44.1715L44.7039 4.6976C44.8328 5.22253 44.9387 5.7227 45.0236 6.19613H45.0426C45.1205 5.8059 45.2493 5.3087 45.4311 4.70751L46.0994 2.47902H46.9525L47.5928 4.65996C47.7476 5.19183 47.8735 5.70389 47.9704 6.19712H47.9993C48.0703 5.71676 48.1771 5.20471 48.319 4.65996L48.8903 2.47902H49.9182V2.47803Z" fill="white"/>
<path d="M55.3452 7.14686H54.2984V4.47268C54.2984 3.64863 53.9827 3.23661 53.3494 3.23661C53.0388 3.23661 52.7881 3.34952 52.5933 3.57633C52.4005 3.80314 52.3026 4.07056 52.3026 4.37661V7.14587H51.2557V3.81206C51.2557 3.40202 51.2427 2.95731 51.2178 2.47596H52.1378L52.1867 3.20591H52.2157C52.3375 2.9791 52.5193 2.79191 52.7581 2.64235C53.0418 2.46803 53.3594 2.37988 53.707 2.37988C54.1466 2.37988 54.5122 2.52053 54.8028 2.8028C55.1644 3.14846 55.3452 3.66448 55.3452 4.34987V7.14686Z" fill="white"/>
<path d="M58.2319 7.14719H57.186V0.335938H58.2319V7.14719Z" fill="white"/>
<path d="M64.3956 4.77373C64.3956 5.4918 64.1889 6.08012 63.7753 6.54166C63.3418 7.01608 62.7664 7.2528 62.0502 7.2528C61.358 7.2528 60.8076 7.02599 60.398 6.57039C59.9885 6.11578 59.7837 5.54231 59.7837 4.85099C59.7837 4.12796 59.9945 3.53469 60.418 3.07414C60.8415 2.61358 61.4109 2.38281 62.1271 2.38281C62.8194 2.38281 63.3737 2.60962 63.7953 3.06423C64.1948 3.50597 64.3956 4.07646 64.3956 4.77373ZM63.3088 4.80741C63.3088 4.37657 63.2149 4.00713 63.0281 3.69911C62.8094 3.3267 62.4957 3.1405 62.0902 3.1405C61.6686 3.1405 61.349 3.3267 61.1302 3.69911C60.9424 4.00713 60.8495 4.38251 60.8495 4.82622C60.8495 5.25707 60.9434 5.6265 61.1302 5.93453C61.357 6.30693 61.6726 6.49313 62.0802 6.49313C62.4797 6.49313 62.7924 6.30396 63.0181 5.92462C63.2129 5.61065 63.3088 5.23825 63.3088 4.80741Z" fill="white"/>
<path d="M69.4615 7.14682H68.5215L68.4436 6.60901H68.4146C68.093 7.03787 67.6345 7.2528 67.0391 7.2528C66.5946 7.2528 66.235 7.11117 65.9643 6.82988C65.7186 6.57435 65.5957 6.25642 65.5957 5.87906C65.5957 5.30857 65.8354 4.87377 66.3179 4.57267C66.7994 4.27158 67.4766 4.124 68.3487 4.13094V4.04378C68.3487 3.42872 68.023 3.12168 67.3708 3.12168C66.9063 3.12168 66.4967 3.23756 66.1431 3.46734L65.9303 2.78592C66.3679 2.51751 66.9083 2.38281 67.5456 2.38281C68.7762 2.38281 69.3935 3.0266 69.3935 4.31417V6.03357C69.3935 6.50007 69.4165 6.87148 69.4615 7.14682ZM68.3747 5.54231V4.82226C67.2199 4.80245 66.6426 5.11642 66.6426 5.76318C66.6426 6.00683 66.7085 6.18907 66.8433 6.31089C66.9782 6.43272 67.15 6.49313 67.3548 6.49313C67.5845 6.49313 67.7993 6.42083 67.9951 6.27722C68.1919 6.13261 68.3127 5.94938 68.3577 5.72455C68.3687 5.67404 68.3747 5.61263 68.3747 5.54231Z" fill="white"/>
<path d="M75.4101 7.14718H74.4811L74.4322 6.39742H74.4032C74.1065 6.96791 73.6011 7.25316 72.8909 7.25316C72.3235 7.25316 71.851 7.03229 71.4764 6.59056C71.1018 6.14882 70.915 5.57536 70.915 4.87116C70.915 4.11545 71.1178 3.50336 71.5254 3.03587C71.9199 2.60008 72.4034 2.38218 72.9788 2.38218C73.6111 2.38218 74.0536 2.59315 74.3053 3.01606H74.3253V0.335938H75.3731V5.88933C75.3731 6.34394 75.3851 6.76289 75.4101 7.14718ZM74.3253 5.17819V4.39971C74.3253 4.26501 74.3153 4.15606 74.2963 4.07286C74.2374 3.82327 74.1105 3.6133 73.9177 3.44393C73.723 3.27457 73.4882 3.18939 73.2175 3.18939C72.8269 3.18939 72.5213 3.34291 72.2965 3.65093C72.0738 3.95896 71.9609 4.35217 71.9609 4.83253C71.9609 5.29407 72.0678 5.66846 72.2825 5.95668C72.5093 6.26371 72.8149 6.41723 73.1975 6.41723C73.5412 6.41723 73.8159 6.28946 74.0246 6.03294C74.2264 5.79622 74.3253 5.51098 74.3253 5.17819Z" fill="white"/>
<path d="M84.3634 4.77373C84.3634 5.4918 84.1566 6.08012 83.7431 6.54166C83.3096 7.01608 82.7362 7.2528 82.018 7.2528C81.3277 7.2528 80.7773 7.02599 80.3658 6.57039C79.9562 6.11578 79.7515 5.54231 79.7515 4.85099C79.7515 4.12796 79.9622 3.53469 80.3858 3.07414C80.8093 2.61358 81.3787 2.38281 82.0969 2.38281C82.7871 2.38281 83.3435 2.60962 83.7631 3.06423C84.1626 3.50597 84.3634 4.07646 84.3634 4.77373ZM83.2786 4.80741C83.2786 4.37657 83.1847 4.00713 82.9979 3.69911C82.7771 3.3267 82.4655 3.1405 82.0579 3.1405C81.6384 3.1405 81.3187 3.3267 81.098 3.69911C80.9102 4.00713 80.8173 4.38251 80.8173 4.82622C80.8173 5.25707 80.9112 5.6265 81.098 5.93453C81.3247 6.30693 81.6404 6.49313 82.0479 6.49313C82.4475 6.49313 82.7622 6.30396 82.9879 5.92462C83.1807 5.61065 83.2786 5.23825 83.2786 4.80741Z" fill="white"/>
<path d="M89.9922 7.14686H88.9463V4.47268C88.9463 3.64863 88.6307 3.23661 87.9964 3.23661C87.6857 3.23661 87.435 3.34952 87.2412 3.57633C87.0474 3.80314 86.9505 4.07056 86.9505 4.37661V7.14587H85.9027V3.81206C85.9027 3.40202 85.8907 2.95731 85.8657 2.47596H86.7847L86.8337 3.20591H86.8626C86.9855 2.9791 87.1673 2.79191 87.405 2.64235C87.6897 2.46803 88.0064 2.37988 88.355 2.37988C88.7935 2.37988 89.1591 2.52053 89.4498 2.8028C89.8124 3.14846 89.9922 3.66448 89.9922 4.34987V7.14686Z" fill="white"/>
<path d="M97.0373 3.2557H95.8845V5.5238C95.8845 6.10024 96.0893 6.38846 96.4949 6.38846C96.6827 6.38846 96.8385 6.37261 96.9614 6.33992L96.9883 7.12732C96.7816 7.20458 96.5099 7.2432 96.1752 7.2432C95.7617 7.2432 95.44 7.11841 95.2073 6.86882C94.9735 6.61923 94.8577 6.19928 94.8577 5.60997V3.2557H94.1694V2.4782H94.8577V1.62247L95.8835 1.31543V2.47721H97.0363V3.2557H97.0373Z" fill="white"/>
<path d="M102.58 7.14719H101.532V4.49281C101.532 3.65589 101.216 3.23693 100.584 3.23693C100.098 3.23693 99.7668 3.47959 99.585 3.96491C99.5541 4.06692 99.5361 4.19172 99.5361 4.3383V7.1462H98.4902V0.335938H99.5361V3.14977H99.5561C99.8857 2.63772 100.358 2.38218 100.971 2.38218C101.404 2.38218 101.763 2.52283 102.047 2.8051C102.402 3.15671 102.58 3.67966 102.58 4.37099V7.14719Z" fill="white"/>
</svg>
