<svg width="110" height="29" viewBox="0 0 110 29" fill="none" xmlns="http://www.w3.org/2000/svg">
<path d="M17.3171 13.4372C17.2881 10.245 19.9532 8.69201 20.0751 8.61971C18.5657 6.43777 16.2263 6.13965 15.4042 6.11588C13.4393 5.91086 11.5334 7.28163 10.5325 7.28163C9.51166 7.28163 7.97035 6.13569 6.30917 6.16936C4.17152 6.20205 2.17171 7.4292 1.07492 9.3348C-1.1886 13.2203 0.499548 18.9302 2.66817 22.0709C3.75298 23.609 5.02059 25.3264 6.67977 25.266C8.30298 25.1996 8.90932 24.2399 10.8682 24.2399C12.809 24.2399 13.3784 25.266 15.0706 25.2274C16.8126 25.1996 17.9094 23.6823 18.9563 22.1303C20.2099 20.3673 20.7134 18.6311 20.7333 18.5419C20.6924 18.5281 17.3501 17.2633 17.3171 13.4372Z" fill="#1E222A"/>
<path d="M14.1206 4.04978C14.9936 2.96723 15.591 1.49445 15.4252 -0.00012207C14.1615 0.0553425 12.5813 0.866512 11.6713 1.92529C10.8662 2.85828 10.1469 4.38752 10.3327 5.82564C11.7522 5.93063 13.2096 5.11549 14.1206 4.04978Z" fill="#1E222A"/>
<path d="M40.8081 25.0452H38.5396L37.297 21.1736H32.9777L31.794 25.0452H29.5854L33.8648 11.8644H36.5079L40.8081 25.0452ZM36.9224 19.5493L35.7986 16.1075C35.6798 15.7559 35.457 14.9279 35.1284 13.6245H35.0884C34.9576 14.185 34.7468 15.013 34.4571 16.1075L33.3533 19.5493H36.9224V19.5493Z" fill="#1E222A"/>
<path d="M51.8132 20.1761C51.8132 21.7925 51.3727 23.0702 50.4917 24.0081C49.7025 24.8431 48.7226 25.2601 47.5529 25.2601C46.2903 25.2601 45.3833 24.8104 44.8309 23.9111H44.7909V28.9177H42.6613V18.6697C42.6613 17.6535 42.6343 16.6106 42.5824 15.5409H44.4553L44.5742 17.0473H44.6141C45.3243 15.9123 46.4022 15.3458 47.8486 15.3458C48.9793 15.3458 49.9233 15.7885 50.6785 16.6749C51.4356 17.5624 51.8132 18.7291 51.8132 20.1761ZM49.6436 20.2534C49.6436 19.3283 49.4338 18.5657 49.0123 17.9655C48.5518 17.3395 47.9335 17.0265 47.1583 17.0265C46.6329 17.0265 46.1554 17.2009 45.7289 17.5445C45.3014 17.8912 45.0217 18.3438 44.8908 18.9044C44.8249 19.1659 44.7919 19.3798 44.7919 19.5482V21.1329C44.7919 21.8242 45.0057 22.4076 45.4332 22.884C45.8608 23.3604 46.4161 23.5981 47.0994 23.5981C47.9015 23.5981 48.5258 23.2911 48.9723 22.679C49.4199 22.0659 49.6436 21.2577 49.6436 20.2534Z" fill="#1E222A"/>
<path d="M62.8379 20.1761C62.8379 21.7925 62.3973 23.0702 61.5153 24.0081C60.7272 24.8431 59.7472 25.2601 58.5775 25.2601C57.3149 25.2601 56.4079 24.8104 55.8565 23.9111H55.8166V28.9177H53.6869V18.6697C53.6869 17.6535 53.6599 16.6106 53.608 15.5409H55.4809L55.5998 17.0473H55.6397C56.349 15.9123 57.4268 15.3458 58.8742 15.3458C60.004 15.3458 60.9479 15.7885 61.7051 16.6749C62.4593 17.5624 62.8379 18.7291 62.8379 20.1761ZM60.6682 20.2534C60.6682 19.3283 60.4575 18.5657 60.0359 17.9655C59.5754 17.3395 58.9591 17.0265 58.183 17.0265C57.6565 17.0265 57.1801 17.2009 56.7525 17.5445C56.325 17.8912 56.0463 18.3438 55.9154 18.9044C55.8505 19.1659 55.8166 19.3798 55.8166 19.5482V21.1329C55.8166 21.8242 56.0303 22.4076 56.4559 22.884C56.8834 23.3594 57.4388 23.5981 58.124 23.5981C58.9261 23.5981 59.5505 23.2911 59.997 22.679C60.4445 22.0659 60.6682 21.2577 60.6682 20.2534Z" fill="#1E222A"/>
<path d="M75.1643 21.3488C75.1643 22.47 74.7717 23.3822 73.9836 24.0864C73.1176 24.856 71.9119 25.2403 70.3626 25.2403C68.9322 25.2403 67.7854 24.9669 66.9174 24.4192L67.4108 22.6592C68.3458 23.2198 69.3717 23.5011 70.4894 23.5011C71.2916 23.5011 71.9159 23.3208 72.3644 22.9623C72.8109 22.6037 73.0337 22.1224 73.0337 21.5222C73.0337 20.9873 72.8499 20.5367 72.4813 20.1712C72.1147 19.8057 71.5023 19.466 70.6473 19.152C68.3198 18.2914 67.1571 17.0305 67.1571 15.3725C67.1571 14.289 67.5647 13.4006 68.3808 12.7092C69.1939 12.0169 70.2787 11.6713 71.6352 11.6713C72.8449 11.6713 73.8498 11.8802 74.6519 12.2972L74.1195 14.0186C73.3703 13.6145 72.5232 13.4125 71.5753 13.4125C70.8261 13.4125 70.2407 13.5957 69.8212 13.9602C69.4666 14.286 69.2888 14.6832 69.2888 15.1536C69.2888 15.6746 69.4915 16.1055 69.8991 16.4442C70.2537 16.7572 70.898 17.0959 71.833 17.4614C72.9767 17.918 73.8168 18.4518 74.3572 19.0639C74.8956 19.674 75.1643 20.4376 75.1643 21.3488Z" fill="#1E222A"/>
<path d="M82.2059 17.1256H79.8584V21.7401C79.8584 22.9138 80.272 23.5001 81.1011 23.5001C81.4817 23.5001 81.7973 23.4674 82.047 23.402L82.106 25.0056C81.6864 25.1611 81.134 25.2393 80.4498 25.2393C79.6087 25.2393 78.9514 24.9848 78.477 24.4767C78.0045 23.9676 77.7667 23.1138 77.7667 21.9144V17.1237H76.3683V15.5389H77.7667V13.7987L79.8584 13.1728V15.5389H82.2059V17.1256Z" fill="#1E222A"/>
<path d="M92.7973 20.2148C92.7973 21.6757 92.3757 22.8751 91.5346 23.8131C90.6526 24.7788 89.4819 25.2601 88.0225 25.2601C86.616 25.2601 85.4963 24.7976 84.6612 23.8725C83.8261 22.9474 83.4086 21.7797 83.4086 20.3723C83.4086 18.8995 83.8381 17.6932 84.7001 16.7552C85.5602 15.8163 86.7209 15.3468 88.1803 15.3468C89.5868 15.3468 90.7185 15.8093 91.5726 16.7354C92.3897 17.6337 92.7973 18.7935 92.7973 20.2148ZM90.5877 20.2831C90.5877 19.4066 90.3989 18.6549 90.0163 18.0279C89.5698 17.2692 88.9315 16.8909 88.1044 16.8909C87.2483 16.8909 86.5981 17.2702 86.1516 18.0279C85.769 18.6559 85.5802 19.4195 85.5802 20.3228C85.5802 21.1993 85.769 21.951 86.1516 22.577C86.612 23.3357 87.2553 23.714 88.0854 23.714C88.8985 23.714 89.5368 23.3278 89.9973 22.5572C90.3899 21.9184 90.5877 21.1587 90.5877 20.2831Z" fill="#1E222A"/>
<path d="M99.7195 17.398C99.5088 17.3593 99.284 17.3395 99.0483 17.3395C98.2991 17.3395 97.7197 17.6198 97.3122 18.1814C96.9576 18.6766 96.7798 19.3026 96.7798 20.0583V25.0451H94.6511L94.6711 18.534C94.6711 17.4386 94.6441 16.4412 94.5912 15.5419H96.4461L96.524 17.3603H96.583C96.8077 16.7353 97.1623 16.2322 97.6478 15.8548C98.1223 15.5151 98.6347 15.3458 99.1871 15.3458C99.3839 15.3458 99.5617 15.3596 99.7195 15.3844V17.398Z" fill="#1E222A"/>
<path d="M109.244 19.8434C109.244 20.2217 109.219 20.5406 109.166 20.8011H102.777C102.802 21.74 103.111 22.4581 103.704 22.9533C104.242 23.3961 104.939 23.6179 105.794 23.6179C106.74 23.6179 107.603 23.4684 108.379 23.1683L108.712 24.6341C107.805 25.0263 106.735 25.2214 105.499 25.2214C104.013 25.2214 102.846 24.7876 101.997 23.921C101.15 23.0544 100.725 21.8906 100.725 20.4307C100.725 18.9975 101.12 17.804 101.91 16.8522C102.737 15.836 103.855 15.3279 105.261 15.3279C106.643 15.3279 107.689 15.836 108.399 16.8522C108.961 17.6594 109.244 18.6578 109.244 19.8434ZM107.213 19.2956C107.227 18.6697 107.088 18.1289 106.8 17.6723C106.431 17.085 105.865 16.7918 105.102 16.7918C104.406 16.7918 103.84 17.078 103.407 17.6525C103.053 18.1091 102.842 18.6568 102.777 19.2946H107.213V19.2956Z" fill="#1E222A"/>
<path d="M36.2182 3.75544C36.2182 4.92118 35.8656 5.79871 35.1614 6.38802C34.5091 6.93177 33.5821 7.20415 32.3814 7.20415C31.7861 7.20415 31.2766 7.17839 30.8501 7.12689V0.75738C31.4065 0.668241 32.0058 0.622681 32.6531 0.622681C33.7969 0.622681 34.6589 0.8693 35.2403 1.36254C35.8916 1.92016 36.2182 2.71746 36.2182 3.75544ZM35.1144 3.78416C35.1144 3.02846 34.9126 2.44905 34.5091 2.04495C34.1055 1.64184 33.5162 1.43979 32.74 1.43979C32.4104 1.43979 32.1297 1.46158 31.897 1.50714V6.3494C32.0258 6.36921 32.2616 6.37812 32.6042 6.37812C33.4053 6.37812 34.0236 6.15725 34.4591 5.71552C34.8947 5.27378 35.1144 4.63 35.1144 3.78416Z" fill="#1E222A"/>
<path d="M42.0709 4.77385C42.0709 5.49192 41.8641 6.08024 41.4506 6.54179C41.0171 7.01621 40.4427 7.25292 39.7255 7.25292C39.0343 7.25292 38.4839 7.02611 38.0733 6.57051C37.6638 6.1159 37.459 5.54243 37.459 4.85111C37.459 4.12809 37.6698 3.53481 38.0933 3.07426C38.5168 2.61371 39.0862 2.38293 39.8034 2.38293C40.4946 2.38293 41.05 2.60974 41.4706 3.06436C41.8701 3.50609 42.0709 4.07658 42.0709 4.77385ZM40.9851 4.80753C40.9851 4.37669 40.8912 4.00725 40.7044 3.69923C40.4847 3.32682 40.172 3.14062 39.7655 3.14062C39.3449 3.14062 39.0253 3.32682 38.8055 3.69923C38.6177 4.00725 38.5248 4.38263 38.5248 4.82635C38.5248 5.25719 38.6187 5.62662 38.8055 5.93465C39.0323 6.30705 39.3479 6.49325 39.7555 6.49325C40.155 6.49325 40.4687 6.30408 40.6944 5.92474C40.8882 5.61077 40.9851 5.23837 40.9851 4.80753Z" fill="#1E222A"/>
<path d="M49.9182 2.47791L48.4448 7.14683H47.4859L46.8756 5.11941C46.7207 4.61329 46.5949 4.11015 46.497 3.61097H46.478C46.3871 4.12401 46.2612 4.62617 46.0994 5.11941L45.4511 7.14683H44.4812L43.0957 2.47791H44.1715L44.7039 4.69748C44.8328 5.22241 44.9387 5.72258 45.0236 6.19601H45.0426C45.1205 5.80578 45.2493 5.30858 45.4311 4.70738L46.0994 2.4789H46.9525L47.5928 4.65984C47.7476 5.19171 47.8735 5.70376 47.9704 6.197H47.9993C48.0703 5.71664 48.1771 5.20458 48.319 4.65984L48.8903 2.4789H49.9182V2.47791Z" fill="#1E222A"/>
<path d="M55.3452 7.14674H54.2984V4.47256C54.2984 3.64851 53.9827 3.23649 53.3494 3.23649C53.0388 3.23649 52.7881 3.3494 52.5933 3.57621C52.4005 3.80302 52.3026 4.07044 52.3026 4.37648V7.14575H51.2557V3.81194C51.2557 3.40189 51.2427 2.95719 51.2178 2.47583H52.1378L52.1867 3.20579H52.2157C52.3375 2.97898 52.5193 2.79178 52.7581 2.64223C53.0418 2.46791 53.3594 2.37976 53.707 2.37976C54.1466 2.37976 54.5122 2.5204 54.8028 2.80268C55.1644 3.14834 55.3452 3.66436 55.3452 4.34974V7.14674V7.14674Z" fill="#1E222A"/>
<path d="M58.2319 7.14682H57.186V0.335571H58.2319V7.14682Z" fill="#1E222A"/>
<path d="M64.3956 4.77385C64.3956 5.49192 64.1889 6.08024 63.7753 6.54179C63.3418 7.01621 62.7664 7.25292 62.0502 7.25292C61.358 7.25292 60.8076 7.02611 60.398 6.57051C59.9885 6.1159 59.7837 5.54243 59.7837 4.85111C59.7837 4.12809 59.9945 3.53481 60.418 3.07426C60.8415 2.61371 61.4109 2.38293 62.1271 2.38293C62.8194 2.38293 63.3737 2.60974 63.7953 3.06436C64.1948 3.50609 64.3956 4.07658 64.3956 4.77385ZM63.3088 4.80753C63.3088 4.37669 63.2149 4.00725 63.0281 3.69923C62.8094 3.32682 62.4957 3.14062 62.0902 3.14062C61.6686 3.14062 61.349 3.32682 61.1302 3.69923C60.9424 4.00725 60.8495 4.38263 60.8495 4.82635C60.8495 5.25719 60.9434 5.62662 61.1302 5.93465C61.357 6.30705 61.6726 6.49325 62.0802 6.49325C62.4797 6.49325 62.7924 6.30408 63.0181 5.92474C63.2129 5.61077 63.3088 5.23837 63.3088 4.80753Z" fill="#1E222A"/>
<path d="M69.4615 7.14694H68.5215L68.4436 6.60914H68.4146C68.093 7.038 67.6345 7.25292 67.0391 7.25292C66.5946 7.25292 66.235 7.11129 65.9643 6.83C65.7186 6.57447 65.5957 6.25654 65.5957 5.87918C65.5957 5.30869 65.8354 4.87389 66.3179 4.57279C66.7994 4.2717 67.4766 4.12413 68.3487 4.13106V4.0439C68.3487 3.42884 68.023 3.1218 67.3708 3.1218C66.9063 3.1218 66.4967 3.23768 66.1431 3.46747L65.9303 2.78604C66.3679 2.51763 66.9083 2.38293 67.5456 2.38293C68.7762 2.38293 69.3935 3.02672 69.3935 4.31429V6.03369C69.3935 6.50019 69.4165 6.8716 69.4615 7.14694ZM68.3747 5.54243V4.82239C67.2199 4.80258 66.6426 5.11655 66.6426 5.7633C66.6426 6.00695 66.7085 6.18919 66.8433 6.31101C66.9782 6.43284 67.15 6.49325 67.3548 6.49325C67.5845 6.49325 67.7993 6.42095 67.9951 6.27734C68.1919 6.13274 68.3127 5.9495 68.3577 5.72467C68.3687 5.67416 68.3747 5.61275 68.3747 5.54243Z" fill="#1E222A"/>
<path d="M75.4101 7.14682H74.4811L74.4322 6.39705H74.4032C74.1065 6.96755 73.6011 7.25279 72.8909 7.25279C72.3235 7.25279 71.851 7.03193 71.4764 6.59019C71.1018 6.14846 70.915 5.57499 70.915 4.87079C70.915 4.11508 71.1178 3.50299 71.5254 3.03551C71.9199 2.59971 72.4034 2.38182 72.9788 2.38182C73.6111 2.38182 74.0536 2.59278 74.3053 3.0157H74.3253V0.335571H75.3731V5.88896C75.3731 6.34357 75.3851 6.76253 75.4101 7.14682ZM74.3253 5.17782V4.39934C74.3253 4.26464 74.3153 4.15569 74.2963 4.0725C74.2374 3.82291 74.1105 3.61293 73.9177 3.44357C73.723 3.2742 73.4882 3.18902 73.2175 3.18902C72.8269 3.18902 72.5213 3.34254 72.2965 3.65057C72.0738 3.9586 71.9609 4.3518 71.9609 4.83216C71.9609 5.29371 72.0678 5.66809 72.2825 5.95631C72.5093 6.26335 72.8149 6.41686 73.1975 6.41686C73.5412 6.41686 73.8159 6.2891 74.0246 6.03257C74.2264 5.79586 74.3253 5.51061 74.3253 5.17782Z" fill="#1E222A"/>
<path d="M84.3634 4.77385C84.3634 5.49192 84.1566 6.08024 83.7431 6.54179C83.3096 7.01621 82.7362 7.25292 82.018 7.25292C81.3277 7.25292 80.7773 7.02611 80.3658 6.57051C79.9562 6.1159 79.7515 5.54243 79.7515 4.85111C79.7515 4.12809 79.9622 3.53481 80.3858 3.07426C80.8093 2.61371 81.3787 2.38293 82.0969 2.38293C82.7871 2.38293 83.3435 2.60974 83.7631 3.06436C84.1626 3.50609 84.3634 4.07658 84.3634 4.77385ZM83.2786 4.80753C83.2786 4.37669 83.1847 4.00725 82.9979 3.69923C82.7771 3.32682 82.4655 3.14062 82.0579 3.14062C81.6384 3.14062 81.3187 3.32682 81.098 3.69923C80.9102 4.00725 80.8173 4.38263 80.8173 4.82635C80.8173 5.25719 80.9112 5.62662 81.098 5.93465C81.3247 6.30705 81.6404 6.49325 82.0479 6.49325C82.4475 6.49325 82.7622 6.30408 82.9879 5.92474C83.1807 5.61077 83.2786 5.23837 83.2786 4.80753Z" fill="#1E222A"/>
<path d="M89.9922 7.14674H88.9463V4.47256C88.9463 3.64851 88.6307 3.23649 87.9964 3.23649C87.6857 3.23649 87.435 3.3494 87.2412 3.57621C87.0474 3.80302 86.9505 4.07044 86.9505 4.37648V7.14575H85.9027V3.81194C85.9027 3.40189 85.8907 2.95719 85.8657 2.47583H86.7847L86.8337 3.20579H86.8626C86.9855 2.97898 87.1673 2.79178 87.405 2.64223C87.6897 2.46791 88.0064 2.37976 88.355 2.37976C88.7935 2.37976 89.1591 2.5204 89.4498 2.80268C89.8124 3.14834 89.9922 3.66436 89.9922 4.34974V7.14674V7.14674Z" fill="#1E222A"/>
<path d="M97.0373 3.25533H95.8845V5.52344C95.8845 6.09987 96.0893 6.38809 96.4949 6.38809C96.6827 6.38809 96.8385 6.37224 96.9614 6.33956L96.9883 7.12696C96.7816 7.20421 96.5099 7.24284 96.1752 7.24284C95.7617 7.24284 95.44 7.11804 95.2073 6.86845C94.9735 6.61886 94.8577 6.19892 94.8577 5.6096V3.25533H94.1694V2.47784H94.8577V1.6221L95.8835 1.31506V2.47685H97.0363V3.25533H97.0373Z" fill="#1E222A"/>
<path d="M102.58 7.14682H101.532V4.49244C101.532 3.65552 101.216 3.23657 100.584 3.23657C100.098 3.23657 99.7668 3.47922 99.585 3.96454C99.5541 4.06655 99.5361 4.19135 99.5361 4.33793V7.14583H98.4902V0.335571H99.5361V3.14941H99.5561C99.8857 2.63735 100.358 2.38182 100.971 2.38182C101.404 2.38182 101.763 2.52246 102.047 2.80474C102.402 3.15634 102.58 3.67929 102.58 4.37062V7.14682V7.14682Z" fill="#1E222A"/>
</svg>
