<svg width="111" height="26" viewBox="0 0 111 26" fill="none" xmlns="http://www.w3.org/2000/svg">
<path d="M59.585 6C58.727 6 58.0036 5.70613 57.4316 5.12765C56.8643 4.56537 56.5476 3.7902 56.5617 2.99884C56.5617 2.15426 56.8549 1.43926 57.4316 0.872349C58.0013 0.293868 58.7246 0 59.5826 0C60.4312 0 61.1545 0.293868 61.736 0.872349C62.3128 1.45777 62.6059 2.17277 62.6059 2.99884C62.5964 3.84574 62.3033 4.56074 61.736 5.12534C61.1664 5.70845 60.443 6 59.585 6ZM34.054 6C33.2148 6 32.4868 5.71076 31.8911 5.13922C31.3002 4.57 31 3.85037 31 3.00116C31 2.15195 31.3002 1.43232 31.8911 0.863093C32.475 0.291555 33.203 0.00231406 34.054 0.00231406C34.47 0.00231406 34.8742 0.0833015 35.2619 0.24759C35.6424 0.407251 35.9521 0.624759 36.1814 0.89086L36.2381 0.957964L35.5975 1.57347L35.5313 1.49711C35.1697 1.07597 34.6851 0.870035 34.0445 0.870035C33.4725 0.870035 32.9737 1.06903 32.5624 1.4624C32.1488 1.85808 31.9384 2.3764 31.9384 3.00347C31.9384 3.63054 32.1488 4.14886 32.5624 4.54454C32.9737 4.93791 33.4725 5.13691 34.0445 5.13691C34.6544 5.13691 35.1673 4.93791 35.5668 4.54454C35.8032 4.31315 35.9497 3.9892 36.0017 3.57964H33.9476V2.71423H36.8834L36.8952 2.7929C36.9165 2.93868 36.9378 3.08909 36.9378 3.22792C36.9378 4.02622 36.6919 4.67181 36.205 5.14848C35.6519 5.71307 34.9286 6 34.054 6ZM68 5.87736H67.0947L64.322 1.53413L64.3456 2.31624V5.87505H63.4403V0.124952H64.4733L64.5016 0.168917L67.1089 4.25993L67.0852 3.48014V0.124952H68V5.87736ZM52.7821 5.87736H51.8649V0.990359H50.2741V0.124952H54.3705V0.990359H52.7797V5.87736H52.7821ZM49.5272 5.87736H48.6124V0.124952H49.5272V5.87736ZM44.386 5.87736H43.4712V0.990359H41.8804V0.124952H45.9768V0.990359H44.386V5.87736ZM41.3013 5.86811H37.7935V0.124952H41.3013V0.990359H38.7106V2.56845H41.0484V3.4246H38.7106V5.0027H41.3013V5.86811ZM58.1029 4.53297C58.5118 4.93328 59.0082 5.13459 59.585 5.13459C60.1783 5.13459 60.6629 4.93791 61.0671 4.53297C61.4689 4.13961 61.6722 3.6236 61.6722 3.00116C61.6722 2.37871 61.4689 1.86039 61.0694 1.46934C60.6605 1.06903 60.1618 0.867721 59.5874 0.867721C58.9941 0.867721 58.5095 1.0644 58.1076 1.46934C57.7058 1.86271 57.5025 2.37871 57.5025 3.00116C57.5025 3.6236 57.7034 4.14192 58.1029 4.53297Z" fill="white"/>
<path fill-rule="evenodd" clip-rule="evenodd" d="M55.871 13.7135C53.6185 13.7135 51.7927 15.4979 51.7927 17.9592C51.7927 20.398 53.6305 22.2048 55.871 22.2048C58.1234 22.2048 59.9492 20.408 59.9492 17.9592C59.9492 15.4979 58.1234 13.7135 55.871 13.7135ZM55.871 20.5225C54.6387 20.5225 53.578 19.4573 53.578 17.9492C53.578 16.4187 54.6411 15.3759 55.871 15.3759C57.1033 15.3759 58.164 16.4187 58.164 17.9492C58.1663 19.4673 57.1033 20.5225 55.871 20.5225ZM46.9732 13.7135C44.7208 13.7135 42.895 15.4979 42.895 17.9592C42.895 20.398 44.7327 22.2048 46.9732 22.2048C49.2257 22.2048 51.0515 20.408 51.0515 17.9592C51.0515 15.4979 49.2233 13.7135 46.9732 13.7135ZM46.9732 20.5225C45.7409 20.5225 44.6803 19.4573 44.6803 17.9492C44.6803 16.4187 45.7433 15.3759 46.9732 15.3759C48.2055 15.3759 49.2662 16.4187 49.2662 17.9492C49.2662 19.4673 48.2055 20.5225 46.9732 20.5225ZM36.3855 15.0101V16.8069H40.5162C40.3899 17.8148 40.0705 18.5589 39.5818 19.0691C38.9764 19.7012 38.0421 20.3881 36.3951 20.3881C33.8566 20.3881 31.8711 18.2478 31.8711 15.5974C31.8711 12.947 33.8566 10.8068 36.3951 10.8068C37.7656 10.8068 38.7643 11.3717 39.5056 12.0934L40.726 10.8192C39.6963 9.7889 38.3257 9 36.4046 9C32.9222 9 30 11.9615 30 15.5875C30 19.2234 32.9198 22.1749 36.4046 22.1749C38.2852 22.1749 39.6963 21.5329 40.8118 20.3234C41.9487 19.1363 42.3086 17.4614 42.3086 16.1101C42.3086 15.6895 42.2776 15.3112 42.2133 14.9902H36.3831C36.3855 14.9877 36.3855 15.0101 36.3855 15.0101ZM79.6921 16.4087C79.3513 15.4556 78.3216 13.7036 76.2098 13.7036C74.117 13.7036 72.377 15.4232 72.377 17.9492C72.377 20.3333 74.098 22.1948 76.4124 22.1948C78.2715 22.1948 79.3537 21.0078 79.7994 20.3109L78.4193 19.3453C77.9617 20.0546 77.3253 20.52 76.4219 20.52C75.509 20.52 74.8702 20.087 74.446 19.2333L79.8828 16.8816C79.8828 16.8841 79.6921 16.4087 79.6921 16.4087ZM74.148 17.8273C74.1051 16.1872 75.3684 15.3535 76.2718 15.3535C76.9844 15.3535 77.5779 15.7194 77.7805 16.2519L74.148 17.8273ZM69.7313 21.941H71.5166V9.46787H69.7313V21.941ZM66.7995 14.6567H66.7352C66.3324 14.1565 65.5673 13.7036 64.59 13.7036C62.5616 13.7036 60.6929 15.5676 60.6929 17.9616C60.6929 20.3458 62.5521 22.1874 64.59 22.1874C65.5553 22.1874 66.3324 21.732 66.7352 21.2218H66.7995V21.8315C66.7995 23.4516 65.9701 24.3251 64.6329 24.3251C63.5389 24.3251 62.8595 23.5039 62.5831 22.817L61.0314 23.4939C61.4771 24.6138 62.6665 26 64.6305 26C66.7233 26 68.4966 24.7134 68.4966 21.5752V13.9574H66.8091V14.6567C66.8115 14.6567 66.7995 14.6567 66.7995 14.6567ZM64.7497 20.5225C63.5174 20.5225 62.4877 19.4474 62.4877 17.9616C62.4877 16.4635 63.5174 15.3784 64.7497 15.3784C65.9701 15.3784 66.9163 16.4759 66.9163 17.9616C66.9283 19.4474 65.9725 20.5225 64.7497 20.5225ZM88.0512 9.46787H83.7823V21.941H85.5676V17.2175H88.0536C90.0296 17.2175 91.9722 15.7219 91.9722 13.3477C91.9722 10.9735 90.0367 9.46787 88.0512 9.46787ZM88.1037 15.4755H85.5652V11.195H88.1037C89.4408 11.195 90.1964 12.3472 90.1964 13.3352C90.1964 14.3133 89.4313 15.4755 88.1037 15.4755ZM99.1276 13.6911C97.8309 13.6911 96.4938 14.2909 95.9408 15.5974L97.5234 16.2843C97.8643 15.5974 98.4888 15.3635 99.149 15.3635C100.074 15.3635 101.008 15.9409 101.03 16.9712V17.1031C100.71 16.9139 100.009 16.6252 99.1705 16.6252C97.4615 16.6252 95.7286 17.6008 95.7286 19.43C95.7286 21.1048 97.1302 22.1799 98.6914 22.1799C99.8903 22.1799 100.551 21.615 100.963 20.9605H101.027V21.9261H102.748V17.1479C102.748 14.923 101.165 13.6911 99.1276 13.6911ZM98.9035 20.5225C98.3195 20.5225 97.502 20.2238 97.502 19.4573C97.502 18.4917 98.5221 18.1259 99.3921 18.1259C100.179 18.1259 100.551 18.3026 101.018 18.5465C100.889 19.6664 99.9833 20.5125 98.9035 20.5225ZM109.026 13.9574L106.977 19.3677H106.912L104.788 13.9574H102.867L106.054 21.5204L104.238 25.7238H106.097L111 13.9574H109.026ZM92.9566 21.941H94.7418V9.46787H92.9566V21.941Z" fill="white"/>
<path fill-rule="evenodd" clip-rule="evenodd" d="M0.458735 1.0618C0.167952 1.34793 0 1.78513 0 2.35739V22.6541C0 23.2263 0.167952 23.6635 0.468762 23.9382L0.546471 24L13 12.6282V12.3741L0.536444 1L0.458735 1.0618Z" fill="url(#paint0_linear_86_6)"/>
<path fill-rule="evenodd" clip-rule="evenodd" d="M16.0675 17L12 12.6522V12.3478L16.0675 8L16.1559 8.05773L20.9672 10.9808C22.3443 11.8099 22.3443 13.1796 20.9672 14.0192L16.1559 16.9423L16.0675 17Z" fill="url(#paint1_linear_86_6)"/>
<path fill-rule="evenodd" clip-rule="evenodd" d="M17 16.2668L12.9522 12L1 24.5988C1.43754 25.0927 2.17155 25.1482 2.99163 24.6668L17 16.2668Z" fill="url(#paint2_linear_86_6)"/>
<path fill-rule="evenodd" clip-rule="evenodd" d="M17 8.05912L2.99163 0.312373C2.17155 -0.143866 1.43515 -0.0810167 1 0.375222L12.9522 12L17 8.05912Z" fill="url(#paint3_linear_86_6)"/>
<path opacity="0.12" fill-rule="evenodd" clip-rule="evenodd" d="M21.1429 13.5387L17 16.8937L17.0745 17L21.1325 13.71C21.7143 13.2374 22 12.6172 22 12C21.9648 12.567 21.6687 13.1045 21.1429 13.5387Z" fill="black"/>
<path opacity="0.25" fill-rule="evenodd" clip-rule="evenodd" d="M2.41539 0.451295L21.0039 10.7877C21.6077 11.1204 21.9477 11.5556 22 12C22 11.5137 21.6719 11.025 21.0039 10.6527L2.41539 0.316331C1.08169 -0.430623 0 0.193003 0 1.68458V1.81955C0 0.325639 1.08169 -0.286351 2.41539 0.451295Z" fill="#1E222A"/>
<path opacity="0.2" fill-rule="evenodd" clip-rule="evenodd" d="M16.9044 17L2.99163 24.5576C2.21458 24.9851 1.52122 24.9554 1.07412 24.5667L1 24.6376L1.07412 24.6993C1.52122 25.0857 2.21458 25.1177 2.99163 24.6902L17 17.0823L16.9044 17Z" fill="black"/>
<defs>
<linearGradient id="paint0_linear_86_6" x1="11.8829" y1="2.1384" x2="-7.80536" y2="7.88339" gradientUnits="userSpaceOnUse">
<stop stop-color="#00A0FF"/>
<stop offset="0.00657" stop-color="#00A1FF"/>
<stop offset="0.2601" stop-color="#00BEFF"/>
<stop offset="0.5122" stop-color="#00D2FF"/>
<stop offset="0.7604" stop-color="#00DFFF"/>
<stop offset="1" stop-color="#00E3FF"/>
</linearGradient>
<linearGradient id="paint1_linear_86_6" x1="22.763" y1="12.5" x2="-1.05517" y2="12.5" gradientUnits="userSpaceOnUse">
<stop stop-color="#FFE000"/>
<stop offset="0.4087" stop-color="#FFBD00"/>
<stop offset="0.7754" stop-color="#FFA500"/>
<stop offset="1" stop-color="#FF9C00"/>
</linearGradient>
<linearGradient id="paint2_linear_86_6" x1="14.799" y1="14.3217" x2="-1.69463" y2="40.6572" gradientUnits="userSpaceOnUse">
<stop stop-color="#FF3A44"/>
<stop offset="1" stop-color="#C31162"/>
</linearGradient>
<linearGradient id="paint3_linear_86_6" x1="-2.00969" y1="-6.50166" x2="4.53849" y2="4.8306" gradientUnits="userSpaceOnUse">
<stop stop-color="#32A071"/>
<stop offset="0.0685" stop-color="#2DA771"/>
<stop offset="0.4762" stop-color="#15CF74"/>
<stop offset="0.8009" stop-color="#06E775"/>
<stop offset="1" stop-color="#00F076"/>
</linearGradient>
</defs>
</svg>
