<svg width="111" height="26" viewBox="0 0 111 26" fill="none" xmlns="http://www.w3.org/2000/svg">
<path d="M59.585 5.99988C58.727 5.99988 58.0036 5.70601 57.4316 5.12753C56.8643 4.56525 56.5476 3.79008 56.5617 2.99872C56.5617 2.15414 56.8549 1.43914 57.4316 0.872227C58.0013 0.293746 58.7246 -0.00012207 59.5826 -0.00012207C60.4312 -0.00012207 61.1545 0.293746 61.736 0.872227C62.3128 1.45765 62.6059 2.17265 62.6059 2.99872C62.5964 3.84562 62.3033 4.56062 61.736 5.12522C61.1664 5.70832 60.443 5.99988 59.585 5.99988ZM34.054 5.99988C33.2148 5.99988 32.4868 5.71064 31.8911 5.1391C31.3002 4.56987 31 3.85024 31 3.00104C31 2.15183 31.3002 1.4322 31.8911 0.862971C32.475 0.291433 33.203 0.00219199 34.054 0.00219199C34.47 0.00219199 34.8742 0.0831794 35.2619 0.247468C35.6424 0.407129 35.9521 0.624637 36.1814 0.890738L36.2381 0.957842L35.5975 1.57334L35.5313 1.49699C35.1697 1.07585 34.6851 0.869913 34.0445 0.869913C33.4725 0.869913 32.9737 1.06891 32.5624 1.46228C32.1488 1.85796 31.9384 2.37628 31.9384 3.00335C31.9384 3.63042 32.1488 4.14874 32.5624 4.54442C32.9737 4.93779 33.4725 5.13679 34.0445 5.13679C34.6544 5.13679 35.1673 4.93779 35.5668 4.54442C35.8032 4.31303 35.9497 3.98908 36.0017 3.57952H33.9476V2.71411H36.8834L36.8952 2.79278C36.9165 2.93856 36.9378 3.08896 36.9378 3.2278C36.9378 4.0261 36.6919 4.67169 36.205 5.14835C35.6519 5.71295 34.9286 5.99988 34.054 5.99988ZM68 5.87724H67.0947L64.322 1.53401L64.3456 2.31611V5.87493H63.4403V0.12483H64.4733L64.5016 0.168795L67.1089 4.25981L67.0852 3.48002V0.12483H68V5.87724ZM52.7821 5.87724H51.8649V0.990237H50.2741V0.12483H54.3705V0.990237H52.7797V5.87724H52.7821ZM49.5272 5.87724H48.6124V0.12483H49.5272V5.87724ZM44.386 5.87724H43.4712V0.990237H41.8804V0.12483H45.9768V0.990237H44.386V5.87724ZM41.3013 5.86799H37.7935V0.12483H41.3013V0.990237H38.7106V2.56833H41.0484V3.42448H38.7106V5.00258H41.3013V5.86799ZM58.1029 4.53285C58.5118 4.93316 59.0082 5.13447 59.585 5.13447C60.1783 5.13447 60.6629 4.93779 61.0671 4.53285C61.4689 4.13949 61.6722 3.62348 61.6722 3.00104C61.6722 2.37859 61.4689 1.86027 61.0694 1.46922C60.6605 1.06891 60.1618 0.867599 59.5874 0.867599C58.9941 0.867599 58.5095 1.06428 58.1076 1.46922C57.7058 1.86259 57.5025 2.37859 57.5025 3.00104C57.5025 3.62348 57.7034 4.1418 58.1029 4.53285Z" fill="#1E222A"/>
<path fill-rule="evenodd" clip-rule="evenodd" d="M55.871 13.7134C53.6185 13.7134 51.7927 15.4978 51.7927 17.959C51.7927 20.3979 53.6305 22.2047 55.871 22.2047C58.1234 22.2047 59.9492 20.4079 59.9492 17.959C59.9492 15.4978 58.1234 13.7134 55.871 13.7134ZM55.871 20.5223C54.6387 20.5223 53.578 19.4572 53.578 17.9491C53.578 16.4186 54.6411 15.3758 55.871 15.3758C57.1033 15.3758 58.164 16.4186 58.164 17.9491C58.1663 19.4672 57.1033 20.5223 55.871 20.5223ZM46.9732 13.7134C44.7208 13.7134 42.895 15.4978 42.895 17.959C42.895 20.3979 44.7327 22.2047 46.9732 22.2047C49.2257 22.2047 51.0515 20.4079 51.0515 17.959C51.0515 15.4978 49.2233 13.7134 46.9732 13.7134ZM46.9732 20.5223C45.7409 20.5223 44.6803 19.4572 44.6803 17.9491C44.6803 16.4186 45.7433 15.3758 46.9732 15.3758C48.2055 15.3758 49.2662 16.4186 49.2662 17.9491C49.2662 19.4672 48.2055 20.5223 46.9732 20.5223ZM36.3855 15.01V16.8068H40.5162C40.3899 17.8147 40.0705 18.5588 39.5818 19.069C38.9764 19.7011 38.0421 20.388 36.3951 20.388C33.8566 20.388 31.8711 18.2477 31.8711 15.5973C31.8711 12.9469 33.8566 10.8066 36.3951 10.8066C37.7656 10.8066 38.7643 11.3716 39.5056 12.0933L40.726 10.8191C39.6963 9.78878 38.3257 8.99988 36.4046 8.99988C32.9222 8.99988 30 11.9614 30 15.5873C30 19.2233 32.9198 22.1748 36.4046 22.1748C38.2852 22.1748 39.6963 21.5327 40.8118 20.3233C41.9487 19.1362 42.3086 17.4613 42.3086 16.11C42.3086 15.6894 42.2776 15.3111 42.2133 14.9901H36.3831C36.3855 14.9876 36.3855 15.01 36.3855 15.01ZM79.6921 16.4086C79.3513 15.4554 78.3216 13.7034 76.2098 13.7034C74.117 13.7034 72.377 15.4231 72.377 17.9491C72.377 20.3332 74.098 22.1947 76.4124 22.1947C78.2715 22.1947 79.3537 21.0076 79.7994 20.3108L78.4193 19.3452C77.9617 20.0545 77.3253 20.5199 76.4219 20.5199C75.509 20.5199 74.8702 20.0868 74.446 19.2332L79.8828 16.8814C79.8828 16.8839 79.6921 16.4086 79.6921 16.4086ZM74.148 17.8271C74.1051 16.1871 75.3684 15.3534 76.2718 15.3534C76.9844 15.3534 77.5779 15.7192 77.7805 16.2518L74.148 17.8271ZM69.7313 21.9409H71.5166V9.46774H69.7313V21.9409ZM66.7995 14.6566H66.7352C66.3324 14.1564 65.5673 13.7034 64.59 13.7034C62.5616 13.7034 60.6929 15.5674 60.6929 17.9615C60.6929 20.3457 62.5521 22.1873 64.59 22.1873C65.5553 22.1873 66.3324 21.7318 66.7352 21.2217H66.7995V21.8314C66.7995 23.4515 65.9701 24.325 64.6329 24.325C63.5389 24.325 62.8595 23.5038 62.5831 22.8169L61.0314 23.4938C61.4771 24.6137 62.6665 25.9999 64.6305 25.9999C66.7233 25.9999 68.4966 24.7132 68.4966 21.5751V13.9573H66.8091V14.6566C66.8115 14.6566 66.7995 14.6566 66.7995 14.6566ZM64.7497 20.5223C63.5174 20.5223 62.4877 19.4472 62.4877 17.9615C62.4877 16.4634 63.5174 15.3783 64.7497 15.3783C65.9701 15.3783 66.9163 16.4758 66.9163 17.9615C66.9283 19.4472 65.9725 20.5223 64.7497 20.5223ZM88.0512 9.46774H83.7823V21.9409H85.5676V17.2174H88.0536C90.0296 17.2174 91.9722 15.7217 91.9722 13.3476C91.9722 10.9734 90.0367 9.46774 88.0512 9.46774ZM88.1037 15.4754H85.5652V11.1949H88.1037C89.4408 11.1949 90.1964 12.3471 90.1964 13.3351C90.1964 14.3132 89.4313 15.4754 88.1037 15.4754ZM99.1276 13.691C97.8309 13.691 96.4938 14.2908 95.9408 15.5973L97.5234 16.2842C97.8643 15.5973 98.4888 15.3634 99.149 15.3634C100.074 15.3634 101.008 15.9407 101.03 16.971V17.1029C100.71 16.9138 100.009 16.6251 99.1705 16.6251C97.4615 16.6251 95.7286 17.6007 95.7286 19.4298C95.7286 21.1047 97.1302 22.1798 98.6914 22.1798C99.8903 22.1798 100.551 21.6149 100.963 20.9604H101.027V21.926H102.748V17.1477C102.748 14.9229 101.165 13.691 99.1276 13.691ZM98.9035 20.5223C98.3195 20.5223 97.502 20.2237 97.502 19.4572C97.502 18.4916 98.5221 18.1258 99.3921 18.1258C100.179 18.1258 100.551 18.3025 101.018 18.5464C100.889 19.6663 99.9833 20.5124 98.9035 20.5223ZM109.026 13.9573L106.977 19.3676H106.912L104.788 13.9573H102.867L106.054 21.5203L104.238 25.7236H106.097L111 13.9573H109.026ZM92.9566 21.9409H94.7418V9.46774H92.9566V21.9409Z" fill="#1E222A"/>
<path fill-rule="evenodd" clip-rule="evenodd" d="M0.458735 1.06168C0.167952 1.34781 0 1.78501 0 2.35726V22.6539C0 23.2262 0.167952 23.6634 0.468762 23.9381L0.546471 23.9999L13 12.6281V12.374L0.536444 0.999878L0.458735 1.06168Z" fill="url(#paint0_linear_86_4)"/>
<path fill-rule="evenodd" clip-rule="evenodd" d="M16.0675 16.9999L12 12.6521V12.3477L16.0675 7.99988L16.1559 8.0576L20.9672 10.9806C22.3443 11.8098 22.3443 13.1795 20.9672 14.0191L16.1559 16.9422L16.0675 16.9999Z" fill="url(#paint1_linear_86_4)"/>
<path fill-rule="evenodd" clip-rule="evenodd" d="M17 16.2667L12.9522 11.9999L1 24.5986C1.43754 25.0926 2.17155 25.1481 2.99163 24.6667L17 16.2667Z" fill="url(#paint2_linear_86_4)"/>
<path fill-rule="evenodd" clip-rule="evenodd" d="M17 8.059L2.99163 0.312251C2.17155 -0.143988 1.43515 -0.0811388 1 0.3751L12.9522 11.9999L17 8.059Z" fill="url(#paint3_linear_86_4)"/>
<path opacity="0.2" fill-rule="evenodd" clip-rule="evenodd" d="M16.9044 16.9999L2.99163 24.5575C2.21458 24.985 1.52122 24.9552 1.07412 24.5666L1 24.6375L1.07412 24.6992C1.52122 25.0855 2.21458 25.1175 2.99163 24.6901L17 17.0822L16.9044 16.9999Z" fill="black"/>
<path opacity="0.12" fill-rule="evenodd" clip-rule="evenodd" d="M21.1429 13.5386L17 16.8936L17.0745 16.9999L21.1325 13.7099C21.7143 13.2373 22 12.6171 22 11.9999C21.9648 12.5669 21.6687 13.1044 21.1429 13.5386Z" fill="black"/>
<path opacity="0.25" fill-rule="evenodd" clip-rule="evenodd" d="M2.41539 0.451173L21.0039 10.7875C21.6077 11.1203 21.9477 11.5554 22 11.9999C22 11.5135 21.6719 11.0249 21.0039 10.6526L2.41539 0.316209C1.08169 -0.430745 0 0.192881 0 1.68446V1.81943C0 0.325517 1.08169 -0.286473 2.41539 0.451173Z" fill="#1E222A"/>
<path opacity="0.2" fill-rule="evenodd" clip-rule="evenodd" d="M16.9044 16.9999L2.99163 24.5575C2.21458 24.985 1.52122 24.9552 1.07412 24.5666L1 24.6375L1.07412 24.6992C1.52122 25.0855 2.21458 25.1175 2.99163 24.6901L17 17.0822L16.9044 16.9999Z" fill="black"/>
<defs>
<linearGradient id="paint0_linear_86_4" x1="11.8829" y1="2.13828" x2="-7.80536" y2="7.88326" gradientUnits="userSpaceOnUse">
<stop stop-color="#00A0FF"/>
<stop offset="0.00657" stop-color="#00A1FF"/>
<stop offset="0.2601" stop-color="#00BEFF"/>
<stop offset="0.5122" stop-color="#00D2FF"/>
<stop offset="0.7604" stop-color="#00DFFF"/>
<stop offset="1" stop-color="#00E3FF"/>
</linearGradient>
<linearGradient id="paint1_linear_86_4" x1="22.763" y1="12.4999" x2="-1.05517" y2="12.4999" gradientUnits="userSpaceOnUse">
<stop stop-color="#FFE000"/>
<stop offset="0.4087" stop-color="#FFBD00"/>
<stop offset="0.7754" stop-color="#FFA500"/>
<stop offset="1" stop-color="#FF9C00"/>
</linearGradient>
<linearGradient id="paint2_linear_86_4" x1="14.799" y1="14.3216" x2="-1.69463" y2="40.657" gradientUnits="userSpaceOnUse">
<stop stop-color="#FF3A44"/>
<stop offset="1" stop-color="#C31162"/>
</linearGradient>
<linearGradient id="paint3_linear_86_4" x1="-2.00969" y1="-6.50178" x2="4.53849" y2="4.83048" gradientUnits="userSpaceOnUse">
<stop stop-color="#32A071"/>
<stop offset="0.0685" stop-color="#2DA771"/>
<stop offset="0.4762" stop-color="#15CF74"/>
<stop offset="0.8009" stop-color="#06E775"/>
<stop offset="1" stop-color="#00F076"/>
</linearGradient>
</defs>
</svg>
