<svg width="28" height="28" viewBox="0 0 28 28" fill="none" xmlns="http://www.w3.org/2000/svg">
<rect y="0.000244141" width="28" height="28" rx="12" fill="#2A59FF"/>
<path d="M11.3414 17.0445C11.9924 17.0445 12.5201 16.5167 12.5201 15.8657C12.5201 15.2148 11.9924 14.687 11.3414 14.687C10.6904 14.687 10.1627 15.2148 10.1627 15.8657C10.1627 16.5167 10.6904 17.0445 11.3414 17.0445Z" fill="white"/>
<path d="M16.6577 17.0445C17.3087 17.0445 17.8364 16.5167 17.8364 15.8657C17.8364 15.2148 17.3087 14.687 16.6577 14.687C16.0068 14.687 15.479 15.2148 15.479 15.8657C15.479 16.5167 16.0068 17.0445 16.6577 17.0445Z" fill="white"/>
<path d="M20.9991 17.0734C20.9665 15.2467 20.7505 13.4001 20.3976 11.5359C20.1094 10.2407 19.0726 9.08715 17.4173 9.00293C16.194 8.95235 15.9578 9.64902 14.5721 9.6359C14.1926 9.63371 13.8132 9.63371 13.4339 9.6359C12.0479 9.64929 11.8106 8.95235 10.5884 9.00293C8.92819 9.08742 7.85912 10.238 7.60156 11.5362C7.2483 13.4001 7.03257 15.2475 7.00004 17.0732C6.99211 18.3448 8.24765 19.1908 9.07611 19.2488C10.0451 19.322 10.8932 18.3167 11.6268 17.5117C11.5325 17.528 11.4371 17.5362 11.3414 17.5363C10.9805 17.5366 10.6292 17.42 10.3401 17.2041C10.0509 16.9883 9.83931 16.6846 9.73697 16.3385C9.63463 15.9925 9.647 15.6226 9.77224 15.2841C9.89748 14.9457 10.1289 14.6568 10.4318 14.4608C10.7348 14.2647 11.0931 14.1719 11.4531 14.1962C11.8132 14.2206 12.1557 14.3608 12.4295 14.5959C12.7033 14.831 12.8937 15.1483 12.9722 15.5006C13.0507 15.8528 13.0132 16.221 12.8651 16.5501C12.8824 16.5485 12.8996 16.5474 12.9165 16.5474C13.6387 16.5514 14.3607 16.5514 15.0826 16.5474C15.0995 16.5474 15.1167 16.5474 15.1342 16.5501C14.9811 16.2097 14.9462 15.8277 15.0352 15.4652C15.1242 15.1026 15.3319 14.7802 15.6253 14.5494C15.9187 14.3186 16.2809 14.1925 16.6542 14.1913C17.0275 14.1902 17.3905 14.3139 17.6854 14.5429C17.9802 14.7719 18.19 15.093 18.2812 15.455C18.3725 15.817 18.34 16.1991 18.189 16.5405C18.0379 16.8819 17.777 17.163 17.4477 17.3389C17.1185 17.5149 16.7398 17.5756 16.372 17.5115C17.1056 18.3167 17.9537 19.3223 18.9233 19.249C19.7512 19.1911 21.0393 18.3396 20.9991 17.0734ZM11.3474 12.2555H10.7071V12.8961C10.7071 12.9977 10.6667 13.095 10.5949 13.1668C10.5231 13.2386 10.4258 13.2789 10.3243 13.2789C10.2227 13.2789 10.1254 13.2386 10.0536 13.1668C9.98181 13.095 9.94148 12.9977 9.94148 12.8961V12.2555H9.30222C9.2007 12.2555 9.10334 12.2152 9.03155 12.1434C8.95977 12.0716 8.91944 11.9743 8.91944 11.8727C8.91944 11.7712 8.95977 11.6739 9.03155 11.6021C9.10334 11.5303 9.2007 11.49 9.30222 11.49H9.94148V10.8507C9.94148 10.7492 9.98181 10.6518 10.0536 10.58C10.1254 10.5082 10.2227 10.4679 10.3243 10.4679C10.4258 10.4679 10.5231 10.5082 10.5949 10.58C10.6667 10.6518 10.7071 10.7492 10.7071 10.8507V11.49H11.3474C11.4489 11.49 11.5463 11.5303 11.6181 11.6021C11.6899 11.6739 11.7302 11.7712 11.7302 11.8727C11.7302 11.9743 11.6899 12.0716 11.6181 12.1434C11.5463 12.2152 11.4489 12.2555 11.3474 12.2555ZM16.8305 13.2789C16.6974 13.279 16.5672 13.2395 16.4565 13.1656C16.3457 13.0917 16.2594 12.9866 16.2084 12.8636C16.1574 12.7406 16.1441 12.6052 16.17 12.4746C16.196 12.344 16.26 12.224 16.3542 12.1299C16.4483 12.0357 16.5683 11.9716 16.6988 11.9456C16.8294 11.9196 16.9648 11.9329 17.0878 11.9838C17.2108 12.0348 17.316 12.1211 17.39 12.2318C17.4639 12.3425 17.5034 12.4726 17.5034 12.6058C17.5034 12.7843 17.4325 12.9554 17.3064 13.0817C17.1802 13.2079 17.009 13.2789 16.8305 13.2789ZM18.2761 11.8331C18.143 11.8333 18.0128 11.7939 17.902 11.7201C17.7912 11.6463 17.7048 11.5413 17.6537 11.4184C17.6026 11.2954 17.5891 11.1601 17.6149 11.0295C17.6407 10.8989 17.7046 10.7789 17.7986 10.6846C17.8926 10.5903 18.0125 10.5261 18.143 10.4999C18.2735 10.4737 18.4089 10.4869 18.5319 10.5376C18.655 10.5884 18.7603 10.6745 18.8344 10.7851C18.9085 10.8956 18.9482 11.0257 18.9484 11.1588C18.9485 11.3373 18.8777 11.5084 18.7516 11.6346C18.6256 11.7609 18.4545 11.8319 18.2761 11.832V11.8331Z" fill="white"/>
</svg>
