<svg width="14" height="11" viewBox="0 0 14 11" fill="none" xmlns="http://www.w3.org/2000/svg">
<path d="M4.34138 8.04415C4.99236 8.04415 5.52009 7.51642 5.52009 6.86544C5.52009 6.21446 4.99236 5.68673 4.34138 5.68673C3.6904 5.68673 3.16267 6.21446 3.16267 6.86544C3.16267 7.51642 3.6904 8.04415 4.34138 8.04415Z" fill="white"/>
<path d="M9.65774 8.04415C10.3087 8.04415 10.8364 7.51642 10.8364 6.86544C10.8364 6.21446 10.3087 5.68673 9.65774 5.68673C9.00676 5.68673 8.47903 6.21446 8.47903 6.86544C8.47903 7.51642 9.00676 8.04415 9.65774 8.04415Z" fill="white"/>
<path d="M13.9991 8.07313C13.9665 6.24642 13.7505 4.39975 13.3976 2.53558C13.1094 1.24039 12.0726 0.0868405 10.4173 0.00262748C9.19402 -0.047955 8.95779 0.648716 7.5721 0.635592C7.19259 0.633405 6.81318 0.633405 6.43386 0.635592C5.0479 0.64899 4.81057 -0.047955 3.58839 0.00262748C1.92819 0.0871139 0.859119 1.23766 0.601559 2.53585C0.248302 4.39975 0.0325742 6.24724 3.73731e-05 8.07286C-0.00789177 9.34453 1.24765 10.1905 2.07611 10.2485C3.0451 10.3217 3.89325 9.31637 4.62683 8.51142C4.53255 8.52766 4.43706 8.5359 4.34138 8.53603C3.9805 8.53627 3.62924 8.41973 3.34006 8.20384C3.05088 7.98795 2.83931 7.68429 2.73697 7.33823C2.63463 6.99217 2.647 6.62228 2.77224 6.28383C2.89748 5.94538 3.12886 5.65654 3.43182 5.46046C3.73478 5.26437 4.09305 5.17158 4.45311 5.19593C4.81316 5.22028 5.15568 5.36048 5.42947 5.59557C5.70327 5.83066 5.89365 6.14803 5.97218 6.50026C6.0507 6.85249 6.01316 7.22068 5.86515 7.54981C5.88237 7.54817 5.8996 7.54707 5.91655 7.54707C6.63874 7.55108 7.36075 7.55108 8.08257 7.54707C8.09952 7.54707 8.11675 7.54707 8.13425 7.54981C7.98106 7.20936 7.94619 6.82744 8.03517 6.46487C8.12416 6.10231 8.33189 5.77994 8.62529 5.54909C8.9187 5.31825 9.2809 5.19221 9.65422 5.19104C10.0275 5.18987 10.3905 5.31363 10.6854 5.54263C10.9802 5.77163 11.19 6.09269 11.2812 6.45469C11.3725 6.81669 11.34 7.19882 11.189 7.54023C11.0379 7.88163 10.777 8.16269 10.4477 8.33863C10.1185 8.51458 9.73979 8.57531 9.37201 8.51115C10.1056 9.31637 10.9537 10.322 11.9233 10.2487C12.7512 10.1908 14.0393 9.33933 13.9991 8.07313ZM4.3474 3.25522H3.70705V3.89584C3.70705 3.99736 3.66672 4.09472 3.59493 4.16651C3.52315 4.2383 3.42579 4.27862 3.32426 4.27862C3.22274 4.27862 3.12538 4.2383 3.05359 4.16651C2.98181 4.09472 2.94148 3.99736 2.94148 3.89584V3.25522H2.30222C2.2007 3.25522 2.10334 3.21489 2.03155 3.1431C1.95977 3.07132 1.91944 2.97395 1.91944 2.87243C1.91944 2.77091 1.95977 2.67355 2.03155 2.60176C2.10334 2.52997 2.2007 2.48965 2.30222 2.48965H2.94148V1.85039C2.94148 1.74887 2.98181 1.65151 3.05359 1.57972C3.12538 1.50793 3.22274 1.46761 3.32426 1.46761C3.42579 1.46761 3.52315 1.50793 3.59493 1.57972C3.66672 1.65151 3.70705 1.74887 3.70705 1.85039V2.48965H4.3474C4.44892 2.48965 4.54628 2.52997 4.61807 2.60176C4.68985 2.67355 4.73018 2.77091 4.73018 2.87243C4.73018 2.97395 4.68985 3.07132 4.61807 3.1431C4.54628 3.21489 4.44892 3.25522 4.3474 3.25522ZM9.83054 4.27862C9.69739 4.27868 9.56721 4.23924 9.45648 4.16531C9.34574 4.09138 9.25942 3.98626 9.20843 3.86326C9.15744 3.74026 9.14407 3.60491 9.17001 3.47431C9.19595 3.34371 9.26004 3.22374 9.35417 3.12957C9.44831 3.0354 9.56825 2.97126 9.69884 2.94526C9.82943 2.91927 9.96479 2.93258 10.0878 2.98353C10.2108 3.03447 10.316 3.12075 10.39 3.23145C10.4639 3.34216 10.5034 3.47232 10.5034 3.60547C10.5034 3.78395 10.4325 3.95513 10.3064 4.08136C10.1802 4.2076 10.009 4.27855 9.83054 4.27862ZM11.2761 2.83279C11.143 2.83295 11.0128 2.79363 10.902 2.71981C10.7912 2.64599 10.7048 2.54098 10.6537 2.41806C10.6026 2.29513 10.5891 2.15981 10.6149 2.02921C10.6407 1.8986 10.7046 1.77858 10.7986 1.68431C10.8926 1.59004 11.0125 1.52576 11.143 1.4996C11.2735 1.47344 11.4089 1.48656 11.5319 1.53732C11.655 1.58808 11.7603 1.67419 11.8344 1.78476C11.9085 1.89534 11.9482 2.02541 11.9484 2.15854C11.9485 2.33695 11.8777 2.50809 11.7516 2.63432C11.6256 2.76055 11.4545 2.83155 11.2761 2.83169V2.83279Z" fill="white"/>
</svg>
