<svg width="28" height="28" viewBox="0 0 28 28" fill="none" xmlns="http://www.w3.org/2000/svg">
<rect y="0.000244141" width="28" height="28" rx="12" fill="#2A59FF"/>
<path fill-rule="evenodd" clip-rule="evenodd" d="M13.4297 20.9293V19.7649H11.4441V20.9293C11.4441 21.0511 11.4911 21.168 11.5747 21.2542C11.6583 21.3404 11.7717 21.3888 11.8899 21.3888H12.9839C13.1021 21.3888 13.2155 21.3404 13.2991 21.2542C13.3827 21.168 13.4297 21.0511 13.4297 20.9293ZM19.739 13.3879C20.2668 13.1003 20.6934 12.6943 20.9697 12.2122C20.9894 12.1771 20.9998 12.1373 20.9997 12.0967V9.73697C21.0017 9.69741 20.9922 9.65814 20.9724 9.6242C20.6962 9.14212 20.2723 8.73615 19.7417 8.44859C19.2057 8.15539 18.5849 8.00315 17.9449 8.00315C16.0852 8.00315 14.5701 9.31127 14.5701 10.9182V19.311H16.5556V13.5767C16.9991 13.7474 17.4688 13.8344 17.9422 13.8333C18.5671 13.8357 19.1834 13.683 19.739 13.3879ZM14.5701 19.7649V20.9321C14.5701 21.0539 14.6171 21.1708 14.7007 21.257C14.7843 21.3431 14.8977 21.3916 15.0159 21.3916H16.1098C16.228 21.3916 16.3414 21.3431 16.425 21.257C16.5086 21.1708 16.5556 21.0539 16.5556 20.9321V19.7649H14.5701ZM17.9476 9.00398C18.0059 9.00478 18.0615 9.02919 18.1024 9.07192C18.1434 9.11465 18.1664 9.17227 18.1664 9.23233C18.1663 9.2921 18.1432 9.34937 18.1022 9.39163C18.0612 9.43389 18.0056 9.45771 17.9476 9.45787C17.1901 9.45787 16.293 9.84128 16.0442 10.5715C16.0293 10.6153 16.0015 10.6532 15.9648 10.68C15.928 10.7067 15.8841 10.721 15.8391 10.7209C15.8138 10.7217 15.7886 10.7169 15.7652 10.7068C15.738 10.6971 15.7129 10.682 15.6914 10.6623C15.6698 10.6426 15.6523 10.6187 15.6399 10.5919C15.6274 10.5651 15.6202 10.5361 15.6187 10.5065C15.6172 10.4768 15.6215 10.4472 15.6312 10.4192C15.9649 9.44659 17.0643 9.00398 17.9476 9.00398ZM19.5913 10.0471C19.5913 9.98727 19.6143 9.9299 19.6554 9.88761C19.6964 9.84531 19.7521 9.82155 19.8101 9.82155C19.8681 9.82155 19.9238 9.84531 19.9648 9.88761C20.0058 9.9299 20.0289 9.98727 20.0289 10.0471V11.7837C20.0289 11.8435 20.0058 11.9009 19.9648 11.9432C19.9238 11.9855 19.8681 12.0093 19.8101 12.0093C19.7521 12.0093 19.6964 11.9855 19.6554 11.9432C19.6143 11.9009 19.5913 11.8435 19.5913 11.7837V10.0471ZM13.4297 19.311V10.9154C13.4297 9.30845 11.9173 8.00033 10.0548 8.00033C9.42989 7.99788 8.81357 8.15067 8.25803 8.44577C7.73294 8.73333 7.3063 9.14212 7.03008 9.6242C7.01065 9.65843 7.00027 9.69731 7 9.73697V12.0938C7.00063 12.1343 7.01096 12.174 7.03008 12.2094C7.3063 12.6915 7.73021 13.0975 8.26077 13.385C8.7968 13.6782 9.41761 13.8305 10.0576 13.8305C10.531 13.832 11.0008 13.7451 11.4441 13.5739V19.311H13.4297ZM10.0575 9.46069C9.99944 9.46069 9.94379 9.43693 9.90276 9.39463C9.86172 9.35233 9.83867 9.29497 9.83867 9.23515C9.83867 9.17533 9.86172 9.11797 9.90276 9.07567C9.94379 9.03338 9.99944 9.00961 10.0575 9.00961C10.9381 9.00679 12.0402 9.44941 12.3739 10.422C12.3836 10.45 12.3878 10.4796 12.3863 10.5093C12.3849 10.5389 12.3777 10.5679 12.3652 10.5947C12.3527 10.6215 12.3352 10.6454 12.3137 10.6651C12.2922 10.6848 12.2671 10.7 12.2399 10.7096C12.2162 10.7183 12.1912 10.7231 12.166 10.7237C12.1211 10.7237 12.0772 10.7093 12.0405 10.6825C12.0038 10.6558 11.976 10.618 11.9609 10.5743C11.7121 9.84128 10.8123 9.46069 10.0575 9.46069ZM8.41108 11.7837C8.41108 11.8435 8.38803 11.9009 8.347 11.9432C8.30597 11.9855 8.25032 12.0093 8.19229 12.0093C8.13426 12.0093 8.07861 11.9855 8.03758 11.9432C7.99655 11.9009 7.9735 11.8435 7.9735 11.7837V10.0471C7.9735 9.98727 7.99655 9.9299 8.03758 9.88761C8.07861 9.84531 8.13426 9.82155 8.19229 9.82155C8.25032 9.82155 8.30597 9.84531 8.347 9.88761C8.38803 9.9299 8.41108 9.98727 8.41108 10.0471V11.7837Z" fill="#EEF2F9"/>
</svg>
