<svg width="28" height="28" viewBox="0 0 28 28" fill="none" xmlns="http://www.w3.org/2000/svg">
<rect width="28" height="28" rx="12" fill="#2A59FF"/>
<path d="M16.6908 10.6355C16.5967 10.478 16.4106 10.4031 16.2355 10.4526C16.0604 10.502 15.9393 10.6636 15.9393 10.8477C15.9393 11.3483 15.5372 11.7555 15.0431 11.7555C14.549 11.7555 14.1469 11.3483 14.1469 10.8477V7.41015C14.1469 7.24428 14.0482 7.09474 13.8969 7.03129C13.7456 6.96774 13.5715 7.00277 13.4557 7.12016C13.4102 7.1662 12.3305 8.26635 11.2366 9.92845C10.5915 10.9086 10.0767 11.8808 9.70659 12.818C9.23778 14.0054 9 15.1421 9 16.1967C9 18.8452 11.1273 21 13.742 21C16.3566 21 18.4839 18.8452 18.4839 16.1967C18.484 14.5013 17.8806 12.6302 16.6908 10.6355ZM16.4438 16.09C16.4438 16.3165 16.2626 16.5001 16.0389 16.5001C15.8154 16.5001 15.634 16.3165 15.634 16.09V15.323L13.6179 17.3653C13.5419 17.4422 13.4389 17.4854 13.3315 17.4854C13.2241 17.4854 13.1211 17.4422 13.0452 17.3653L12.1048 16.4127L11.4711 17.0546C11.3129 17.2148 11.0566 17.2148 10.8984 17.0546C10.7403 16.8944 10.7403 16.6347 10.8984 16.4745L11.8186 15.5426C11.9767 15.3825 12.2331 15.3825 12.3912 15.5427L13.3315 16.4952L15.0614 14.7429H14.3041C14.0805 14.7429 13.8992 14.5593 13.8992 14.3327C13.8992 14.1062 14.0805 13.9226 14.3041 13.9226H16.039C16.2626 13.9226 16.4439 14.1063 16.4439 14.3327V16.09H16.4438Z" fill="white"/>
</svg>
