<svg width="28" height="28" viewBox="0 0 28 28" fill="none" xmlns="http://www.w3.org/2000/svg">
<rect width="28" height="28" rx="12" fill="#2A59FF"/>
<path d="M14.5183 11.8416L14 10.797L13.4817 11.8416C13.4284 11.9491 13.3253 12.0236 13.206 12.0408L12.047 12.2084L12.8857 13.0215C12.972 13.1051 13.0114 13.2257 12.991 13.3438L12.793 14.492L13.8296 13.9499C13.883 13.922 13.9415 13.9081 14 13.9081C14.0585 13.9081 14.1171 13.922 14.1704 13.9499L15.207 14.492L15.009 13.3438C14.9886 13.2257 15.028 13.1051 15.1143 13.0215L15.953 12.2084L14.794 12.0408C14.6747 12.0236 14.5716 11.9491 14.5183 11.8416Z" fill="#EEF2F9"/>
<path d="M19.2684 12.9675C19.237 12.8715 19.237 12.7701 19.2684 12.6741L19.5651 11.7659C19.7275 11.2686 19.5509 10.7281 19.1257 10.4207L18.3489 9.8594C18.2669 9.80007 18.2069 9.71799 18.1755 9.622L17.8788 8.71377C17.7163 8.21654 17.254 7.88246 16.7284 7.88246H15.7683C15.6668 7.88246 15.5698 7.85111 15.4877 7.79178L14.7109 7.23046C14.2857 6.92318 13.7142 6.92318 13.289 7.23046L12.5123 7.79178C12.4302 7.85111 12.3331 7.88246 12.2317 7.88246H11.2716C10.746 7.88246 10.2836 8.21654 10.1211 8.71381L9.82442 9.62207C9.79308 9.71803 9.73311 9.80011 9.65102 9.85943L8.87429 10.4208C8.44907 10.7281 8.27246 11.2686 8.4349 11.7659L8.73161 12.6741C8.76299 12.7701 8.76299 12.8715 8.73161 12.9675L8.4349 13.8758C8.27246 14.373 8.44907 14.9136 8.87433 15.2209L9.6511 15.7823C9.73318 15.8416 9.79312 15.9237 9.82446 16.0197L10.1212 16.9279C10.2837 17.4252 10.746 17.7592 11.2716 17.7592H12.2317C12.3332 17.7592 12.4302 17.7906 12.5123 17.8499L13.2891 18.4112C13.5017 18.5649 13.7508 18.6417 14 18.6417C14.2492 18.6417 14.4984 18.5649 14.711 18.4112L15.4878 17.8499C15.5699 17.7906 15.6669 17.7592 15.7683 17.7592H16.7285C17.2541 17.7592 17.7164 17.4252 17.8789 16.9279L18.1756 16.0196C18.207 15.9237 18.2669 15.8416 18.349 15.7823L19.1257 15.2209C19.551 14.9136 19.7276 14.373 19.5652 13.8758L19.2684 12.9675ZM16.9954 12.2149L15.7633 13.4094L16.0542 15.0961C16.0778 15.2327 16.0213 15.3708 15.9085 15.4523C15.8447 15.4984 15.7692 15.5218 15.6933 15.5218C15.635 15.5218 15.5765 15.508 15.5229 15.48L14 14.6836L12.4771 15.48C12.3538 15.5444 12.2042 15.5338 12.0915 15.4523C11.9788 15.3708 11.9223 15.2327 11.9458 15.0961L12.2367 13.4094L11.0046 12.2149C10.9048 12.1181 10.8689 11.9734 10.912 11.8416C10.9551 11.7097 11.0696 11.6137 11.2075 11.5937L12.9102 11.3476L13.6717 9.813C13.7334 9.68871 13.8606 9.61002 14 9.61002C14.1394 9.61002 14.2666 9.68871 14.3283 9.813L15.0898 11.3476L16.7925 11.5937C16.9304 11.6136 17.0449 11.7097 17.088 11.8416C17.1311 11.9734 17.0951 12.1181 16.9954 12.2149Z" fill="#EEF2F9"/>
<path d="M20.8927 17.7251L19.1631 16.0044L18.7842 16.2779L18.5055 17.1304C18.2547 17.8988 17.5404 18.4148 16.7284 18.4148H15.8273L15.4726 18.6708L17.7074 20.8933C17.7766 20.9621 17.8703 21 17.9662 21C17.9911 21 18.0164 20.9975 18.0413 20.992C18.1621 20.9669 18.2621 20.8827 18.3071 20.7684L18.9991 19.0095L20.7671 18.3216C20.8824 18.2768 20.967 18.1774 20.9922 18.0568C21.0175 17.9367 20.9802 17.8117 20.8927 17.7251Z" fill="#EEF2F9"/>
<path d="M12.1727 18.4148H11.2716C10.4596 18.4148 9.74527 17.8988 9.49447 17.1304L9.21585 16.2779L8.83691 16.0044L7.10734 17.7251C7.01983 17.8117 6.98249 17.9367 7.00775 18.0568C7.03301 18.1774 7.11759 18.2768 7.23292 18.3216L9.00093 19.0095L9.69291 20.7684C9.73794 20.8827 9.83789 20.9669 9.95872 20.992C9.98361 20.9975 10.0089 21 10.0338 21C10.1297 21 10.2234 20.9621 10.2926 20.8933L12.5274 18.6708L12.1727 18.4148Z" fill="#EEF2F9"/>
</svg>
