<svg width="28" height="28" viewBox="0 0 28 28" fill="none" xmlns="http://www.w3.org/2000/svg">
<rect width="28" height="28" rx="12" fill="#2A59FF"/>
<path d="M14.4662 8.28855C11.3203 8.28855 8.76098 10.8479 8.76098 13.9937C8.76098 17.1396 11.3203 19.6989 14.4662 19.6989C17.612 19.6989 20.1713 17.1396 20.1713 13.9937C20.1713 10.8479 17.612 8.28855 14.4662 8.28855ZM18.2869 16.1996C18.2311 16.2966 18.1265 16.357 18.014 16.357C17.9587 16.357 17.9043 16.3423 17.8567 16.3147L14.3151 14.2698L14.3096 14.2668C14.2116 14.2102 14.1513 14.1057 14.1513 13.9938V9.89658C14.1513 9.723 14.2926 9.58177 14.4662 9.58177C14.6397 9.58177 14.781 9.723 14.781 9.89658V13.8119L18.1717 15.7696C18.2446 15.8117 18.2968 15.8796 18.3185 15.9609C18.3402 16.0421 18.329 16.1269 18.2869 16.1996ZM12.9884 7.49526C13.1228 7.45968 13.2027 7.32179 13.1669 7.18737C13.1313 7.05294 12.9934 6.97266 12.859 7.00857C11.8418 7.27837 10.9015 7.74269 10.0645 8.38803C9.86427 8.5426 9.67256 8.70535 9.48966 8.87628L8.83013 8.32916C8.76119 8.27187 8.66705 8.25582 8.583 8.28634C8.49894 8.31718 8.43725 8.39021 8.4215 8.47837L8.00375 10.7896H8.00407C7.98551 10.8913 8.03114 10.9977 8.12559 11.0525C8.16527 11.0755 8.20871 11.0865 8.25151 11.0865C8.33841 11.0865 8.42309 11.0412 8.46966 10.9602C9.45154 9.26004 11.0986 7.99704 12.9884 7.49526ZM20.7876 16.9557C20.667 16.8858 20.5131 16.9267 20.4435 17.047C19.4585 18.746 17.8095 20.0062 15.9188 20.5045C15.7844 20.5401 15.7041 20.6776 15.7397 20.8124C15.7693 20.9251 15.8713 21 15.983 21C16.0041 21 16.0259 20.9972 16.0473 20.9915C17.065 20.7233 18.006 20.2608 18.8443 19.6168C19.0449 19.4625 19.2369 19.3001 19.4201 19.1298L20.0787 19.6779C20.1246 19.7159 20.1816 19.7361 20.2399 19.7361C20.2685 19.7361 20.2978 19.7311 20.3255 19.721C20.4098 19.6904 20.4712 19.6174 20.4876 19.5296L20.9091 17.2186C20.9274 17.1172 20.882 17.0101 20.7876 16.9557Z" fill="white"/>
</svg>
