<svg width="10" height="14" viewBox="0 0 10 14" fill="none" xmlns="http://www.w3.org/2000/svg">
<path d="M7.69077 3.63554C7.59671 3.47799 7.4106 3.40312 7.23546 3.45257C7.06042 3.50203 6.93926 3.66363 6.93926 3.84767C6.93926 4.34829 6.5372 4.75546 6.04308 4.75546C5.54896 4.75546 5.1469 4.34829 5.1469 3.84767V0.410153C5.1469 0.244275 5.0482 0.094739 4.89689 0.0312929C4.74557 -0.0322599 4.57148 0.00277422 4.4557 0.12016C4.41015 0.166196 3.33049 1.26635 2.2366 2.92845C1.59149 3.90855 1.0767 4.88075 0.70659 5.81802C0.23778 7.00545 0 8.14213 0 9.19668C0 11.8452 2.12726 14 4.74199 14C7.35661 14 9.48387 11.8452 9.48387 9.19668C9.48398 7.50127 8.88062 5.63025 7.69077 3.63554ZM7.44382 9.08998C7.44382 9.31653 7.26256 9.50014 7.03891 9.50014C6.81536 9.50014 6.634 9.31653 6.634 9.08998V8.32297L4.61788 10.3653C4.54185 10.4422 4.43894 10.4854 4.33149 10.4854C4.22415 10.4854 4.12113 10.4422 4.0452 10.3653L3.10484 9.41266L2.47111 10.0546C2.31295 10.2148 2.05661 10.2148 1.89844 10.0546C1.74027 9.89438 1.74027 9.63472 1.89844 9.4745L2.81856 8.54257C2.97673 8.38246 3.23306 8.38246 3.39123 8.54268L4.33149 9.49522L6.06143 7.74287H5.30412C5.08047 7.74287 4.89921 7.55926 4.89921 7.33272C4.89921 7.10617 5.08047 6.92256 5.30412 6.92256H7.03901C7.26256 6.92256 7.44392 7.10628 7.44392 7.33272V9.08998H7.44382Z" fill="white"/>
</svg>
