<svg width="13" height="14" viewBox="0 0 13 14" fill="none" xmlns="http://www.w3.org/2000/svg">
<path d="M6.46615 1.28855C3.32032 1.28855 0.760975 3.84789 0.760975 6.99373C0.760975 10.1396 3.32032 12.6989 6.46615 12.6989C9.61199 12.6989 12.1713 10.1396 12.1713 6.99373C12.1713 3.84792 9.61199 1.28855 6.46615 1.28855ZM10.2869 9.1996C10.2311 9.29661 10.1265 9.35696 10.014 9.35696C9.95865 9.35696 9.90429 9.34233 9.85674 9.31469L6.31505 7.26979L6.30956 7.26678C6.21164 7.21015 6.15135 7.1057 6.15135 6.99376V2.89658C6.15135 2.723 6.29258 2.58177 6.46615 2.58177C6.63973 2.58177 6.78096 2.723 6.78096 2.89658V6.81192L10.1717 8.76959C10.2446 8.81167 10.2968 8.87962 10.3185 8.96091C10.3402 9.0421 10.329 9.12689 10.2869 9.1996ZM4.98836 0.495255C5.12279 0.459681 5.20274 0.321787 5.16686 0.187365C5.13129 0.0529438 4.99339 -0.0273372 4.85897 0.00856502C3.84184 0.278365 2.90152 0.742688 2.06448 1.38803C1.86427 1.5426 1.67256 1.70535 1.48966 1.87628L0.830127 1.32916C0.761194 1.27187 0.66705 1.25582 0.582995 1.28634C0.498941 1.31718 0.437253 1.39021 0.421503 1.47837L0.00374643 3.78965H0.00407459C-0.0144918 3.89134 0.0311448 3.99773 0.12559 4.0525C0.165266 4.07547 0.208715 4.08649 0.251508 4.08649C0.338406 4.08649 0.423089 4.04116 0.469655 3.96025C1.45154 2.26004 3.09859 0.997039 4.98836 0.495255ZM12.7876 9.95571C12.667 9.88582 12.5131 9.92675 12.4435 10.047C11.4585 11.746 9.80955 13.0062 7.91884 13.5045C7.78442 13.5401 7.70414 13.6776 7.73971 13.8124C7.7693 13.9251 7.87129 14 7.98304 14C8.00413 14 8.02586 13.9972 8.04727 13.9915C9.06503 13.7233 10.006 13.2608 10.8443 12.6168C11.0449 12.4625 11.2369 12.3001 11.4201 12.1298L12.0787 12.6779C12.1246 12.7159 12.1816 12.7361 12.2399 12.7361C12.2685 12.7361 12.2978 12.7311 12.3255 12.721C12.4098 12.6904 12.4712 12.6174 12.4876 12.5296L12.9091 10.2186C12.9274 10.1172 12.882 10.0101 12.7876 9.95571Z" fill="white"/>
</svg>
