<svg width="14" height="14" viewBox="0 0 14 14" fill="none" xmlns="http://www.w3.org/2000/svg">
<path fill-rule="evenodd" clip-rule="evenodd" d="M6.42965 12.929V11.7646H4.44414V12.929C4.44414 13.0508 4.49111 13.1677 4.57471 13.2539C4.65831 13.3401 4.7717 13.3885 4.88993 13.3885H5.98387C6.1021 13.3885 6.21549 13.3401 6.29909 13.2539C6.38269 13.1677 6.42965 13.0508 6.42965 12.929ZM12.739 5.38755C13.2668 5.09999 13.6934 4.69402 13.9697 4.21194C13.9894 4.17684 13.9998 4.13695 13.9997 4.09635V1.73667C14.0017 1.69711 13.9922 1.65783 13.9724 1.6239C13.6962 1.14181 13.2723 0.735844 12.7417 0.448284C12.2057 0.155086 11.5849 0.00284832 10.9449 0.00284832C9.0852 0.00284832 7.57009 1.31096 7.57009 2.91792V11.3107H9.5556V5.57644C9.99908 5.74714 10.4688 5.83405 10.9422 5.83299C11.5671 5.83544 12.1834 5.68265 12.739 5.38755ZM7.57009 11.7646V12.9318C7.57012 13.0536 7.6171 13.1705 7.70069 13.2567C7.78429 13.3428 7.89765 13.3913 8.01587 13.3913H9.10981C9.22803 13.3913 9.34139 13.3428 9.42498 13.2567C9.50857 13.1705 9.55555 13.0536 9.5556 12.9318V11.7646H7.57009ZM10.9476 1.00367C11.0059 1.00448 11.0615 1.02888 11.1024 1.07161C11.1434 1.11435 11.1664 1.17197 11.1664 1.23203C11.1663 1.29179 11.1432 1.34906 11.1022 1.39132C11.0612 1.43359 11.0056 1.4574 10.9476 1.45756C10.1901 1.45756 9.29305 1.84098 9.04418 2.57115C9.0293 2.61495 9.00155 2.65287 8.96478 2.67965C8.92802 2.70643 8.88408 2.72074 8.83906 2.72057C8.81375 2.72138 8.78857 2.71657 8.76522 2.70648C8.73799 2.69684 8.71288 2.68173 8.69136 2.662C8.66984 2.64228 8.65234 2.61835 8.63987 2.59159C8.6274 2.56483 8.62021 2.53579 8.61873 2.50615C8.61724 2.47651 8.62149 2.44685 8.63121 2.41892C8.96486 1.44629 10.0643 1.00367 10.9476 1.00367ZM12.5913 2.04678C12.5913 1.98696 12.6143 1.9296 12.6554 1.8873C12.6964 1.845 12.7521 1.82124 12.8101 1.82124C12.8681 1.82124 12.9238 1.845 12.9648 1.8873C13.0058 1.9296 13.0289 1.98696 13.0289 2.04678V3.78342C13.0289 3.84323 13.0058 3.9006 12.9648 3.9429C12.9238 3.98519 12.8681 4.00895 12.8101 4.00895C12.7521 4.00895 12.6964 3.98519 12.6554 3.9429C12.6143 3.9006 12.5913 3.84323 12.5913 3.78342V2.04678ZM6.42965 11.3107V2.9151C6.42965 1.30815 4.91728 2.90924e-05 3.05484 2.90924e-05C2.42989 -0.00242459 1.81357 0.150365 1.25803 0.445465C0.732942 0.733025 0.306304 1.14181 0.0300834 1.6239C0.0106456 1.65812 0.000271538 1.69701 0 1.73667V4.09353C0.000628022 4.13403 0.0109627 4.17374 0.0300834 4.20912C0.306304 4.6912 0.730207 5.09717 1.26077 5.38473C1.7968 5.67793 2.41761 5.83017 3.05757 5.83017C3.531 5.83172 4.00079 5.74479 4.44414 5.57362V11.3107H6.42965ZM3.05746 1.46038C2.99944 1.46038 2.94379 1.43662 2.90276 1.39432C2.86172 1.35203 2.83867 1.29466 2.83867 1.23485C2.83867 1.17503 2.86172 1.11766 2.90276 1.07537C2.94379 1.03307 2.99944 1.00931 3.05746 1.00931C3.93809 1.00649 5.04023 1.44911 5.37389 2.42174C5.3836 2.44967 5.38784 2.47932 5.38635 2.50896C5.38485 2.5386 5.37767 2.56764 5.3652 2.59439C5.35273 2.62115 5.33523 2.64508 5.31372 2.6648C5.29221 2.68453 5.26711 2.69965 5.23988 2.7093C5.21615 2.71802 5.19122 2.72277 5.16604 2.72339C5.12107 2.72336 5.07721 2.70898 5.04048 2.68223C5.00376 2.65548 4.97597 2.61766 4.96092 2.57397C4.71205 1.84098 3.81228 1.46038 3.05746 1.46038ZM1.41108 3.78342C1.41108 3.84323 1.38803 3.9006 1.347 3.9429C1.30597 3.98519 1.25032 4.00895 1.19229 4.00895C1.13426 4.00895 1.07861 3.98519 1.03758 3.9429C0.996551 3.9006 0.9735 3.84323 0.9735 3.78342V2.04678C0.9735 1.98696 0.996551 1.9296 1.03758 1.8873C1.07861 1.845 1.13426 1.82124 1.19229 1.82124C1.25032 1.82124 1.30597 1.845 1.347 1.8873C1.38803 1.9296 1.41108 1.98696 1.41108 2.04678V3.78342Z" fill="#EEF2F9"/>
</svg>
