<svg width="14" height="14" viewBox="0 0 14 14" fill="none" xmlns="http://www.w3.org/2000/svg">
<path d="M7.51829 4.84165L7 3.79704L6.48171 4.84165C6.42837 4.94911 6.32531 5.02362 6.20602 5.04085L5.04702 5.20836L5.8857 6.02146C5.97196 6.10515 6.01135 6.22565 5.991 6.34382L5.793 7.49196L6.82964 6.94986C6.88295 6.92197 6.94149 6.90806 7 6.90806C7.05851 6.90806 7.11705 6.92201 7.17036 6.94986L8.207 7.49196L8.009 6.34382C7.98865 6.22569 8.02804 6.10515 8.1143 6.02146L8.95298 5.20836L7.79398 5.04085C7.67473 5.02362 7.57163 4.94911 7.51829 4.84165Z" fill="#EEF2F9"/>
<path d="M12.2684 5.9675C12.237 5.87154 12.237 5.77008 12.2684 5.67409L12.5651 4.76587C12.7275 4.26864 12.5509 3.72807 12.1257 3.42072L11.3489 2.8594C11.2669 2.80007 11.2069 2.71799 11.1755 2.622L10.8788 1.71377C10.7163 1.21654 10.254 0.88246 9.7284 0.88246H8.76827C8.66682 0.88246 8.5698 0.851105 8.48771 0.791783L7.71094 0.230461C7.28569 -0.0768203 6.71424 -0.0768203 6.28899 0.230461L5.51225 0.791783C5.43017 0.851105 5.33314 0.88246 5.23169 0.88246H4.27157C3.74596 0.88246 3.28361 1.21654 3.12113 1.71381L2.82442 2.62207C2.79308 2.71803 2.73311 2.80011 2.65102 2.85943L1.87429 3.42075C1.44907 3.72807 1.27246 4.26864 1.4349 4.76587L1.73161 5.67413C1.76299 5.77008 1.76299 5.87154 1.73161 5.96753L1.4349 6.87579C1.27246 7.37302 1.44907 7.91359 1.87433 8.22094L2.6511 8.7823C2.73318 8.84159 2.79312 8.92367 2.82446 9.0197L3.12117 9.92792C3.28365 10.4252 3.74596 10.7592 4.2716 10.7592H5.23173C5.33318 10.7592 5.4302 10.7906 5.51229 10.8499L6.28906 11.4112C6.50174 11.5649 6.75082 11.6417 7.00004 11.6417C7.24919 11.6417 7.49841 11.5649 7.71101 11.4112L8.48782 10.8499C8.56987 10.7906 8.66689 10.7592 8.76835 10.7592H9.72847C10.2541 10.7592 10.7164 10.4252 10.8789 9.92789L11.1756 9.01963C11.207 8.92367 11.2669 8.84159 11.349 8.78226L12.1257 8.2209C12.551 7.91359 12.7276 7.37302 12.5652 6.87576L12.2684 5.9675ZM9.99538 5.21488L8.76333 6.40937L9.05418 8.09607C9.07776 8.23267 9.02127 8.37076 8.9085 8.45226C8.84472 8.49836 8.76915 8.52181 8.69325 8.52181C8.63497 8.52181 8.5765 8.50801 8.52293 8.48001L7 7.68362L5.47707 8.47997C5.35376 8.54443 5.20423 8.53376 5.0915 8.45226C4.97877 8.3708 4.92228 8.2327 4.94582 8.09607L5.23667 6.40937L4.00462 5.21488C3.90482 5.11812 3.86894 4.9734 3.91199 4.84158C3.95509 4.70975 4.06965 4.61368 4.20753 4.59373L5.91023 4.34762L6.67166 2.813C6.73335 2.68871 6.86062 2.61002 7 2.61002C7.13938 2.61002 7.26665 2.68871 7.32834 2.813L8.08977 4.34762L9.79247 4.59373C9.93039 4.61365 10.0449 4.70975 10.088 4.84158C10.1311 4.9734 10.0951 5.11812 9.99538 5.21488Z" fill="#EEF2F9"/>
<path d="M13.8927 10.7251L12.1631 9.0044L11.7842 9.27789L11.5055 10.1304C11.2547 10.8988 10.5404 11.4148 9.72836 11.4148H8.82733L8.47255 11.6708L10.7074 13.8933C10.7766 13.9621 10.8703 14 10.9662 14C10.9911 14 11.0164 13.9975 11.0413 13.992C11.1621 13.9669 11.2621 13.8827 11.3071 13.7684L11.9991 12.0095L13.7671 11.3216C13.8824 11.2768 13.967 11.1774 13.9922 11.0568C14.0175 10.9367 13.9802 10.8117 13.8927 10.7251Z" fill="#EEF2F9"/>
<path d="M5.17267 11.4148H4.27164C3.45957 11.4148 2.74527 10.8988 2.49447 10.1304L2.21585 9.27789L1.83691 9.0044L0.107337 10.7251C0.0198328 10.8117 -0.0175119 10.9367 0.00775069 11.0568C0.0330133 11.1774 0.117588 11.2768 0.232917 11.3216L2.00093 12.0095L2.69291 13.7684C2.73794 13.8827 2.83789 13.9669 2.95872 13.992C2.98361 13.9975 3.00887 14 3.03377 14C3.1297 14 3.22342 13.9621 3.29262 13.8933L5.52745 11.6708L5.17267 11.4148Z" fill="#EEF2F9"/>
</svg>
