<svg width="16" height="16" viewBox="0 0 16 16" fill="none" xmlns="http://www.w3.org/2000/svg">
<path fill-rule="evenodd" clip-rule="evenodd" d="M8 16C3.6 16 0 12.4001 0 7.96017C0.04 3.56026 3.6 -0.039669 8.04 0.000330136C12.44 0.0403293 16 3.60026 16 8.08016C15.96 12.4401 12.4 16 8 16Z" fill="#E42D04"/>
<path fill-rule="evenodd" clip-rule="evenodd" d="M8.15587 13.8666C8.73652 13.8666 10.226 13.6049 11.5388 12.5578C13.0484 11.3537 13.1906 10.6823 13.2824 10.2493C13.2903 10.2116 13.2979 10.1757 13.306 10.1415C13.3213 10.0766 13.3303 9.98847 13.3334 9.88376C13.0163 9.83241 12.5718 9.80302 12.0532 9.86458C11.2049 9.96526 10.5384 10.5442 10.3112 10.821C10.185 10.1918 9.56898 8.93329 8.11482 8.93329C6.66065 8.93329 5.87635 10.1918 5.66596 10.821C5.53131 10.5861 5.02976 10.0659 4.10071 9.86458C3.52628 9.74009 3.0252 9.80161 2.66669 9.90636C2.69499 10.3743 2.84879 10.8733 3.25814 11.4C3.9625 12.3061 5.0554 12.8656 5.543 13.1152C5.59718 13.143 5.64388 13.1669 5.68175 13.187C6.06044 13.3884 7.09552 13.8666 8.15587 13.8666Z" fill="#FF8C30"/>
<path fill-rule="evenodd" clip-rule="evenodd" d="M13.3321 9.8654C13.0152 9.8142 12.5711 9.78488 12.0527 9.84627C11.2049 9.94666 10.5388 10.5239 10.3118 10.8C10.1856 10.1725 9.56996 8.91764 8.11664 8.91764C6.66332 8.91764 5.87947 10.1725 5.66921 10.8C5.53464 10.5657 5.03338 10.0471 4.10487 9.84627C3.53077 9.72214 3.02998 9.78348 2.67168 9.88798C2.64588 9.46247 2.72438 9.06286 2.80862 8.69176C2.94992 8.06933 3.30484 7.24444 3.46464 6.9098C3.32166 6.56679 2.99029 5.59466 2.80862 4.45019C2.62696 3.30572 2.93478 2.53437 3.1114 2.29176C3.39735 2.36705 4.08028 2.60298 4.52435 2.94431C4.96842 3.28564 5.65134 4.04026 5.9373 4.3749C6.30736 4.27451 7.25942 4.07372 8.1072 4.07372C8.95498 4.07372 9.77247 4.27451 10.0752 4.3749C10.3276 4.07372 10.9482 3.36596 11.4125 2.94431C11.8768 2.52266 12.632 2.31686 12.9516 2.26666C13.0357 2.37542 13.214 2.69333 13.2544 3.0949C13.3048 3.59686 13.1535 4.65098 12.9516 5.35372C12.7901 5.91592 12.5815 6.57516 12.4974 6.83451C12.5395 6.92653 12.6842 7.22604 12.9264 7.68784C13.1832 8.17755 13.3493 9.28131 13.3321 9.8654Z" fill="#FFAA35"/>
<path d="M9.19169 12.0989C9.13169 12.1792 9.06669 12.3331 9.04169 12.3999V12.3749L8.96669 11.7727C8.82504 11.7894 8.45669 11.8229 8.11669 11.8229C7.77669 11.8229 7.37502 11.7894 7.21669 11.7727L7.19169 12.3749C7.17502 12.3498 7.13169 12.2795 7.09169 12.1992C7.04169 12.0989 6.86669 11.9483 6.86669 11.8731C6.86669 11.8129 6.78335 11.6807 6.74169 11.6222L6.66669 11.5218H7.11669L7.21669 11.5971C7.30002 11.5887 7.51169 11.582 7.69169 11.6222C7.87169 11.6623 7.98334 11.5051 8.01669 11.4215V11.0201C7.94169 10.9699 7.75669 10.8545 7.61669 10.7943C7.44169 10.719 7.26669 10.4179 7.31669 10.1169C7.36669 9.81579 7.51669 9.71543 7.61669 9.74052C7.71669 9.76561 8.36669 9.71543 8.46669 9.74052C8.56669 9.76561 8.74169 9.81579 8.81669 9.94123C8.89169 10.0667 8.84169 10.5685 8.69169 10.7441C8.57169 10.8846 8.34169 10.9866 8.24169 11.0201V11.4215C8.24169 11.4717 8.41669 11.5971 8.44169 11.6222C8.46669 11.6473 8.84169 11.6222 8.91669 11.6222C8.97669 11.6222 9.02504 11.572 9.04169 11.5469H9.46669V11.6473C9.46669 11.6975 9.39169 11.9233 9.36669 11.9483C9.34169 11.9734 9.26669 11.9985 9.19169 12.0989Z" fill="black"/>
<path d="M8.38728 11.9332L8.13331 12.1332L7.93013 11.9332L7.75236 12.0221L7.59998 11.8666H8.66664L8.51426 12.0444L8.38728 11.9332Z" fill="black"/>
<path d="M5.65404 7.83068C5.3565 7.70761 5.03416 7.62556 4.91019 7.59991C4.87713 7.61699 4.81101 7.67171 4.81101 7.75376C4.81101 7.85632 4.78621 7.95889 4.81101 8.16402C4.8358 8.36915 5.03416 8.49735 5.38129 8.6512C5.72842 8.80504 6.3235 8.93325 6.74501 8.93325C7.16653 8.93325 6.76981 8.49735 6.62104 8.39479C6.47227 8.29222 6.02596 7.98453 5.65404 7.83068Z" fill="black"/>
<path d="M6.06126 7.15023C5.8389 7.18999 5.53064 7.19993 5.4043 7.19993C5.27796 7.18338 5.01013 7.1055 4.94949 6.92656C4.87368 6.70289 5.07582 6.45437 5.3285 6.33011C5.58118 6.20585 5.90965 6.25556 6.11179 6.55378C6.31393 6.85201 6.3392 7.10053 6.06126 7.15023Z" fill="#1E222A"/>
<path d="M10.6126 7.69738C10.9101 7.57431 11.2325 7.49225 11.3564 7.46661C11.3895 7.48369 11.4556 7.53841 11.4556 7.62046C11.4556 7.72302 11.4804 7.82559 11.4556 8.03072C11.4308 8.23584 11.2325 8.36405 10.8853 8.5179C10.5382 8.67174 9.94313 8.79995 9.52162 8.79995C9.10011 8.79995 9.49683 8.36405 9.64559 8.26149C9.79436 8.15892 10.2407 7.85123 10.6126 7.69738Z" fill="black"/>
<path d="M9.8054 7.15023C10.0278 7.18999 10.336 7.19993 10.4624 7.19993C10.5887 7.18336 10.8565 7.1055 10.9172 6.92656C10.993 6.70289 10.7908 6.45437 10.5382 6.33011C10.2855 6.20585 9.95701 6.25556 9.75486 6.55378C9.55272 6.85201 9.52746 7.10053 9.8054 7.15023Z" fill="#1E222A"/>
<path d="M4.32391 5.28988C4.14222 5.48833 3.79396 5.93484 3.64255 6.13329C3.5416 5.9183 3.31953 5.34445 3.23877 4.76895C3.15802 4.19344 3.22195 3.30538 3.26401 2.93329C3.37337 2.94156 3.69302 3.03251 4.09679 3.33019C4.50056 3.62786 5.0894 4.18187 5.33335 4.42166C5.07257 4.62838 4.50561 5.09143 4.32391 5.28988Z" fill="#FF8C30"/>
<path fill-rule="evenodd" clip-rule="evenodd" d="M3.20001 3.40581C3.59687 3.57142 4.11927 3.82458 4.33819 4.05339C4.56027 4.28549 4.75564 4.59274 4.87162 4.79996C5.04575 4.65558 5.21878 4.51688 5.33335 4.42675C5.08669 4.18614 4.49129 3.63024 4.08302 3.33155C3.67476 3.03285 3.35155 2.94159 3.24097 2.93329C3.22777 3.04919 3.21244 3.21499 3.20001 3.40581Z" fill="#FF9A32"/>
<path d="M11.5428 5.28988C11.7245 5.48833 12.0727 5.93484 12.2241 6.13329C12.3251 5.9183 12.5471 5.34445 12.6279 4.76895C12.7087 4.19344 12.6447 3.30538 12.6027 2.93329C12.4933 2.94156 12.1737 3.03251 11.7699 3.33019C11.3661 3.62786 10.7773 4.18187 10.5333 4.42166C10.7941 4.62838 11.3611 5.09143 11.5428 5.28988Z" fill="#FF8C30"/>
<path fill-rule="evenodd" clip-rule="evenodd" d="M12.6667 3.40581C12.2698 3.57142 11.7474 3.82458 11.5285 4.05339C11.3064 4.28549 11.111 4.59274 10.9951 4.79996C10.8209 4.65558 10.6479 4.51688 10.5333 4.42675C10.78 4.18614 11.3754 3.63024 11.7836 3.33155C12.1919 3.03285 12.5151 2.94159 12.6257 2.93329C12.6389 3.04919 12.6542 3.21499 12.6667 3.40581Z" fill="#FF9A32"/>
</svg>
