<svg width="15" height="15" viewBox="0 0 15 15" fill="none" xmlns="http://www.w3.org/2000/svg">
<path d="M1.33217 4.85872C1.04709 4.85872 0.805208 4.94885 0.606379 5.12911C0.40755 5.30936 0.308105 5.52566 0.308105 5.77812V9.65429C0.308105 9.91306 0.40752 10.1322 0.606379 10.3124C0.805208 10.4927 1.04709 10.5828 1.33217 10.5828C1.61704 10.5828 1.85745 10.4927 2.0532 10.3124C2.24856 10.1322 2.34651 9.91306 2.34651 9.65429V5.77812C2.34651 5.52564 2.24709 5.30936 2.04823 5.12911C1.84937 4.94885 1.61064 4.85872 1.33217 4.85872Z" fill="#55606F"/>
<path d="M9.56529 1.37909L10.2713 0.198394C10.3176 0.120227 10.3011 0.060287 10.2217 0.0181389C10.1354 -0.0182051 10.0692 0.000210956 10.0228 0.0720853L9.30699 1.26222C8.67708 1.00973 8.01086 0.883262 7.30831 0.883262C6.60562 0.883262 5.93934 1.00976 5.30967 1.26222L4.59379 0.0720853C4.54727 0.000210956 4.481 -0.0180424 4.39496 0.0181389C4.31532 0.0604769 4.29884 0.120227 4.34536 0.198394L5.05137 1.37909C4.33548 1.71006 3.76532 2.17101 3.3411 2.76292C2.91688 3.35517 2.70467 4.00236 2.70467 4.70565H11.902C11.902 4.00252 11.6897 3.3553 11.2655 2.76292C10.8413 2.17101 10.2744 1.71006 9.56529 1.37909ZM5.48361 3.09642C5.40726 3.1658 5.31608 3.20033 5.21008 3.20033C5.10387 3.20033 5.01454 3.1658 4.94166 3.09642C4.86879 3.02737 4.83235 2.94502 4.83235 2.8486C4.83235 2.75251 4.86879 2.67 4.94166 2.60079C5.01454 2.53173 5.10408 2.49721 5.21008 2.49721C5.31608 2.49721 5.40726 2.53173 5.48361 2.60079C5.55978 2.67017 5.59804 2.75251 5.59804 2.8486C5.59784 2.94486 5.5596 3.02737 5.48361 3.09642ZM9.67458 3.09642C9.60155 3.1658 9.51201 3.20033 9.40619 3.20033C9.29996 3.20033 9.2088 3.1658 9.1326 3.09642C9.05628 3.02737 9.0182 2.94502 9.0182 2.8486C9.0182 2.75251 9.05628 2.67 9.1326 2.60079C9.2088 2.53173 9.29996 2.49721 9.40619 2.49721C9.51219 2.49721 9.60152 2.53173 9.67458 2.60079C9.74751 2.67017 9.78389 2.75251 9.78389 2.8486C9.78389 2.94486 9.74749 3.02737 9.67458 3.09642Z" fill="#55606F"/>
<path d="M2.74416 11.0335C2.74416 11.3102 2.85016 11.5444 3.06218 11.7366C3.27438 11.9289 3.53275 12.0249 3.83775 12.0249H4.57359L4.58368 14.0714C4.58368 14.3299 4.68309 14.5493 4.88192 14.7296C5.08075 14.9099 5.31952 15 5.59781 15C5.88271 15 6.12473 14.9099 6.32359 14.7296C6.52245 14.5493 6.62187 14.3299 6.62187 14.0714V12.0251H7.99398V14.0714C7.99398 14.3299 8.09337 14.5493 8.29223 14.7296C8.49109 14.9099 8.73291 15 9.01802 15C9.30292 15 9.54495 14.9099 9.7438 14.7296C9.94266 14.5493 10.042 14.3299 10.042 14.0714V12.0251H10.7878C11.0861 12.0251 11.3411 11.929 11.5535 11.7368C11.7655 11.5446 11.8716 11.3104 11.8716 11.0337V5.02984H2.74416V11.0335Z" fill="#55606F"/>
<path d="M13.2841 4.85872C13.0056 4.85872 12.767 4.94752 12.5682 5.12463C12.3693 5.30207 12.2699 5.52002 12.2699 5.77812V9.65429C12.2699 9.91306 12.3693 10.1322 12.5682 10.3124C12.767 10.4927 13.0058 10.5828 13.2841 10.5828C13.569 10.5828 13.811 10.4927 14.0099 10.3124C14.2087 10.1322 14.3081 9.91306 14.3081 9.65429V5.77812C14.3081 5.52 14.2087 5.30207 14.0099 5.12463C13.811 4.94752 13.569 4.85872 13.2841 4.85872Z" fill="#55606F"/>
</svg>
