<svg width="13" height="15" viewBox="0 0 13 15" fill="none" xmlns="http://www.w3.org/2000/svg">
<path d="M10.2802 7.97698C10.263 6.08196 11.8451 5.16003 11.9174 5.11711C11.0214 3.82182 9.63264 3.64484 9.1446 3.63073C7.97818 3.50902 6.84676 4.32276 6.25258 4.32276C5.64654 4.32276 4.73155 3.64249 3.7454 3.66248C2.4764 3.68188 1.28922 4.41037 0.638117 5.54162C-0.705605 7.84822 0.296553 11.2379 1.58394 13.1023C2.22793 14.0154 2.98044 15.0349 3.9654 14.9991C4.92902 14.9597 5.28896 14.3899 6.45182 14.3899C7.60401 14.3899 7.94201 14.9991 8.94654 14.9762C9.98072 14.9597 10.6318 14.0589 11.2533 13.1376C11.9975 12.091 12.2964 11.0603 12.3082 11.0074C12.2839 10.9991 10.2998 10.2483 10.2802 7.97698Z" fill="#55606F"/>
<path d="M8.3826 2.4042C8.90087 1.76155 9.25548 0.887243 9.15705 0C8.40691 0.0329262 7.4688 0.514472 6.92858 1.14301C6.45063 1.69688 6.02367 2.6047 6.13397 3.45843C6.97661 3.52075 7.84179 3.03685 8.3826 2.4042Z" fill="#55606F"/>
</svg>
