<svg width="144" height="45" viewBox="0 0 144 45" fill="none" xmlns="http://www.w3.org/2000/svg">
<rect opacity="0.2" x="1" y="17.2061" width="17.875" height="27.7941" fill="url(#paint0_linear_115_32313)"/>
<rect opacity="0.2" x="36.75" y="17.2061" width="17.875" height="27.7941" fill="url(#paint1_linear_115_32313)"/>
<rect opacity="0.2" x="72.5" y="17.2061" width="17.875" height="27.7941" fill="url(#paint2_linear_115_32313)"/>
<rect opacity="0.2" x="108.25" y="17.2061" width="17.875" height="27.7941" fill="url(#paint3_linear_115_32313)"/>
<line opacity="0.3" x1="1" y1="44.75" x2="144" y2="44.75" stroke="#B5BACB" stroke-width="0.5"/>
<line opacity="0.3" x1="0.75" y1="45" x2="0.749999" y2="13.2353" stroke="#B5BACB" stroke-width="0.5"/>
<line opacity="0.3" x1="18.625" y1="45" x2="18.625" y2="27.7941" stroke="#B5BACB" stroke-width="0.5"/>
<line opacity="0.3" x1="36.5" y1="45" x2="36.5" y2="22.5" stroke="#B5BACB" stroke-width="0.5"/>
<line opacity="0.3" x1="54.375" y1="45" x2="54.375" y2="26.4706" stroke="#B5BACB" stroke-width="0.5"/>
<line opacity="0.3" x1="72.25" y1="45" x2="72.25" y2="25.1471" stroke="#B5BACB" stroke-width="0.5"/>
<line opacity="0.3" x1="90.125" y1="45" x2="90.125" y2="23.8235" stroke="#B5BACB" stroke-width="0.5"/>
<line opacity="0.3" x1="108" y1="45" x2="108" y2="21.1765" stroke="#B5BACB" stroke-width="0.5"/>
<line opacity="0.3" x1="125.875" y1="45" x2="125.875" y2="30.4412" stroke="#B5BACB" stroke-width="0.5"/>
<line opacity="0.3" x1="143.75" y1="45" x2="143.75" y2="35.7353" stroke="#B5BACB" stroke-width="0.5"/>
<path fill-rule="evenodd" clip-rule="evenodd" d="M2.01966 3.13541L1 6.27081L1.833 6.87611L2.66507 7.48141L3.26962 6.36191L3.8751 5.24174L4.93748 6.27544L6.00078 7.30913L9.70331 8.21213L13.4058 9.11512L14.016 12.3132L14.6261 15.512L15.968 19.1095L17.3089 22.7076L18.1429 22.8858L18.9777 23.0647L21.2074 20.4957L23.4371 17.9273L24.7558 18.8646L26.0754 19.8026H29.2263H32.3782L33.2567 18.6355L34.1352 17.4678L34.7861 15.0051L35.4362 12.5416H36.6629H37.8897L38.4552 13.8083L39.0208 15.075L42.6629 15.5127L46.3051 15.9497L47.1623 15.5734L48.0194 15.1965L49.1672 16.1794L50.315 17.1622H51.981H53.647L54.012 16.3853L54.376 15.6084L55.3947 16.0559L56.4144 16.5035L57.0524 19.8032L57.6913 23.103H58.997H60.3027V21.7828V20.4627H61.5963H62.8899L63.4638 19.4006L64.0368 18.3378L67.2341 18.7643L70.4305 19.1907L71.9377 17.5563L73.444 15.9219L74.6717 16.2566L75.8993 16.5913L77.1159 15.6658L78.3315 14.7404L82.5503 15.3529L86.7692 15.9655L87.8854 16.9767L89.0016 17.988L90.4503 17.5926L91.899 17.1979L94.3182 17.9814L96.7382 18.7649L98.4033 17.3035L100.068 15.8421H103.401H106.735V15.182V14.5219H109.908H113.081L113.391 13.9159L113.7 13.3106L116.169 13.6519L118.64 13.9925L119.203 15.4123L119.767 16.8322L121.135 15.5602L122.503 14.2882L123.13 14.7344L123.758 15.18L124.549 19.295L125.342 23.4093L126.609 24.311L127.878 25.212L129.782 24.4879L131.687 23.7631H132.138H132.59L133.18 25.6747L133.771 27.587L135.344 28.5718L136.916 29.5567L139.846 29.9989L142.776 30.4412L143.388 29.7375L144 29.0339L142.763 28.1546L141.526 27.2754L138.757 26.6239L135.988 25.9717L135.697 23.8773L135.405 21.7828H133.607H131.809V20.7927V19.8026H130.793H129.778L129.295 21.1155L128.812 22.4284L127.988 22.0667L127.165 21.7049V18.7299V15.7556L126.09 14.3272L125.015 12.8987L123.834 12.0604L122.655 11.2215H121.659H120.665L120.651 9.73627L120.636 8.25107L119.722 7.26094L118.808 6.27081L117.893 7.26094L116.979 8.25107L116.964 9.86234L116.95 11.4736L115.633 10.1937L114.317 8.91314L114.008 9.24252L113.7 9.57124L112.659 10.8914L111.618 12.2116H108.681H105.744L104.941 13.1324L104.137 14.0532L101.273 13.6466L98.4089 13.2393L97.0373 15.0354L95.6656 16.8322L95.6285 15.6223L95.5913 14.4117L94.4305 14.7113L93.2697 15.0104L90.4838 14.2123L87.6978 13.4143L86.6763 13.6605L85.6548 13.906L84.4735 12.8935L83.2914 11.8815H82.0897H80.888L80.4191 12.7067L79.951 13.5318L79.8777 12.3766L79.8043 11.2215H78.5107H77.2171L76.71 12.1601L76.203 13.0994L74.5212 12.8037L72.8394 12.5073L70.6302 14.9562L68.42 17.4045L67.1542 16.1734L65.8885 14.943L63.7916 16.3391L61.6956 17.7345L60.0705 17.0857L58.4454 16.4368V15.5813V14.7265L56.7468 13.6341L55.0493 12.5416H54.024H52.9988L52.3553 13.9833L51.7117 15.4249L50.4051 13.6532L49.0994 11.8815H48.3862H47.673L46.4964 12.7067L45.3189 13.5318L44.1181 12.3766L42.9183 11.2215H41.4232H39.9281L37.8108 8.5864L35.6934 5.95067L35.0592 5.94605L34.4258 5.94077L33.9661 7.09592L33.5065 8.25107L32.8843 11.7337L32.2621 15.2163L30.8245 16.2381L29.387 17.2599L28.6441 16.4051L27.9011 15.5503L27.2455 16.0157L26.5908 16.4817L25.5451 15.4658L24.5004 14.4499L23.0304 14.8513L21.5603 15.2519L20.2871 16.9437L19.013 18.6349L17.8764 16.7437L16.7397 14.8519L16.6979 12.739L16.6561 10.6261L15.6504 7.29329L14.6447 3.96051H13.3H11.9544L11.4287 4.93414L10.9031 5.90843L8.20818 4.91764L5.51231 3.92685V1.9631V0H4.27535H3.03932L2.01966 3.13541Z" fill="#B14C6B"/>
<defs>
<linearGradient id="paint0_linear_115_32313" x1="-38.8125" y1="99.9266" x2="-0.174473" y2="23.2946" gradientUnits="userSpaceOnUse">
<stop stop-color="#D9D9D9"/>
<stop offset="1" stop-color="#D9D9D9" stop-opacity="0"/>
</linearGradient>
<linearGradient id="paint1_linear_115_32313" x1="54.625" y1="109.853" x2="51.3883" y2="30.3746" gradientUnits="userSpaceOnUse">
<stop stop-color="#D9D9D9"/>
<stop offset="1" stop-color="#D9D9D9" stop-opacity="0"/>
</linearGradient>
<linearGradient id="paint2_linear_115_32313" x1="90.375" y1="142.28" x2="84.9787" y2="30.3098" gradientUnits="userSpaceOnUse">
<stop stop-color="#D9D9D9"/>
<stop offset="1" stop-color="#D9D9D9" stop-opacity="0"/>
</linearGradient>
<linearGradient id="paint3_linear_115_32313" x1="61.125" y1="114.485" x2="104.061" y2="22.7744" gradientUnits="userSpaceOnUse">
<stop stop-color="#D9D9D9"/>
<stop offset="1" stop-color="#D9D9D9" stop-opacity="0"/>
</linearGradient>
</defs>
</svg>
