<svg width="144" height="48" viewBox="0 0 144 48" fill="none" xmlns="http://www.w3.org/2000/svg">
<g opacity="0.5">
<rect opacity="0.2" x="1" y="18.353" width="17.875" height="29.6471" fill="url(#paint0_linear_115_32289)"/>
<rect opacity="0.2" x="36.75" y="18.353" width="17.875" height="29.6471" fill="url(#paint1_linear_115_32289)"/>
<rect opacity="0.2" x="72.5" y="18.353" width="17.875" height="29.6471" fill="url(#paint2_linear_115_32289)"/>
<rect opacity="0.2" x="108.25" y="18.353" width="17.875" height="29.6471" fill="url(#paint3_linear_115_32289)"/>
</g>
<line opacity="0.3" x1="1" y1="47.75" x2="144" y2="47.75" stroke="#B5BACB" stroke-width="0.5"/>
<line opacity="0.3" x1="0.75" y1="48" x2="0.749999" y2="18.3529" stroke="#B5BACB" stroke-width="0.5"/>
<line opacity="0.3" x1="18.625" y1="48" x2="18.625" y2="35.2941" stroke="#B5BACB" stroke-width="0.5"/>
<line opacity="0.3" x1="36.5" y1="48" x2="36.5" y2="32.4706" stroke="#B5BACB" stroke-width="0.5"/>
<line opacity="0.3" x1="54.375" y1="48" x2="54.375" y2="32.4706" stroke="#B5BACB" stroke-width="0.5"/>
<line opacity="0.3" x1="72.25" y1="48" x2="72.25" y2="28.2353" stroke="#B5BACB" stroke-width="0.5"/>
<line opacity="0.3" x1="90.125" y1="48" x2="90.125" y2="24" stroke="#B5BACB" stroke-width="0.5"/>
<line opacity="0.3" x1="108" y1="48" x2="108" y2="21.1765" stroke="#B5BACB" stroke-width="0.5"/>
<line opacity="0.3" x1="125.875" y1="48" x2="125.875" y2="28.2353" stroke="#B5BACB" stroke-width="0.5"/>
<line opacity="0.3" x1="143.75" y1="48" x2="143.75" y2="18.3529" stroke="#B5BACB" stroke-width="0.5"/>
<path fill-rule="evenodd" clip-rule="evenodd" d="M81.4963 0.429882L80.8774 0.85912L80.869 3.81351L80.8616 6.76726L80.2761 10.1509L79.6906 13.5345H78.4286H77.1657V14.4278V15.3211L73.9179 16.3916L70.6701 17.4621V18.2755V19.0888L69.4425 20.2554L68.2139 21.4219L66.1353 20.5396L64.0577 19.6573L61.7963 21.4658L59.5349 23.2742L59.521 21.788L59.5062 20.3018L58.6673 19.3802L57.8275 18.4592L56.1461 18.2877L54.4656 18.1163L52.9169 19.0901L51.3682 20.0633L50.7418 19.3602L50.1164 18.657L47.6407 18.8349L45.1659 19.0128L44.2426 17.5627L43.3202 16.1125H41.752H40.1847L39.8739 17.2333L39.563 18.3535L37.4084 16.8569L35.2537 15.3604L34.7554 15.7065L34.2571 16.0532L33.5092 18.822L32.7622 21.5908L31.696 23.5243L30.6308 25.4578L29.5395 24.4575L28.4492 23.4573L26.5933 23.4225L24.7374 23.3883L23.3391 22.9642L21.9407 22.5401L21.0192 23.9574L20.0978 25.3747L19.0167 25.6125L17.9357 25.8509L17.4662 24.6876L16.9966 23.5243L16.3879 18.5842L15.7783 13.6447L14.4003 12.4614L13.0214 11.2788L12.5602 12.0399L12.099 12.8004L9.0062 11.5334L5.91433 10.2663L5.43737 9.00046L4.96042 7.73402H3.58151H2.20167L1.60037 8.82193L1 9.90921L2.42902 10.4648L3.85896 11.0203V11.9555V12.89H4.93165H6.00341L8.99228 14.4736L11.9812 16.0571L12.4999 15.6968L13.0186 15.3366L13.4937 17.4969L13.9697 19.6573L14.5181 22.5575L15.0675 25.4578L16.1448 27.5524L17.223 29.6471H18.4516H19.6802L20.5618 28.0358L21.4433 26.4246H22.2524H23.0607L26.0727 27.468L29.0848 28.5121L31.2747 27.6981L33.4637 26.8841L34.0966 24.8829L34.7294 22.8817L36.6929 21.4419L38.6564 20.0021L40.5374 19.9905L42.4192 19.9795L44.56 21.0211L46.7007 22.0619L47.6917 21.3736L48.6837 20.6846L50.47 21.3485L52.2562 22.0123L53.5488 21.6675L54.8414 21.3233L56.2603 22.3088L57.6791 23.2942V24.2146V25.1355H59.071H60.4629L62.1517 23.9626L63.8405 22.7896L67.1384 23.057L70.4372 23.3239L71.7076 21.3298L72.9788 19.335H75.474H77.9683L78.5576 18.046L79.1468 16.757H80.3763H81.6067L82.17 15.7374L82.7333 14.7178V11.8479V8.9779L84.578 9.66365L86.4227 10.3494L87.0259 12.1031L87.629 13.8568L88.5774 14.6921L89.5257 15.5267L90.7422 15.2025L91.9588 14.8783L93.3117 15.8174L94.6637 16.757H96.5864H98.5081V16.1377V15.5183L100.395 14.2976L102.281 13.0769L104.479 13.3689L106.677 13.6608L107.357 12.1476L108.038 10.6343L108.989 10.2102L109.941 9.78611L111.769 10.5324L113.597 11.2788L114.018 10.4731L114.438 9.66752H116.68H118.923V10.6504V11.6332L121.216 12.2384L123.51 12.8443L123.949 14.3176L124.389 15.7903L124.957 18.8368L125.526 21.8828L126.283 22.2082L127.04 22.5337L129.525 20.934L132.009 19.335H132.89H133.77V18.6783V18.0215L136.002 18.4108L138.234 18.7995L138.724 17.6174L139.213 16.4348L140.374 10.5079L141.534 4.58176L142.227 4.87952L142.921 5.17728L143.461 4.57016L144 3.96368L142.9 2.28733L141.801 0.610987L140.801 0.841719L139.801 1.07245L138.214 8.02984L136.629 14.9866L136.126 15.3346L135.625 15.6826V13.6422V11.601H134.21H132.795L132.238 13.5345L131.682 15.468H130.406H129.13V17.4015V19.335H128.202H127.274V16.7441V14.1532L124.921 11.5643L122.568 8.97532L121.673 9.35945L120.778 9.74357L120.765 8.57767L120.75 7.41176L119.907 6.48626L119.064 5.5614L117.765 6.31031L116.465 7.05858L115.405 6.32191L114.344 5.58525L113.741 6.67574L113.138 7.76688L111.816 7.00444L110.492 6.24199L109.491 6.93741L108.489 7.63347L107.267 7.30736L106.045 6.98188L105.422 9.28791L104.799 11.5933L101.35 11.2105L97.9022 10.8276L96.9074 12.9867L95.9136 15.1458L95.819 14.1384L95.7243 13.1304L92.4765 12.2455L89.2288 11.3606V10.3082V9.25568L86.909 7.85454L84.5891 6.45339L84.5761 4.67715L84.5641 2.90026L84.0045 1.45013L83.445 0H82.7796H82.1143L81.4963 0.429882Z" fill="#71BA57"/>
<defs>
<linearGradient id="paint0_linear_115_32289" x1="-38.8125" y1="106.588" x2="3.95466" y2="27.0681" gradientUnits="userSpaceOnUse">
<stop stop-color="#D9D9D9"/>
<stop offset="1" stop-color="#D9D9D9" stop-opacity="0"/>
</linearGradient>
<linearGradient id="paint1_linear_115_32289" x1="54.625" y1="117.177" x2="50.9432" y2="32.4188" gradientUnits="userSpaceOnUse">
<stop stop-color="#D9D9D9"/>
<stop offset="1" stop-color="#D9D9D9" stop-opacity="0"/>
</linearGradient>
<linearGradient id="paint2_linear_115_32289" x1="93.625" y1="121.412" x2="86.8678" y2="28.0775" gradientUnits="userSpaceOnUse">
<stop stop-color="#D9D9D9"/>
<stop offset="1" stop-color="#D9D9D9" stop-opacity="0"/>
</linearGradient>
<linearGradient id="paint3_linear_115_32289" x1="61.125" y1="122.118" x2="109.843" y2="18.9365" gradientUnits="userSpaceOnUse">
<stop stop-color="#D9D9D9"/>
<stop offset="1" stop-color="#D9D9D9" stop-opacity="0"/>
</linearGradient>
</defs>
</svg>
