<svg width="16" height="16" viewBox="0 0 16 16" fill="none" xmlns="http://www.w3.org/2000/svg">
<path d="M6.91326 6.10542L6.94052 6.05094L6.47887 5.8201L6.45161 5.87455C6.35323 6.07132 6.15545 6.19355 5.93548 6.19355C5.71552 6.19355 5.51774 6.07132 5.41935 5.87455L5.3921 5.82006L4.93045 6.0509L4.95771 6.10539C5.1441 6.47813 5.51874 6.70968 5.93548 6.70968C6.35223 6.70968 6.72687 6.47813 6.91326 6.10542Z" fill="white"/>
<path d="M5.93548 9.80645C5.50858 9.80645 5.16129 10.1538 5.16129 10.5806C5.16129 11.0075 5.50858 11.3548 5.93548 11.3548C6.36239 11.3548 6.70968 11.0075 6.70968 10.5806C6.70968 10.1538 6.36239 9.80645 5.93548 9.80645ZM5.93548 10.8387C5.79319 10.8387 5.67742 10.7229 5.67742 10.5806C5.67742 10.4384 5.79319 10.3226 5.93548 10.3226C6.07777 10.3226 6.19355 10.4384 6.19355 10.5806C6.19355 10.7229 6.07777 10.8387 5.93548 10.8387Z" fill="white"/>
<path d="M11.871 5.67742H12.3871V5.16129H12.9032V5.67742H13.4194V5.02242C13.7276 4.84365 13.9355 4.51026 13.9355 4.12903C13.9355 3.82106 13.7999 3.54413 13.5853 3.35484C13.7999 3.16555 13.9355 2.88861 13.9355 2.58065C13.9355 2.19942 13.7276 1.86603 13.4194 1.68726V1.03226H12.9032V1.54839H12.3871V1.03226H11.871V1.54839H11.3548V5.16129H11.871V5.67742ZM11.871 2.06452H12.9032C13.1878 2.06452 13.4194 2.29606 13.4194 2.58065C13.4194 2.86523 13.1878 3.09677 12.9032 3.09677H11.871V2.06452ZM11.871 3.6129H12.9032C13.1878 3.6129 13.4194 3.84445 13.4194 4.12903C13.4194 4.41361 13.1878 4.64516 12.9032 4.64516H11.871V3.6129Z" fill="white"/>
<path d="M0.516129 8.77419H1.03226V8.25806H1.54839V4.64516H1.03226V4.12903H0.516129V4.64516H2.38419e-07V8.25806H0.516129V8.77419ZM0.516129 5.16129H1.03226V7.74194H0.516129V5.16129Z" fill="white"/>
<path d="M11.3548 7.22581H10.8387V8.25806H10.3226V9.49577C10.1767 9.25364 10.0031 9.03003 9.80645 8.8291V7.22581H9.29032V6.70968H8.77419V7.22581H8.25806V7.89245C7.93084 7.79471 7.58439 7.74194 7.22581 7.74194H6.96774V7.68284C7.63694 7.46623 8.12894 6.88516 8.23603 6.19355H8.25806C8.81394 6.19355 9.26835 5.75184 9.28932 5.201L9.49055 4.49671C9.95871 5.7861 11.1961 6.70968 12.6452 6.70968C14.495 6.70968 16 5.20471 16 3.35484C16 1.50497 14.495 0 12.6452 0C11.3085 0 10.152 0.785903 9.61316 1.91987C9.18664 0.798774 8.10097 0 6.83203 0H5.93548C5.08868 0 4.27794 0.385387 3.74203 1.03681C2.8059 1.10313 2.06452 1.88597 2.06452 2.83871C2.06452 3.031 2.08816 3.22313 2.13481 3.40971L2.58155 5.19668C2.60029 5.74952 3.05558 6.19355 3.6129 6.19355H3.63494C3.742 6.88516 4.234 7.46623 4.90323 7.68284V7.74194H4.64516C4.29048 7.74194 3.945 7.78206 3.6129 7.85771V7.22581H3.09677V6.70968H2.58065V7.22581H2.06452V8.52664C0.820516 9.36097 0 10.7799 0 12.3871V13.0323C0 13.8149 0.63671 14.4516 1.41935 14.4516C1.72445 14.4516 2.0269 14.3508 2.27097 14.1677L2.58065 13.9355V14.2249C2.58065 14.3022 2.55055 14.3748 2.4959 14.4295L2.30045 14.6249C2.14832 14.7771 2.06452 14.9793 2.06452 15.1945C2.06452 15.6386 2.42587 16 2.87003 16H10.8387V11.871H11.871V8.25806H11.3548V7.22581ZM8.77419 7.74194H9.29032V8.39164C9.12752 8.27787 8.955 8.17713 8.77419 8.091V7.74194ZM7.22581 8.25806V8.77419H6.45161L6.83871 8.25806H7.22581ZM3.12703 11.3992L3.09677 11.4059V8.55964C3.42242 8.42742 3.76852 8.33545 4.12903 8.29029V8.77419C3.84445 8.77419 3.6129 9.00574 3.6129 9.29032V10.8831C3.37874 10.9662 3.19619 11.1588 3.12703 11.3992ZM3.87097 12.9032C3.72868 12.9032 3.6129 12.7875 3.6129 12.6452V11.6129C3.6129 11.4706 3.72868 11.3548 3.87097 11.3548C4.01326 11.3548 4.12903 11.4706 4.12903 11.6129V12.6452C4.12903 12.7875 4.01326 12.9032 3.87097 12.9032ZM4.12903 13.375C4.42939 13.2685 4.64516 12.9816 4.64516 12.6452V11.6129C4.64516 11.2765 4.42939 10.9896 4.12903 10.8831V9.29032H7.74194V13.9355H4.12903V13.375ZM5.38552 4.35897C5.19929 4.21642 4.93839 4.12903 4.64516 4.12903C4.45581 4.12903 4.28006 4.16561 4.12903 4.22977V3.6129C4.12903 3.32832 4.36058 3.09677 4.64516 3.09677H4.80465L4.99581 2.71442C5.03706 2.63187 5.12039 2.58065 5.21329 2.58065H5.21984C5.27955 2.58065 5.33571 2.6039 5.37794 2.64613L5.38332 2.65152C6.00326 3.27145 6.82752 3.61287 7.70432 3.6129C7.71694 3.6129 7.72939 3.612 7.74194 3.61161V4.22977C7.5909 4.16561 7.41516 4.12903 7.22581 4.12903C6.93258 4.12903 6.67168 4.21642 6.48545 4.35897C6.34503 4.2171 6.15039 4.12903 5.93548 4.12903C5.72058 4.12903 5.52594 4.2171 5.38552 4.35897ZM5.16129 4.90323C5.16129 5.00845 4.96023 5.16129 4.64516 5.16129C4.3301 5.16129 4.12903 5.00845 4.12903 4.90323C4.12903 4.798 4.3301 4.64516 4.64516 4.64516C4.96023 4.64516 5.16129 4.798 5.16129 4.90323ZM7.22581 4.64516C7.54087 4.64516 7.74194 4.798 7.74194 4.90323C7.74194 5.00845 7.54087 5.16129 7.22581 5.16129C6.91074 5.16129 6.70968 5.00845 6.70968 4.90323C6.70968 4.798 6.91074 4.64516 7.22581 4.64516ZM8.25806 5.67742V4.64516C8.54264 4.64516 8.77419 4.87671 8.77419 5.16129C8.77419 5.44587 8.54264 5.67742 8.25806 5.67742ZM12.6452 0.516129C14.2104 0.516129 15.4839 1.78958 15.4839 3.35484C15.4839 4.9201 14.2104 6.19355 12.6452 6.19355C11.0799 6.19355 9.80645 4.9201 9.80645 3.35484C9.80645 1.78958 11.0799 0.516129 12.6452 0.516129ZM3.87097 1.54839H4L4.07742 1.44516C4.51371 0.863452 5.20832 0.516129 5.93548 0.516129H6.83203C8.18755 0.516129 9.29032 1.6189 9.29032 2.97439C9.29032 3.20284 9.25852 3.43006 9.19574 3.64974L8.97558 4.42023C8.78971 4.24019 8.53668 4.12903 8.25806 4.12903V3.4721C8.46035 3.36171 8.62852 3.191 8.73652 2.975L8.93368 2.58065H8.3871C8.0639 2.58065 7.75519 2.42629 7.56129 2.16774C7.27042 1.77994 6.80735 1.54839 6.32258 1.54839H6.19355V2.06452H6.32258C6.64577 2.06452 6.95448 2.21887 7.14839 2.47742C7.3541 2.75171 7.64594 2.94781 7.97064 3.03913C7.88881 3.07655 7.79839 3.09677 7.70426 3.09677C6.96535 3.09674 6.27071 2.809 5.74826 2.28655L5.74287 2.28116C5.60319 2.14145 5.41742 2.06452 5.21984 2.06452H5.21329C4.92365 2.06452 4.66342 2.22513 4.53416 2.48358L4.47897 2.594C3.98852 2.67374 3.6129 3.10026 3.6129 3.6129V4.12903C3.34394 4.12903 3.09874 4.23255 2.91481 4.40168L2.63552 3.28452C2.5991 3.13884 2.58065 2.98884 2.58065 2.83871C2.58065 2.12723 3.15948 1.54839 3.87097 1.54839ZM3.09677 5.16129C3.09677 4.87671 3.32832 4.64516 3.6129 4.64516V5.67742C3.32832 5.67742 3.09677 5.44587 3.09677 5.16129ZM4.12903 5.90993V5.57668C4.28006 5.64084 4.45581 5.67742 4.64516 5.67742C5.224 5.67742 5.67742 5.33736 5.67742 4.90323C5.67742 4.76094 5.79319 4.64516 5.93548 4.64516C6.07777 4.64516 6.19355 4.76094 6.19355 4.90323C6.19355 5.33736 6.64697 5.67742 7.22581 5.67742C7.41516 5.67742 7.5909 5.64084 7.74194 5.57668V5.90993C7.74194 6.54984 7.28652 7.10535 6.65906 7.23081L6.45161 7.27229V7.91397L5.93548 8.60213L5.41935 7.91397V7.27229L5.2119 7.23081C4.58445 7.10535 4.12903 6.54984 4.12903 5.90993ZM5.03226 8.25806L5.41935 8.77419H4.64516V8.25806H5.03226ZM2.58065 7.74194H3.09677V8.00761C2.91955 8.07045 2.74729 8.14374 2.58065 8.22677V7.74194ZM1.96129 13.7548C1.806 13.8713 1.61352 13.9355 1.41935 13.9355C0.921323 13.9355 0.516129 13.5303 0.516129 13.0323V12.3871C0.516129 10.8619 1.34742 9.52732 2.58065 8.81236V11.5206L0.97629 11.8771L1.08826 12.3809L3.09677 11.9346V12.6452C3.09677 12.7258 3.10919 12.8035 3.13216 12.8767L1.96129 13.7548ZM2.87003 15.4839C2.71048 15.4839 2.58065 15.3541 2.58065 15.1945C2.58065 15.1172 2.61074 15.0445 2.66539 14.9899L2.86084 14.7944C3.01297 14.6423 3.09677 14.44 3.09677 14.2249V13.5484L3.44216 13.2894C3.4949 13.3246 3.55216 13.3534 3.6129 13.375V13.9355C3.6129 14.2201 3.84445 14.4516 4.12903 14.4516H7.74194C8.02652 14.4516 8.25806 14.2201 8.25806 13.9355V9.29032C8.25806 9.00574 8.02652 8.77419 7.74194 8.77419V8.30132C8.11232 8.36374 8.46058 8.49197 8.77419 8.67377V14.2249C8.77419 14.44 8.858 14.6423 9.01013 14.7945L9.20558 14.9899C9.26023 15.0445 9.29032 15.1172 9.29032 15.1945C9.29032 15.3541 9.16051 15.4839 9.00093 15.4839H2.87003V15.4839ZM10.3226 15.4839H9.75248C9.78723 15.394 9.80645 15.2965 9.80645 15.1945C9.80645 14.9793 9.72264 14.7771 9.57052 14.6249L9.37506 14.4295C9.32042 14.3748 9.29032 14.3022 9.29032 14.2248V9.04877C9.92348 9.61619 10.3226 10.4397 10.3226 11.3548V15.4839ZM11.3548 11.3548H10.8387V8.77419H11.3548V11.3548Z" fill="white"/>
<path d="M15.4839 6.70968H14.9677V7.22581H14.4516V12.3871H14.9677V13.4194H15.4839V12.3871H16V7.22581H15.4839V6.70968ZM15.4839 11.871H14.9677V7.74194H15.4839V11.871Z" fill="white"/>
<path d="M13.4194 7.22581H12.9032V7.74194H12.3871V9.29032H12.9032V12.3871H13.4194V9.29032H13.9355V7.74194H13.4194V7.22581ZM13.4194 8.77419H12.9032V8.25806H13.4194V8.77419Z" fill="white"/>
</svg>
