<svg width="16" height="10" viewBox="0 0 16 10" fill="none" xmlns="http://www.w3.org/2000/svg">
<path d="M13.8647 2.00151C13.9253 2.00154 13.9841 1.98221 14.0314 1.94676L14.7758 1.38854C15.151 1.60699 15.6441 1.49896 15.8771 1.14729C16.1102 0.795632 15.9949 0.333433 15.6197 0.115015C15.2445 -0.103435 14.7515 0.00460294 14.5184 0.356265C14.391 0.548603 14.3631 0.784669 14.4426 0.998464L13.7712 1.50177H11.8035C9.74754 -0.467185 6.37796 -0.501136 4.27733 1.42593C4.25008 1.45095 4.22312 1.47622 4.19643 1.50177H2.22873L1.55748 0.998433C1.70326 0.606948 1.48287 0.178794 1.0652 0.0421461C0.647537 -0.0945021 0.190751 0.112079 0.0449645 0.503564C-0.100822 0.895049 0.119574 1.3232 0.537239 1.45985C0.765965 1.53469 1.01855 1.50848 1.22425 1.38854L1.96858 1.94676C2.01586 1.98221 2.07464 2.00154 2.13519 2.00151H3.73737C3.37399 2.45381 3.09538 2.96079 2.91357 3.50073H1.55618C1.40896 3.1104 0.952005 2.90585 0.535606 3.04388C0.119174 3.18187 -0.0990557 3.61018 0.0481968 4.00048C0.195449 4.39077 0.652369 4.59536 1.06877 4.45733C1.29653 4.38187 1.47567 4.21393 1.55618 4.00048H2.77555C2.63263 4.66007 2.63263 5.33985 2.77555 5.99944H1.55618C1.40896 5.60911 0.952005 5.40456 0.535606 5.54259C0.119207 5.68061 -0.0990557 6.10889 0.0481968 6.49918C0.195449 6.88948 0.652369 7.09407 1.06877 6.95604C1.29653 6.88058 1.47567 6.71264 1.55618 6.49918H2.91357C3.09538 7.03912 3.37399 7.54611 3.73737 7.99841H2.13519C2.07464 7.99838 2.01586 8.01771 1.96858 8.05316L1.22415 8.61137C0.848939 8.39292 0.355864 8.50093 0.122806 8.85262C-0.110252 9.20432 0.00497741 9.66649 0.38019 9.88494C0.755402 10.1034 1.24848 9.99538 1.48153 9.64369C1.60899 9.45135 1.63688 9.21531 1.55738 9.00149L2.22873 8.49815H4.19643C6.2524 10.4671 9.62198 10.5011 11.7226 8.57399C11.7499 8.54897 11.7768 8.5237 11.8035 8.49815H13.7712L14.4425 9.00145C14.2966 9.39294 14.517 9.82112 14.9347 9.95784C15.3523 10.0945 15.8091 9.88797 15.955 9.49648C16.1009 9.10499 15.8805 8.67681 15.4628 8.5401C15.234 8.46523 14.9814 8.49144 14.7757 8.61137L14.0314 8.05316C13.9841 8.01771 13.9253 7.99838 13.8647 7.99841H12.2626C12.6259 7.54611 12.9046 7.03912 13.0864 6.49918H14.4438C14.591 6.88951 15.0479 7.09407 15.4643 6.95604C15.8808 6.81805 16.099 6.38974 15.9517 5.99944C15.8045 5.60911 15.3476 5.40456 14.9312 5.54259C14.7034 5.61805 14.5243 5.78599 14.4438 5.99944H13.2244C13.3673 5.33985 13.3673 4.66007 13.2244 4.00048H14.4438C14.591 4.39081 15.0479 4.59536 15.4643 4.45733C15.8808 4.31934 16.099 3.89103 15.9517 3.50073C15.8045 3.1104 15.3476 2.90585 14.9312 3.04388C14.7034 3.11934 14.5243 3.28728 14.4438 3.50073H13.0864C12.9046 2.96079 12.6259 2.45381 12.2626 2.00151H13.8647ZM15.1976 0.502283C15.3449 0.502283 15.4642 0.614163 15.4642 0.752154C15.4642 0.890145 15.3449 1.00203 15.1976 1.00203C15.0504 1.00203 14.9311 0.890145 14.9311 0.752154C14.9312 0.614225 15.0505 0.502439 15.1976 0.502283ZM0.535706 0.752154C0.535706 0.614163 0.655068 0.502283 0.802287 0.502283C0.949506 0.502283 1.06887 0.614163 1.06887 0.752154C1.06887 0.890145 0.949506 1.00203 0.802287 1.00203C0.655101 1.00187 0.53584 0.890083 0.535706 0.752154ZM0.802287 9.49764C0.655068 9.49764 0.535706 9.38576 0.535706 9.24776C0.535706 9.10977 0.655068 8.99789 0.802287 8.99789C0.949506 8.99789 1.06887 9.10977 1.06887 9.24776C1.0687 9.38569 0.94944 9.49748 0.802287 9.49764ZM15.1976 8.99789C15.3449 8.99789 15.4642 9.10977 15.4642 9.24776C15.4642 9.38576 15.3449 9.49764 15.1976 9.49764C15.0504 9.49764 14.9311 9.38576 14.9311 9.24776C14.9312 9.10984 15.0505 8.99805 15.1976 8.99789ZM0.802287 4.00048C0.655068 4.00048 0.535706 3.8886 0.535706 3.75061C0.535706 3.61261 0.655068 3.50073 0.802287 3.50073C0.949506 3.50073 1.06887 3.61261 1.06887 3.75061C1.0687 3.88853 0.94944 4.00032 0.802287 4.00048ZM0.802287 6.49918C0.655068 6.49918 0.535706 6.3873 0.535706 6.24931C0.535706 6.11132 0.655068 5.99944 0.802287 5.99944C0.949506 5.99944 1.06887 6.11132 1.06887 6.24931C1.0687 6.38724 0.94944 6.49903 0.802287 6.49918ZM15.1976 5.99944C15.3449 5.99944 15.4642 6.11132 15.4642 6.24931C15.4642 6.3873 15.3449 6.49918 15.1976 6.49918C15.0504 6.49918 14.9311 6.3873 14.9311 6.24931C14.9312 6.11138 15.0505 5.9996 15.1976 5.99944ZM15.1976 3.50073C15.3449 3.50073 15.4642 3.61261 15.4642 3.75061C15.4642 3.8886 15.3449 4.00048 15.1976 4.00048C15.0504 4.00048 14.9311 3.8886 14.9311 3.75061C14.9312 3.61268 15.0505 3.50089 15.1976 3.50073ZM7.99997 9.49764C5.35415 9.49764 3.20151 7.47993 3.20151 4.99996C3.20151 2.51999 5.35415 0.502283 7.99997 0.502283C10.6458 0.502283 12.7984 2.51999 12.7984 4.99996C12.7984 7.47993 10.6458 9.49764 7.99997 9.49764Z" fill="white"/>
<path d="M7.99997 1.00203C5.64433 1.00203 3.73468 2.79198 3.73468 4.99996C3.73468 7.20794 5.64433 8.99789 7.99997 8.99789C10.3556 8.99789 12.2653 7.20794 12.2653 4.99996C12.2626 2.79301 10.3545 1.00452 7.99997 1.00203ZM7.99997 8.49815C5.93877 8.49815 4.26784 6.93196 4.26784 4.99996C4.26784 3.06796 5.93877 1.50177 7.99997 1.50177C10.0612 1.50177 11.7321 3.06796 11.7321 4.99996C11.7298 6.93106 10.0602 8.49597 7.99997 8.49815Z" fill="white"/>
<path d="M5.49411 5.6996L7.44178 4.3304L7.81146 4.67691C7.9107 4.76992 8.06988 4.77489 8.17551 4.68828L9.86603 3.30174V3.50073C9.86603 3.63873 9.98539 3.75061 10.1326 3.75061C10.2798 3.75061 10.3992 3.63873 10.3992 3.50073V2.75112C10.3992 2.61313 10.2798 2.50125 10.1326 2.50125H9.33287C9.18565 2.50125 9.06629 2.61313 9.06629 2.75112C9.06629 2.88911 9.18565 3.00099 9.33287 3.00099H9.42311L8.0121 4.15824L7.65531 3.82379C7.56151 3.73586 7.41299 3.72596 7.30686 3.80058L5.17421 5.2998C5.05635 5.38251 5.03232 5.53912 5.12056 5.64959C5.2088 5.76007 5.37625 5.78231 5.49411 5.6996C5.49398 5.69969 5.49421 5.6995 5.49411 5.6996Z" fill="white"/>
<path d="M10.3992 6.74906V4.50022C10.3992 4.36223 10.2798 4.25035 10.1326 4.25035C9.98539 4.25035 9.86603 4.36223 9.86603 4.50022V6.74906H9.33287V4.75009C9.33287 4.6121 9.21351 4.50022 9.06629 4.50022C8.91907 4.50022 8.79971 4.6121 8.79971 4.75009V6.74906H8.26655V5.24983C8.26655 5.11184 8.14719 4.99996 7.99997 4.99996C7.85275 4.99996 7.73339 5.11184 7.73339 5.24983V6.74906H7.20023V5.4997C7.20023 5.36171 7.08086 5.24983 6.93364 5.24983C6.78643 5.24983 6.66706 5.36171 6.66706 5.4997V6.74906H6.1339V5.99944C6.1339 5.86145 6.01454 5.74957 5.86732 5.74957C5.7201 5.74957 5.60074 5.86145 5.60074 5.99944V6.74906C5.45352 6.74906 5.33416 6.86094 5.33416 6.99893C5.33416 7.13692 5.45352 7.2488 5.60074 7.2488H10.3992C10.5464 7.2488 10.6658 7.13692 10.6658 6.99893C10.6658 6.86094 10.5464 6.74906 10.3992 6.74906Z" fill="white"/>
</svg>
