<svg width="16" height="16" viewBox="0 0 16 16" fill="none" xmlns="http://www.w3.org/2000/svg">
<path d="M2.58065 3.6129C2.43845 3.6129 2.32258 3.49703 2.32258 3.35484H1.80645C1.80645 3.78168 2.15381 4.12903 2.58065 4.12903V4.64516H3.09677V4.12903H3.87097V3.35484C3.87097 2.928 3.52361 2.58065 3.09677 2.58065H2.58065C2.43845 2.58065 2.32258 2.46477 2.32258 2.32258V2.06452H3.09677C3.23897 2.06452 3.35484 2.18039 3.35484 2.32258H3.87097C3.87097 1.89574 3.52361 1.54839 3.09677 1.54839V1.03226H2.58065V1.54839H1.80645V2.32258C1.80645 2.74942 2.15381 3.09677 2.58065 3.09677H3.09677C3.23897 3.09677 3.35484 3.21265 3.35484 3.35484V3.6129H2.58065Z" fill="white"/>
<path d="M2.83871 5.67742C4.40387 5.67742 5.67742 4.40387 5.67742 2.83871C5.67742 1.27355 4.40387 0 2.83871 0C1.27355 0 0 1.27355 0 2.83871C0 4.40387 1.27355 5.67742 2.83871 5.67742ZM2.83871 0.516129C4.11923 0.516129 5.16129 1.55819 5.16129 2.83871C5.16129 4.11923 4.11923 5.16129 2.83871 5.16129C1.55819 5.16129 0.516129 4.11923 0.516129 2.83871C0.516129 1.55819 1.55819 0.516129 2.83871 0.516129Z" fill="white"/>
<path d="M2.83871 10.3226C1.27355 10.3226 0 11.5961 0 13.1613C0 14.7265 1.27355 16 2.83871 16C4.40387 16 5.67742 14.7265 5.67742 13.1613C5.67742 11.5961 4.40387 10.3226 2.83871 10.3226ZM2.83871 15.4839C1.55819 15.4839 0.516129 14.4418 0.516129 13.1613C0.516129 11.8808 1.55819 10.8387 2.83871 10.8387C4.11923 10.8387 5.16129 11.8808 5.16129 13.1613C5.16129 14.4418 4.11923 15.4839 2.83871 15.4839Z" fill="white"/>
<path d="M8.25806 6.19355V5.67742H7.74194V6.19355H7.22581V9.80645H7.74194V10.3226H8.25806V9.80645C8.82735 9.80645 9.29032 9.34348 9.29032 8.77419C9.29032 8.46632 9.15484 8.18916 8.94013 8C9.15484 7.81084 9.29032 7.53368 9.29032 7.22581C9.29032 6.65652 8.82735 6.19355 8.25806 6.19355ZM8.25806 9.29032H7.74194V8.25806H8.25806C8.54271 8.25806 8.77419 8.48955 8.77419 8.77419C8.77419 9.05884 8.54271 9.29032 8.25806 9.29032ZM8.25806 7.74194H7.74194V6.70968H8.25806C8.54271 6.70968 8.77419 6.94116 8.77419 7.22581C8.77419 7.51045 8.54271 7.74194 8.25806 7.74194Z" fill="white"/>
<path d="M13.2681 7.22581H14.4991C14.6059 7.52542 14.8898 7.74194 15.2258 7.74194C15.6526 7.74194 16 7.39458 16 6.96774C16 6.5409 15.6526 6.19355 15.2258 6.19355C14.8898 6.19355 14.6059 6.41006 14.4991 6.70968H13.0545L12.5383 7.22581H11.2612C10.9695 5.99742 10.0026 5.03071 8.77419 4.73884V3.46168L9.29032 2.94555V1.5009C9.58994 1.39406 9.80645 1.11019 9.80645 0.774194C9.80645 0.347355 9.4591 0 9.03226 0C8.60542 0 8.25806 0.347355 8.25806 0.774194C8.25806 1.11019 8.47458 1.39406 8.77419 1.5009V2.73187L8.25806 3.248V4.65832C8.17264 4.65161 8.08723 4.64516 8 4.64516C7.91277 4.64516 7.82735 4.65161 7.74194 4.65832V3.248L7.22581 2.73187V1.5009C7.52542 1.39406 7.74194 1.11019 7.74194 0.774194C7.74194 0.347355 7.39458 0 6.96774 0C6.5409 0 6.19355 0.347355 6.19355 0.774194C6.19355 1.11019 6.41006 1.39406 6.70968 1.5009V2.94555L7.22581 3.46168V4.73884C5.99742 5.03045 5.03071 5.99742 4.73884 7.22581H3.46168L2.94555 6.70968H1.5009C1.39406 6.41006 1.11019 6.19355 0.774194 6.19355C0.347355 6.19355 0 6.5409 0 6.96774C0 7.39458 0.347355 7.74194 0.774194 7.74194C1.11019 7.74194 1.39406 7.52542 1.5009 7.22581H2.73187L3.248 7.74194H4.65832C4.65161 7.82735 4.64516 7.91277 4.64516 8C4.64516 8.08723 4.65161 8.17264 4.65832 8.25806H3.248L2.73187 8.77419H1.5009C1.39406 8.47458 1.11019 8.25806 0.774194 8.25806C0.347355 8.25806 0 8.60542 0 9.03226C0 9.4591 0.347355 9.80645 0.774194 9.80645C1.11019 9.80645 1.39406 9.58994 1.5009 9.29032H2.94555L3.46168 8.77419H4.73884C5.03045 10.0026 5.99742 10.9693 7.22581 11.2612V12.5383L6.70968 13.0545V14.4991C6.41006 14.6059 6.19355 14.8898 6.19355 15.2258C6.19355 15.6526 6.5409 16 6.96774 16C7.39458 16 7.74194 15.6526 7.74194 15.2258C7.74194 14.8898 7.52542 14.6059 7.22581 14.4991V13.2681L7.74194 12.752V11.3417C7.82735 11.3484 7.91277 11.3548 8 11.3548C8.08723 11.3548 8.17264 11.3484 8.25806 11.3417V12.752L8.77419 13.2681V14.4991C8.47458 14.6059 8.25806 14.8898 8.25806 15.2258C8.25806 15.6526 8.60542 16 9.03226 16C9.4591 16 9.80645 15.6526 9.80645 15.2258C9.80645 14.8898 9.58994 14.6059 9.29032 14.4991V13.0545L8.77419 12.5383V11.2612C10.0026 10.9695 10.9693 10.0026 11.2612 8.77419H12.5383L13.0545 9.29032H14.4991C14.6059 9.58994 14.8898 9.80645 15.2258 9.80645C15.6526 9.80645 16 9.4591 16 9.03226C16 8.60542 15.6526 8.25806 15.2258 8.25806C14.8898 8.25806 14.6059 8.47458 14.4991 8.77419H13.2681L12.752 8.25806H11.3417C11.3484 8.17264 11.3548 8.08723 11.3548 8C11.3548 7.91277 11.3484 7.82735 11.3417 7.74194H12.752L13.2681 7.22581ZM15.2258 6.70968C15.368 6.70968 15.4839 6.82555 15.4839 6.96774C15.4839 7.10994 15.368 7.22581 15.2258 7.22581C15.0836 7.22581 14.9677 7.10994 14.9677 6.96774C14.9677 6.82555 15.0836 6.70968 15.2258 6.70968ZM9.03226 0.516129C9.17445 0.516129 9.29032 0.632 9.29032 0.774194C9.29032 0.916387 9.17445 1.03226 9.03226 1.03226C8.89006 1.03226 8.77419 0.916387 8.77419 0.774194C8.77419 0.632 8.89006 0.516129 9.03226 0.516129ZM6.96774 0.516129C7.10994 0.516129 7.22581 0.632 7.22581 0.774194C7.22581 0.916387 7.10994 1.03226 6.96774 1.03226C6.82555 1.03226 6.70968 0.916387 6.70968 0.774194C6.70968 0.632 6.82555 0.516129 6.96774 0.516129ZM0.774194 7.22581C0.632 7.22581 0.516129 7.10994 0.516129 6.96774C0.516129 6.82555 0.632 6.70968 0.774194 6.70968C0.916387 6.70968 1.03226 6.82555 1.03226 6.96774C1.03226 7.10994 0.916387 7.22581 0.774194 7.22581ZM0.774194 9.29032C0.632 9.29032 0.516129 9.17445 0.516129 9.03226C0.516129 8.89006 0.632 8.77419 0.774194 8.77419C0.916387 8.77419 1.03226 8.89006 1.03226 9.03226C1.03226 9.17445 0.916387 9.29032 0.774194 9.29032ZM6.96774 15.4839C6.82555 15.4839 6.70968 15.368 6.70968 15.2258C6.70968 15.0836 6.82555 14.9677 6.96774 14.9677C7.10994 14.9677 7.22581 15.0836 7.22581 15.2258C7.22581 15.368 7.10994 15.4839 6.96774 15.4839ZM9.03226 15.4839C8.89006 15.4839 8.77419 15.368 8.77419 15.2258C8.77419 15.0836 8.89006 14.9677 9.03226 14.9677C9.17445 14.9677 9.29032 15.0836 9.29032 15.2258C9.29032 15.368 9.17445 15.4839 9.03226 15.4839ZM15.2258 8.77419C15.368 8.77419 15.4839 8.89006 15.4839 9.03226C15.4839 9.17445 15.368 9.29032 15.2258 9.29032C15.0836 9.29032 14.9677 9.17445 14.9677 9.03226C14.9677 8.89006 15.0836 8.77419 15.2258 8.77419ZM8 10.8387C6.43484 10.8387 5.16129 9.56516 5.16129 8C5.16129 6.43484 6.43484 5.16129 8 5.16129C9.56516 5.16129 10.8387 6.43484 10.8387 8C10.8387 9.56516 9.56516 10.8387 8 10.8387Z" fill="white"/>
<path d="M13.1613 5.67742C14.7265 5.67742 16 4.40387 16 2.83871C16 1.27355 14.7265 0 13.1613 0C11.5961 0 10.3226 1.27355 10.3226 2.83871C10.3226 4.40387 11.5961 5.67742 13.1613 5.67742ZM13.1613 0.516129C14.4418 0.516129 15.4839 1.55819 15.4839 2.83871C15.4839 4.11923 14.4418 5.16129 13.1613 5.16129C11.8808 5.16129 10.8387 4.11923 10.8387 2.83871C10.8387 1.55819 11.8808 0.516129 13.1613 0.516129Z" fill="white"/>
<path d="M13.1613 10.3226C11.5961 10.3226 10.3226 11.5961 10.3226 13.1613C10.3226 14.7265 11.5961 16 13.1613 16C14.7265 16 16 14.7265 16 13.1613C16 11.5961 14.7265 10.3226 13.1613 10.3226ZM13.1613 15.4839C11.8808 15.4839 10.8387 14.4418 10.8387 13.1613C10.8387 11.8808 11.8808 10.8387 13.1613 10.8387C14.4418 10.8387 15.4839 11.8808 15.4839 13.1613C15.4839 14.4418 14.4418 15.4839 13.1613 15.4839Z" fill="white"/>
<path d="M13.1613 4.64516C13.7306 4.64516 14.1935 4.18219 14.1935 3.6129H13.6774C13.6774 3.89755 13.4459 4.12903 13.1613 4.12903C12.8766 4.12903 12.6452 3.89755 12.6452 3.6129H13.1613V3.09677H12.6452V2.58065H13.1613V2.06452H12.6452C12.6452 1.77987 12.8766 1.54839 13.1613 1.54839C13.4459 1.54839 13.6774 1.77987 13.6774 2.06452H14.1935C14.1935 1.49523 13.7306 1.03226 13.1613 1.03226C12.592 1.03226 12.129 1.49523 12.129 2.06452H11.6129V2.58065H12.129V3.09677H11.6129V3.6129H12.129C12.129 4.18219 12.592 4.64516 13.1613 4.64516Z" fill="white"/>
<path d="M14.376 11.7954L14.0111 11.4305L13.1613 12.2803L12.3115 11.4305L11.9466 11.7954L12.9032 12.752V12.9032H12.3871V13.4194H12.9032V13.9355H12.3871V14.4516H12.9032V14.9677H13.4194V14.4516H13.9355V13.9355H13.4194V13.4194H13.9355V12.9032H13.4194V12.752L14.376 11.7954Z" fill="white"/>
<path d="M1.80645 12.6452V12.9032H1.29032V13.4194H1.80645V14.9677H3.6129V14.4516H2.32258V13.4194H2.83871V12.9032H2.32258V12.6452C2.32258 12.2183 2.66994 11.871 3.09677 11.871H3.6129V11.3548H3.09677C2.38529 11.3548 1.80645 11.9337 1.80645 12.6452Z" fill="white"/>
</svg>
