<svg width="9" height="7" viewBox="0 0 9 7" fill="none" xmlns="http://www.w3.org/2000/svg">
<path d="M8.06168 6.71412C8.06095 6.73647 8.05536 6.75835 8.04534 6.77804C8.03532 6.79774 8.02114 6.81472 8.0039 6.82767C7.98667 6.84062 7.96684 6.84919 7.94597 6.85272C7.92509 6.85624 7.90373 6.85462 7.88355 6.84799L5.84566 6.17811C5.8174 6.16882 5.79272 6.15013 5.77531 6.12481C5.75789 6.09949 5.74867 6.06891 5.749 6.0376C5.74933 6.00629 5.7592 5.97592 5.77715 5.95103C5.79509 5.92613 5.82016 5.90803 5.84861 5.89941L6.44498 5.71877C6.4661 5.71237 6.48547 5.7007 6.50146 5.68475C6.51744 5.66879 6.52958 5.64902 6.53685 5.62707C6.54412 5.60513 6.54631 5.58166 6.54324 5.55864C6.54017 5.53561 6.53193 5.5137 6.51921 5.49474L4.91762 3.10862C4.89651 3.07717 4.86446 3.05588 4.82852 3.04944C4.79258 3.043 4.7557 3.05193 4.72598 3.07426L2.82107 4.50586C2.79135 4.52819 2.75446 4.53712 2.71853 4.53068C2.68259 4.52423 2.65054 4.50295 2.62943 4.4715L0.162321 0.795891C0.151869 0.780321 0.144419 0.762724 0.140394 0.744107C0.13637 0.725489 0.13585 0.706215 0.138865 0.687385C0.14188 0.668555 0.148371 0.650538 0.157966 0.634362C0.167562 0.618187 0.180074 0.604169 0.194789 0.59311L0.755057 0.172051C0.769772 0.160992 0.786402 0.153108 0.803996 0.14885C0.82159 0.144591 0.839805 0.144042 0.857601 0.147232C0.875396 0.150422 0.892423 0.15729 0.90771 0.167444C0.922997 0.177597 0.936244 0.190837 0.946696 0.206408L2.85672 3.05205C2.87782 3.08349 2.90987 3.10478 2.94581 3.11122C2.98175 3.11766 3.01864 3.10874 3.04835 3.0864L4.95326 1.6548C4.96798 1.64375 4.98461 1.63586 5.0022 1.6316C5.0198 1.62735 5.03801 1.6268 5.05581 1.62999C5.0736 1.63318 5.09063 1.64004 5.10592 1.6502C5.1212 1.66035 5.13445 1.67359 5.1449 1.68916L7.30358 4.90526C7.31631 4.92422 7.33314 4.93967 7.35268 4.95032C7.37221 4.96098 7.39387 4.96652 7.41585 4.96648C7.43782 4.96644 7.45947 4.96083 7.47897 4.95012C7.49848 4.9394 7.51527 4.92389 7.52793 4.90489L7.88557 4.36855C7.90263 4.34296 7.92704 4.32389 7.95517 4.31416C7.9833 4.30443 8.01364 4.30456 8.04169 4.31455C8.06974 4.32453 8.09399 4.34383 8.11084 4.36956C8.1277 4.3953 8.13625 4.42611 8.13523 4.4574L8.06168 6.71412Z" fill="#B14C6B"/>
<path d="M8.08555 4.17678C8.02948 4.15639 7.96866 4.15589 7.9123 4.17537C7.85593 4.19485 7.80711 4.23324 7.77323 4.28472L7.41567 4.82099L5.2569 1.60505C5.21471 1.54216 5.15065 1.49957 5.07879 1.48665C5.00693 1.47373 4.93316 1.49154 4.87371 1.53617L2.96882 2.96789L1.05876 0.122196C1.01644 0.0594435 0.952344 0.0169821 0.880508 0.00410031C0.808672 -0.00878151 0.734939 0.0089647 0.675436 0.0534572L0.115275 0.474552C0.0561 0.519443 0.0160696 0.587243 0.00389176 0.663202C-0.0082861 0.739162 0.00837366 0.817137 0.0502472 0.880167L2.51738 4.5557C2.5596 4.61857 2.62369 4.66112 2.69556 4.67401C2.76743 4.6869 2.84119 4.66907 2.90064 4.62443L4.80552 3.19285L6.40715 5.57896L5.81082 5.75947C5.7539 5.7767 5.70375 5.81292 5.66784 5.86273C5.63192 5.91254 5.61217 5.97329 5.6115 6.03593C5.61084 6.09858 5.6293 6.15978 5.66415 6.21043C5.699 6.26108 5.74837 6.29848 5.80491 6.31705L7.84261 6.98683C7.88299 7.00015 7.92573 7.00342 7.9675 6.9964C8.00927 6.98937 8.04894 6.97224 8.08343 6.94633C8.11791 6.92042 8.14628 6.88644 8.16632 6.84703C8.18636 6.80762 8.19753 6.76384 8.19896 6.71912L8.27251 4.46239C8.27487 4.39976 8.2579 4.33802 8.22417 4.2865C8.19044 4.23498 8.14179 4.19646 8.08555 4.17678Z" fill="#B14C6B"/>
</svg>
