<svg width="9" height="7" viewBox="0 0 9 7" fill="none" xmlns="http://www.w3.org/2000/svg">
<path d="M8.1857 0.285884C8.18496 0.26353 8.17929 0.241655 8.16911 0.22196C8.15894 0.202265 8.14454 0.185281 8.12704 0.172329C8.10954 0.159377 8.08941 0.150806 8.06821 0.147283C8.04702 0.143759 8.02533 0.145379 8.00483 0.152014L5.93559 0.821892C5.90689 0.831181 5.88184 0.849873 5.86416 0.875189C5.84648 0.900506 5.83711 0.931093 5.83744 0.962403C5.83778 0.993714 5.84781 1.02408 5.86603 1.04897C5.88425 1.07387 5.9097 1.09197 5.93858 1.10059L6.54413 1.28123C6.56558 1.28763 6.58525 1.2993 6.60148 1.31525C6.61771 1.33121 6.63004 1.35098 6.63742 1.37293C6.6448 1.39487 6.64703 1.41834 6.64391 1.44136C6.64079 1.46439 6.63242 1.4863 6.6195 1.50526L4.99327 3.89138C4.97184 3.92283 4.9393 3.94412 4.90281 3.95056C4.86631 3.957 4.82886 3.94807 4.79869 3.92574L2.86447 2.49414C2.83429 2.47181 2.79684 2.46288 2.76035 2.46932C2.72386 2.47577 2.69132 2.49705 2.66988 2.5285L0.164818 6.20411C0.154206 6.21968 0.146641 6.23728 0.142554 6.25589C0.138468 6.27451 0.13794 6.29378 0.141001 6.31261C0.144063 6.33144 0.150653 6.34946 0.160396 6.36564C0.17014 6.38181 0.182845 6.39583 0.197786 6.40689L0.766673 6.82795C0.781615 6.83901 0.7985 6.84689 0.816365 6.85115C0.83423 6.85541 0.852725 6.85596 0.870795 6.85277C0.888864 6.84958 0.906153 6.84271 0.921675 6.83256C0.937197 6.8224 0.950648 6.80916 0.96126 6.79359L2.90067 3.94795C2.9221 3.91651 2.95464 3.89522 2.99113 3.88878C3.02762 3.88234 3.06508 3.89126 3.09525 3.9136L5.02947 5.3452C5.04441 5.35625 5.06129 5.36414 5.07916 5.3684C5.09702 5.37265 5.11552 5.3732 5.13359 5.37001C5.15166 5.36682 5.16895 5.35996 5.18447 5.3498C5.19999 5.33965 5.21344 5.32641 5.22405 5.31084L7.41595 2.09474C7.42887 2.07578 7.44596 2.06033 7.46579 2.04968C7.48563 2.03902 7.50763 2.03348 7.52994 2.03352C7.55225 2.03356 7.57423 2.03917 7.59403 2.04988C7.61384 2.0606 7.63088 2.07611 7.64375 2.09511L8.00689 2.63145C8.02421 2.65704 8.049 2.67611 8.07756 2.68584C8.10612 2.69557 8.13693 2.69544 8.16541 2.68545C8.19389 2.67547 8.21851 2.65617 8.23563 2.63044C8.25274 2.6047 8.26142 2.57389 8.26039 2.5426L8.1857 0.285884Z" fill="#71BA57"/>
<path d="M8.20994 2.82322C8.15301 2.84361 8.09125 2.84411 8.03402 2.82463C7.97679 2.80515 7.92722 2.76676 7.89281 2.71528L7.52976 2.17901L5.33778 5.39495C5.29494 5.45784 5.22989 5.50043 5.15692 5.51335C5.08396 5.52627 5.00906 5.50846 4.94869 5.46383L3.01449 4.03211L1.07505 6.8778C1.03207 6.94056 0.966996 6.98302 0.894054 6.9959C0.821113 7.00878 0.746245 6.99104 0.685827 6.94654L0.117049 6.52545C0.056963 6.48056 0.0163168 6.41276 0.00395163 6.3368C-0.00841358 6.26084 0.00850248 6.18286 0.0510202 6.11983L2.55611 2.4443C2.59898 2.38143 2.66406 2.33888 2.73703 2.32599C2.81 2.3131 2.8849 2.33093 2.94526 2.37557L4.87946 3.80715L6.50572 1.42104L5.90022 1.24053C5.84242 1.2233 5.7915 1.18708 5.75503 1.13727C5.71857 1.08746 5.69851 1.02671 5.69783 0.964068C5.69716 0.901421 5.71591 0.84022 5.75129 0.78957C5.78668 0.738919 5.8368 0.701524 5.89422 0.682947L7.96327 0.0131731C8.00427 -0.000145435 8.04766 -0.00342083 8.09007 0.00360346C8.13249 0.0106277 8.17277 0.0277615 8.20779 0.0536695C8.2428 0.0795774 8.27161 0.113561 8.29196 0.152972C8.3123 0.192382 8.32365 0.236157 8.3251 0.280885L8.39978 2.53761C8.40217 2.60024 8.38494 2.66198 8.3507 2.7135C8.31645 2.76502 8.26705 2.80354 8.20994 2.82322Z" fill="#71BA57"/>
</svg>
