<svg width="16" height="16" viewBox="0 0 16 16" fill="none" xmlns="http://www.w3.org/2000/svg">
<path d="M16 8.00032C16 12.4178 12.418 15.9994 7.99808 16C3.58137 16 -0.000639759 12.4178 3.4305e-07 7.99968C-0.00127986 3.58158 3.58073 0 7.99936 0C12.418 0 16 3.58222 16 8.00032Z" fill="#EAB300"/>
<path fill-rule="evenodd" clip-rule="evenodd" d="M11.1474 6.03935C11.0443 4.96782 10.1194 4.60872 8.95056 4.50631V3.01935H8.0461V4.46662C7.80862 4.46662 7.56538 4.4711 7.32406 4.47622V3.01935H6.4196L6.41896 4.50503L6.40926 4.50522H6.40925C6.21672 4.50899 6.02732 4.51271 5.84287 4.51271V4.50823L4.59531 4.50759V5.47414C4.59531 5.47414 5.26357 5.46134 5.25205 5.4735C5.61883 5.4735 5.73789 5.68602 5.77245 5.86972V7.56344C5.79806 7.56344 5.8307 7.56472 5.86783 7.56984H5.77245L5.77181 9.9427C5.75581 10.0579 5.68796 10.2416 5.43192 10.2423C5.44344 10.2525 4.77453 10.2423 4.77453 10.2423L4.59467 11.3228H5.77245C5.90525 11.3228 6.03687 11.3242 6.16702 11.3256L6.1676 11.3256C6.25181 11.3265 6.33541 11.3274 6.41832 11.3279L6.41896 12.8315H7.32278V11.3439C7.5705 11.349 7.81054 11.3509 8.04546 11.3509L8.04482 12.8315H8.94928V11.3311C10.4702 11.244 11.5359 10.8606 11.6678 9.43189C11.7747 8.28163 11.2338 7.76763 10.3703 7.56024C10.8958 7.29395 11.2242 6.82348 11.1474 6.03935ZM9.88133 9.25392C9.88133 10.2858 8.25855 10.2624 7.51838 10.2517C7.45271 10.2508 7.39399 10.2499 7.34396 10.2499V8.25729C7.40648 8.25742 7.48259 8.25571 7.56887 8.25377C8.32969 8.23669 9.88133 8.20184 9.88133 9.25392ZM7.49525 7.3481C8.11459 7.35788 9.46014 7.37913 9.46014 6.44326C9.46072 5.48543 8.16411 5.51974 7.53021 5.53652C7.45878 5.53841 7.39576 5.54007 7.34396 5.54007V7.34644C7.38712 7.34639 7.4381 7.34719 7.49525 7.3481Z" fill="#EEF2F9"/>
<path d="M5.7738 7.52374H5.90823V7.62296H5.7738V7.52374Z" fill="#1E222A"/>
</svg>
