<svg width="26" height="26" viewBox="0 0 26 26" fill="none" xmlns="http://www.w3.org/2000/svg">
<path d="M25.9998 13.0257C25.9753 13.0455 25.9488 13.0634 25.9266 13.0855C25.0079 14.0046 24.0896 14.9242 23.1711 15.8435C23.1407 15.874 23.1095 15.9034 23.0867 15.9254C22.1109 14.9485 21.1398 13.9763 20.179 13.0143C21.1377 12.0546 22.1085 11.0828 23.0879 10.1022C23.0983 10.1113 23.1258 10.1328 23.1503 10.1573C24.0916 11.1 25.0324 12.0429 25.9737 12.9856C25.9811 12.9931 25.9912 12.9978 26 13.0039C25.9998 13.0111 25.9998 13.0184 25.9998 13.0257Z" fill="#EAB300"/>
<path d="M7.93466 10.9015C6.95655 9.92238 5.98701 8.9518 5.01548 7.97923C5.04837 7.92038 12.8589 0.0884 12.9747 0C15.634 2.66214 18.2922 5.32324 20.9528 7.98668C20.9202 8.04553 18.1854 10.7962 18.042 10.9073C16.3608 9.22411 14.6783 7.53974 12.9855 5.84497C11.2945 7.53792 9.61214 9.22211 7.93466 10.9015Z" fill="#EAB300"/>
<path d="M7.92419 15.107C9.61232 16.797 11.2927 18.4792 12.9808 20.1692C13.1813 19.9864 13.3613 19.7944 13.5481 19.6095C13.7359 19.4236 13.9219 19.2358 14.1087 19.0487C14.2956 18.8617 14.4824 18.6747 14.6692 18.4876C14.856 18.3006 15.0428 18.1136 15.2296 17.9266C15.419 17.737 15.6083 17.5474 15.7977 17.3579C15.9845 17.1708 16.1714 16.9838 16.3582 16.7968C16.545 16.6098 16.7318 16.4227 16.9186 16.2357C17.1054 16.0487 17.2922 15.8616 17.479 15.6746C17.6655 15.4879 17.852 15.3013 18.0489 15.1043C19.0272 16.0825 19.999 17.0542 20.9616 18.0166C18.2964 20.6848 15.6365 23.3475 12.987 26C10.3384 23.3483 7.67869 20.6854 5.01123 18.0149C5.97125 17.0563 6.94383 16.0855 7.92419 15.107Z" fill="#EAB300"/>
<path d="M12.9866 15.9554C12.0073 14.975 11.0207 13.9874 10.042 13.0076C11.0201 12.0285 12.0064 11.041 12.9839 10.0624L15.9284 13.0103C14.9499 13.9898 13.9635 14.9775 12.9866 15.9554Z" fill="#EAB300"/>
<path d="M0 13.002L2.89469 10.1039L5.79249 13.0051C4.83152 13.9674 3.86034 14.9399 2.89815 15.9034C1.94133 14.9456 0.970061 13.9732 0 13.002Z" fill="#EAB300"/>
</svg>
