<svg width="15" height="20" viewBox="0 0 15 20" fill="none" xmlns="http://www.w3.org/2000/svg">
<path fill-rule="evenodd" clip-rule="evenodd" d="M2.06526 0H13.1069C13.9605 0 14.6554 0.694891 14.6554 1.54846V13.6735C14.6554 14.2589 14.3927 14.8116 13.9386 15.1782L8.31381 19.7415C7.88702 20.0862 7.27421 20.0862 6.84742 19.7415L1.22264 15.1782C0.768495 14.8116 0.505859 14.2589 0.505859 13.6735V1.54846C0.516803 0.694891 1.21169 0 2.06526 0Z" fill="#356BB3"/>
<path fill-rule="evenodd" clip-rule="evenodd" d="M11.1701 2.32544C11.8103 2.32544 12.3301 2.84524 12.3301 3.48541V7.23345V7.26628C12.3137 8.0323 11.6954 8.64512 10.9349 8.66153C11.7009 8.67795 12.3137 9.29623 12.3301 10.0568V10.0896V12.4369C12.3301 12.7707 12.1878 13.088 11.9362 13.3069L9.01433 15.8785V10.6258C9.01433 9.98565 8.49453 9.46585 7.85435 9.46585H6.15269V15.884L3.23087 13.3124C2.97918 13.0935 2.83691 12.7762 2.83691 12.4424V3.48541C2.83691 2.84524 3.35671 2.32544 3.99689 2.32544H11.1701ZM9.0198 3.92861H6.15269V7.50156H7.85435C8.49453 7.50156 9.01433 6.98176 9.01433 6.34158V3.92861H9.0198Z" fill="white"/>
</svg>
