<svg width="13" height="20" viewBox="0 0 13 20" fill="none" xmlns="http://www.w3.org/2000/svg">
<path d="M6.28571 0V7.36327C6.28571 7.39592 6.25306 7.42857 6.22041 7.42857C5.99728 7.52109 5.80136 7.61905 5.57823 7.71157C5.2898 7.83674 4.96871 7.96191 4.68027 8.11973L3.62449 8.5932L2.75918 8.97415L1.7034 9.44762C1.41497 9.57279 1.12653 9.69796 0.805442 9.85578C0.582313 9.9483 0.326531 10.0789 0.0979594 10.1714C0.0653063 10.1714 0.0653056 10.2041 0.0326526 10.1714H0C0.0979592 10.0136 0.190476 9.88844 0.288436 9.73061C0.8 8.87619 1.34422 8.02177 1.86122 7.17279C2.40544 6.2585 2.98231 5.33878 3.52653 4.42449C4.0381 3.57007 4.5551 2.71565 5.06667 1.89932C5.45306 1.26803 5.83401 0.669388 6.18776 0.0326532C6.25306 0.0326532 6.25306 0 6.28571 0Z" fill="#8A92B2"/>
<path d="M12.506 10.1769C12.0271 10.4925 11.5101 10.7755 11.0312 11.064C9.45837 11.9782 7.91824 12.8653 6.35089 13.7796C6.31824 13.7796 6.31823 13.8123 6.28558 13.8123C6.25293 13.8123 6.25293 13.7796 6.25293 13.7796V13.6816V7.52111V7.42859C6.25293 7.39594 6.28558 7.39594 6.31823 7.39594C6.44885 7.46124 6.57402 7.52111 6.73728 7.58641C7.12368 7.77689 7.53728 7.93471 7.92368 8.12519C8.27742 8.28301 8.59851 8.44083 8.95225 8.566C9.30599 8.72383 9.62708 8.88165 9.98082 9.03947C10.2693 9.16464 10.5903 9.28981 10.8788 9.44764C11.1672 9.57281 11.4883 9.69798 11.7767 9.8558C11.9999 9.94832 12.2284 10.0789 12.4842 10.1714C12.4733 10.1442 12.4733 10.1769 12.506 10.1769Z" fill="#464A75"/>
<path d="M6.28578 20C6.25312 20 6.25312 20 6.22047 19.9673C5.57829 19.0803 4.96877 18.2313 4.32659 17.3442L2.4055 14.6939C1.79598 13.8395 1.1538 12.985 0.54428 12.1034L0.0653682 11.4395C0.0653682 11.4068 0.0327148 11.4068 0.0327148 11.3741C0.0653679 11.3741 0.0653686 11.4068 0.0980216 11.4068C0.963328 11.9129 1.86129 12.419 2.72659 12.9252C3.72251 13.5238 4.74564 14.0952 5.74156 14.6939C5.89938 14.7864 6.0953 14.8843 6.25312 14.9769C6.28578 14.9769 6.28578 15.0095 6.28578 15.0422V20Z" fill="#8A92B2"/>
<path d="M0.0327148 10.1769C0.0653679 10.1769 0.0653679 10.1769 0.0327148 10.1769C0.0327148 10.2041 0.0327148 10.2041 0.0327148 10.1769Z" fill="#808081"/>
<path d="M0.0654297 10.2041C0.0654297 10.1769 0.0654297 10.1769 0.0654297 10.2041C0.386518 10.0463 0.707606 9.9211 1.02869 9.76328L2.2804 9.19185C2.60148 9.03403 2.92257 8.90886 3.24366 8.75104C3.68992 8.52791 4.17427 8.34287 4.62053 8.11974C4.94162 7.99457 5.26271 7.83675 5.5838 7.71158C5.80693 7.61906 6.03005 7.5211 6.25863 7.39593C6.29128 7.39593 6.29128 7.36328 6.32393 7.36328V13.8068C6.29128 13.8395 6.29128 13.8068 6.25863 13.8068C6.16067 13.7415 6.06815 13.7143 6.00284 13.649L0.136178 10.2368C0.0980829 10.2041 0.0654297 10.2041 0.0654297 10.2041ZM12.4736 11.3742C12.4736 11.4068 12.4736 11.4068 12.4409 11.4395C10.5797 14.0299 8.71849 16.5878 6.86271 19.1782C6.67223 19.4612 6.47631 19.717 6.28584 20V19.9674V19.9021V15.0694V14.9769C6.70488 14.7265 7.11849 14.4708 7.53754 14.2476C9.17563 13.3007 10.8083 12.3538 12.4464 11.4014C12.4409 11.3742 12.4736 11.3742 12.4736 11.3742Z" fill="#636890"/>
<path d="M6.28564 7.39593V7.33062V0.0925278V0.0272217L12.4407 10.0735C12.4734 10.1061 12.5061 10.1388 12.5061 10.166C12.3754 10.1007 12.2503 10.0408 12.087 9.97552C11.9292 9.91021 11.7659 9.8177 11.6081 9.75239C11.5101 9.71974 11.4176 9.65987 11.287 9.62722C11.1292 9.56192 10.9333 9.4694 10.7754 9.40409C10.6775 9.37144 10.585 9.31157 10.487 9.27892L9.81218 8.99593C9.68156 8.93062 9.58905 8.90341 9.45843 8.83811C9.30061 8.7728 9.13735 8.68028 8.97952 8.61498C8.88156 8.58232 8.78905 8.52246 8.69109 8.48981L8.01626 8.20681C7.88565 8.14151 7.79313 8.1143 7.66252 8.04899C7.50469 7.98368 7.34143 7.89117 7.1836 7.82586C7.08564 7.76055 6.96047 7.73334 6.86252 7.66804L6.28564 7.39593Z" fill="#636890"/>
</svg>
