<svg width="16" height="16" viewBox="0 0 16 16" fill="none" xmlns="http://www.w3.org/2000/svg">
<path d="M16 8.00032C16 12.4178 12.418 15.9994 7.99808 16C3.58137 16 -0.000639759 12.4178 3.4305e-07 7.99968C-0.00127986 3.58158 3.58073 0 7.99936 0C12.418 0 16 3.58222 16 8.00032Z" fill="url(#paint0_linear_115_28021)"/>
<path d="M5.97481 9.5794C6.01101 9.53321 6.06079 9.50626 6.11359 9.50626H10.9016C10.9891 9.50626 11.0329 9.641 10.971 9.71992L10.0252 10.9269C9.98899 10.9731 9.9392 11 9.88641 11H5.09836C5.01086 11 4.96712 10.8653 5.02897 10.7863L5.97481 9.5794Z" fill="white"/>
<path d="M5.97481 5.07315C6.01252 5.02695 6.0623 5 6.11359 5H10.9016C10.9891 5 11.0329 5.13474 10.971 5.21367L10.0252 6.4206C9.98899 6.4668 9.9392 6.49374 9.88641 6.49374H5.09836C5.01086 6.49374 4.96712 6.359 5.02897 6.28008L5.97481 5.07315Z" fill="white"/>
<path d="M10.0252 7.31184C9.98899 7.26564 9.9392 7.23869 9.88641 7.23869H5.09836C5.01086 7.23869 4.96712 7.37344 5.02897 7.45236L5.97481 8.65929C6.01101 8.70549 6.06079 8.73243 6.11359 8.73243H10.9016C10.9891 8.73243 11.0329 8.59769 10.971 8.51877L10.0252 7.31184Z" fill="white"/>
<path d="M4.73633 6.77734H4.89315V6.8931H4.73633V6.77734Z" fill="#FEFEFE"/>
<defs>
<linearGradient id="paint0_linear_115_28021" x1="8" y1="0" x2="8" y2="16" gradientUnits="userSpaceOnUse">
<stop stop-color="#31CEB8"/>
<stop offset="0.5" stop-color="#7886D6"/>
<stop offset="1" stop-color="#B24BEE"/>
</linearGradient>
</defs>
</svg>
